{"glyphs":{"0":{"ha":1113,"x_min":25,"x_max":1100,"o":"m 460 764 q 313 684 360 736 q 265 533 265 632 q 267 500 265 518 q 272 463 269 482 q 554 225 318 225 q 828 315 692 225 q 849 453 842 390 q 856 568 856 515 q 841 670 856 635 q 801 733 826 706 q 621 788 751 788 q 540 782 581 788 q 460 764 500 776 m 794 17 q 678 1 742 6 q 550 -3 614 -3 l 467 -3 q 147 103 253 -3 q 42 418 42 208 l 42 435 q 135 803 46 679 q 338 940 199 890 q 603 976 449 976 q 839 940 743 976 q 1014 763 957 890 q 1060 510 1060 658 q 1060 480 1060 497 q 1061 443 1061 463 q 1058 387 1061 417 q 1043 325 1054 357 q 985 183 1015 236 q 922 99 954 131 q 857 51 889 68 q 794 17 825 33 m 493 -42 l 576 -42 q 706 -37 642 -42 q 824 -22 771 -33 l 826 -21 q 838 -15 833 -18 q 850 -8 843 -11 q 910 26 879 7 q 970 77 940 44 q 1028 161 1000 110 q 1082 294 1057 213 l 1081 294 q 1097 359 1093 329 q 1100 417 1100 389 q 1099 438 1100 428 q 1099 457 1099 447 l 1099 483 q 1087 624 1099 558 q 1051 742 1075 689 q 989 839 1026 797 q 844 956 932 919 q 603 993 749 993 q 332 956 444 993 q 122 813 192 906 q 25 435 29 682 l 25 418 q 174 58 25 164 q 493 -42 282 -42 m 311 439 q 306 475 308 458 q 304 507 304 492 q 349 650 304 601 q 489 725 393 699 l 490 725 q 569 743 531 738 q 647 749 608 749 q 790 719 742 749 q 826 662 813 694 q 839 568 839 629 q 832 458 839 517 q 813 328 825 399 q 554 242 681 242 q 354 319 424 242 q 311 439 324 368 m 158 72 l 164 68 q 158 72 161 69 z "},"1":{"ha":1090,"x_min":17,"x_max":1081,"o":"m 1042 78 q 724 10 935 31 q 622 3 665 6 q 543 0 578 0 q 253 17 376 1 q 38 67 129 33 l 97 326 q 393 243 222 272 q 456 610 456 410 q 455 667 456 639 q 451 719 454 694 q 287 710 364 717 q 139 693 210 704 l 100 872 q 201 908 136 894 q 361 931 265 922 q 456 938 414 936 q 535 940 499 940 l 611 940 q 640 941 642 940 q 627 940 638 942 q 611 933 617 938 q 629 917 606 928 l 650 821 q 659 768 656 800 q 665 699 663 736 q 667 624 667 663 q 668 549 668 585 l 668 467 q 647 232 668 354 q 993 265 835 242 l 1042 78 m 707 440 l 707 522 q 706 598 707 558 q 703 675 706 638 q 698 744 701 713 q 689 797 694 776 l 667 899 l 664 901 l 667 901 l 667 926 l 644 949 l 644 957 l 535 957 q 455 955 497 957 q 360 947 413 953 q 191 924 260 939 q 81 882 122 908 l 126 675 l 132 675 l 156 653 q 292 670 222 664 q 438 679 361 676 q 439 643 439 660 q 439 610 439 626 q 383 263 439 426 q 85 350 211 294 l 17 57 l 29 53 l 49 33 q 276 -20 149 -3 q 569 -39 403 -37 q 649 -36 604 -39 q 751 -29 693 -33 q 1074 40 967 -8 l 1081 54 l 1029 253 l 1008 274 l 1006 283 q 853 265 932 272 q 693 251 774 257 q 703 347 700 300 q 707 440 707 394 z "},"2":{"ha":1104,"x_min":17,"x_max":1097,"o":"m 497 360 q 571 358 538 360 q 635 353 604 357 q 671 475 671 421 q 657 550 671 511 q 651 559 654 554 q 644 567 649 564 q 556 585 608 585 q 210 475 425 585 l 186 497 q 183 496 185 496 q 181 494 182 496 l 113 854 q 272 899 192 882 q 433 928 351 917 q 501 935 471 933 q 556 938 531 938 l 564 938 q 797 867 697 938 q 841 828 821 849 q 876 786 861 808 q 960 546 960 690 q 896 283 960 418 q 1075 199 1006 240 l 1074 192 l 1097 169 l 1065 -31 q 633 49 869 49 q 104 -39 371 49 l 81 -15 q 78 -17 79 -17 q 75 -18 76 -17 l 17 306 q 497 360 238 360 m 497 343 q 38 293 239 343 l 88 4 q 607 88 342 88 q 1029 13 843 88 l 1057 189 q 963 239 1017 215 q 843 286 910 263 q 921 572 921 431 q 788 854 921 756 q 556 921 692 924 q 502 919 532 921 q 435 911 472 917 q 133 843 274 890 l 193 519 q 529 624 399 624 q 672 556 639 624 q 688 475 688 514 q 646 335 688 403 q 582 342 618 340 q 497 343 546 343 z "},"3":{"ha":1094,"x_min":17,"x_max":1086,"o":"m 538 992 q 888 879 739 992 q 969 794 932 843 q 1086 432 1086 658 q 856 28 1086 146 q 557 -36 729 -36 q 460 -33 511 -36 q 347 -24 410 -31 q 221 -8 274 -17 q 132 17 168 1 l 114 35 q 100 40 106 38 l 153 315 q 558 217 396 217 q 781 288 707 217 q 692 274 736 278 q 606 271 647 271 q 264 350 468 271 l 246 368 q 232 374 238 371 l 307 599 q 656 500 494 500 q 822 531 747 500 q 803 564 813 549 q 782 592 793 579 l 782 590 q 774 597 779 592 q 540 657 683 657 q 352 636 453 657 q 129 572 251 615 l 106 594 q 103 594 104 594 q 100 593 101 593 l 17 893 q 197 947 106 925 q 381 979 288 968 q 531 992 472 992 l 538 992 m 531 975 q 382 963 474 975 q 38 883 196 939 l 111 614 q 514 696 343 696 q 786 610 692 696 q 820 568 806 590 q 846 522 835 546 q 656 483 767 483 q 318 575 494 483 l 254 383 q 579 310 446 310 q 844 351 704 310 q 558 200 782 200 q 377 224 475 200 q 165 293 279 247 l 119 50 q 197 31 147 39 q 322 15 247 22 q 435 6 385 8 q 531 3 486 3 q 824 65 699 3 q 1047 458 1047 178 q 878 867 1047 731 q 531 975 733 978 z "},"4":{"ha":1171,"x_min":25,"x_max":1103,"o":"m 382 983 q 314 872 338 925 q 281 767 290 819 q 270 660 271 715 q 269 543 269 606 q 268 531 269 536 q 267 518 267 525 q 271 508 267 510 q 299 496 285 501 q 331 487 313 490 q 375 482 349 483 q 443 481 401 481 q 507 485 471 481 q 588 499 543 490 q 603 666 592 600 q 631 783 614 732 q 674 879 649 833 q 731 988 699 925 l 1000 938 q 938 866 972 908 q 872 778 904 824 q 811 685 839 732 q 769 601 783 639 q 756 538 754 563 q 787 508 758 513 q 873 523 815 503 q 1025 596 931 543 l 1063 375 q 760 292 950 328 q 760 221 760 268 q 762 122 761 174 q 764 26 763 71 q 767 -33 765 -18 l 621 -15 q 615 38 618 -3 q 610 126 613 79 q 604 216 607 174 q 600 275 601 258 q 582 274 596 274 l 567 274 l 535 274 q 473 276 518 274 q 368 282 428 278 q 243 292 308 286 q 119 307 178 299 q 84 452 100 396 q 58 549 68 508 q 44 625 47 590 q 46 706 40 660 q 68 820 51 753 q 114 994 85 888 l 382 983 m 385 1000 l 101 1011 q 67 881 81 936 q 43 783 53 825 q 29 709 33 740 q 25 653 25 678 q 33 579 25 613 q 53 501 40 546 q 54 496 54 499 q 56 490 54 493 q 78 405 65 456 q 104 292 90 354 q 108 290 107 290 q 114 289 111 290 l 135 269 q 263 254 194 261 q 391 243 331 247 q 498 237 451 239 q 561 235 544 235 l 586 235 q 588 206 588 221 q 590 176 588 192 q 594 113 592 146 q 598 52 596 81 q 601 1 600 24 q 606 -31 603 -21 l 615 -32 l 636 -53 l 807 -74 q 803 -12 804 -56 q 801 82 801 32 q 799 180 800 132 q 799 254 799 228 q 965 293 890 272 q 1103 342 1040 314 l 1061 589 l 1039 610 l 1038 622 q 885 546 942 568 q 800 524 828 524 l 794 524 q 823 607 796 556 q 890 715 850 658 q 973 827 929 772 q 1051 919 1017 882 l 1028 943 q 1031 945 1029 944 q 1033 949 1032 946 l 721 1007 q 711 987 717 999 q 700 965 706 975 q 691 947 696 956 q 683 932 686 939 q 640 849 660 888 q 607 764 621 810 q 584 658 593 718 q 571 511 575 599 q 499 501 531 504 q 443 497 467 497 q 356 500 386 497 q 307 510 326 503 q 308 513 307 511 q 308 517 308 514 l 308 543 q 310 651 308 600 q 322 750 311 701 q 354 847 332 799 q 418 950 376 896 l 408 969 l 392 985 l 385 1000 z "},"5":{"ha":1071,"x_min":25,"x_max":1063,"o":"m 568 717 q 551 717 560 717 q 536 715 543 717 q 717 590 639 653 q 853 461 796 528 q 961 310 922 390 l 972 300 l 981 256 q 985 238 983 246 q 989 219 986 229 q 997 181 993 200 q 1001 139 1001 163 q 974 55 1001 94 q 863 -12 946 15 q 706 -33 790 -28 q 631 -41 664 -39 q 572 -43 597 -43 q 362 -26 464 -42 q 167 19 260 -10 l 147 39 l 135 43 l 175 232 q 319 215 251 215 l 435 215 q 521 217 476 215 q 604 223 565 218 q 675 238 643 228 q 724 263 707 247 q 615 415 700 343 q 454 507 550 463 q 343 558 394 539 q 256 583 292 576 l 254 583 q 252 584 253 583 q 251 585 251 585 q 228 590 243 586 q 195 599 213 594 q 161 610 178 604 q 132 624 144 617 l 118 638 q 103 646 107 643 l 39 804 l 25 924 q 57 931 50 931 q 79 933 64 932 q 86 934 82 933 q 93 935 90 935 q 183 941 128 938 q 315 956 239 944 q 367 959 333 957 q 437 963 401 961 q 503 965 472 964 q 546 965 533 965 q 814 950 693 965 q 1042 886 935 935 l 1040 879 l 1063 857 l 1019 643 q 945 663 997 650 q 828 687 893 675 q 695 708 764 699 q 568 717 626 717 m 433 544 q 743 260 706 419 q 671 219 722 232 q 556 201 619 206 q 429 198 493 197 q 319 199 365 199 q 188 211 246 199 l 156 56 q 342 13 244 28 q 546 -4 440 -3 q 603 -2 569 -4 q 678 6 636 0 q 831 26 757 11 q 928 81 900 50 q 961 144 956 111 q 957 213 967 178 q 942 279 947 247 l 935 314 l 932 314 q 764 533 883 428 q 451 747 644 638 q 535 756 486 756 q 636 751 583 756 q 744 737 689 746 q 846 719 799 728 q 930 701 893 710 q 983 686 967 692 l 1022 876 q 808 935 925 921 q 546 949 692 949 q 503 948 533 949 q 438 946 474 947 q 369 942 403 944 q 317 939 335 940 q 120 919 190 921 q 43 914 50 917 l 56 806 l 114 660 q 142 647 125 653 q 177 635 160 640 q 210 627 194 631 q 232 622 225 624 q 319 596 268 615 q 433 544 371 576 z "},"6":{"ha":1014,"x_min":35,"x_max":1004,"o":"m 614 504 q 524 486 561 494 q 452 467 486 478 q 381 442 418 457 q 289 404 343 428 q 269 349 274 368 q 265 318 265 331 q 267 297 265 307 q 269 269 269 288 q 276 222 269 236 q 389 167 310 167 q 596 232 476 167 q 776 351 692 281 q 754 414 771 389 q 715 456 738 439 q 667 485 693 474 q 614 504 640 496 m 747 829 q 592 808 658 829 q 476 749 525 786 q 392 661 426 711 q 335 554 358 611 q 464 610 408 590 q 563 638 519 629 q 640 647 606 647 q 710 640 675 646 q 781 627 744 635 q 865 614 818 619 q 924 556 901 599 q 957 456 947 513 q 964 336 967 399 q 945 219 961 274 q 901 124 929 164 q 832 75 872 85 q 361 -19 561 -19 q 51 304 40 -19 q 67 410 53 343 q 110 554 81 476 q 188 711 140 632 q 305 854 236 790 q 465 958 374 918 q 674 997 557 999 l 747 829 m 388 -58 q 860 36 588 -58 l 861 36 q 924 73 897 44 q 969 143 951 101 q 995 235 986 185 q 1004 338 1004 286 q 985 473 1004 408 q 931 574 967 538 q 867 631 903 615 q 826 637 844 633 q 789 643 807 640 q 778 645 783 644 q 767 647 772 646 q 705 658 735 654 q 639 663 675 663 q 542 651 594 663 q 414 608 489 640 q 472 681 439 647 q 548 739 504 715 q 648 776 592 763 q 774 790 704 790 l 785 808 l 708 983 l 690 1001 l 685 1014 l 667 1014 q 455 972 547 1014 q 292 865 363 931 q 174 719 222 800 q 95 558 125 638 q 51 412 65 479 q 35 304 36 344 l 35 285 q 147 18 35 97 q 388 -58 228 -58 m 757 357 q 589 247 669 289 q 389 183 469 183 q 310 211 342 183 q 308 225 308 218 q 308 243 308 232 q 308 260 308 254 q 306 274 307 267 q 304 292 304 281 q 308 319 304 303 q 325 368 311 336 q 413 404 376 390 q 482 428 449 418 q 551 447 515 439 q 639 464 588 454 q 675 451 657 457 q 710 435 693 444 q 738 401 725 419 q 757 357 750 383 m 896 99 q 919 128 910 113 q 896 99 910 113 m 919 128 q 924 135 922 131 q 928 142 925 139 q 924 135 925 139 q 919 128 922 131 m 879 83 q 892 94 883 86 q 879 83 883 86 z "},"7":{"ha":1071,"x_min":17,"x_max":1063,"o":"m 1040 865 l 1063 843 l 1021 622 q 967 577 983 619 q 950 464 950 535 q 965 283 950 386 q 1004 53 979 181 l 693 -6 l 671 17 l 663 15 q 658 74 660 46 q 657 126 657 101 q 676 363 657 249 q 715 569 696 476 q 721 596 718 583 q 726 621 724 608 q 730 644 729 632 q 733 667 731 656 q 699 666 717 665 q 663 665 681 667 q 524 658 597 663 q 381 641 451 653 q 243 608 310 629 q 124 553 176 588 l 100 575 q 97 574 99 574 q 94 572 96 574 l 17 851 q 192 909 101 886 q 378 944 282 932 q 543 957 482 957 q 1042 872 814 956 l 1040 865 m 1022 863 q 543 940 815 939 q 379 928 483 940 q 38 842 192 903 l 104 600 q 249 659 164 639 q 424 689 333 679 q 604 702 515 699 q 760 711 693 706 q 736 582 753 658 q 703 417 719 506 q 678 230 688 328 q 678 36 669 132 l 963 89 q 925 311 939 211 q 911 490 911 411 q 928 612 911 567 q 983 660 944 657 l 1022 863 z "},"8":{"ha":1122,"x_min":32,"x_max":1106,"o":"m 269 653 q 271 631 269 646 q 276 601 272 617 q 287 573 281 586 q 301 556 293 560 q 357 544 321 544 q 433 543 393 543 l 454 543 q 562 565 510 554 q 663 578 614 576 q 722 604 703 589 q 764 644 742 619 q 768 674 764 667 q 776 687 772 681 q 784 706 781 693 q 786 753 788 718 q 778 760 783 753 q 765 775 772 767 q 753 790 758 783 q 747 797 747 797 q 690 815 732 813 q 594 810 649 818 q 480 785 539 801 q 373 747 421 768 q 295 701 325 725 q 269 653 265 676 m 840 306 q 839 324 840 310 q 833 353 838 338 q 823 381 829 368 q 808 399 817 394 q 753 418 789 410 q 676 426 717 426 l 656 426 q 611 417 628 421 q 581 413 594 414 q 553 410 568 411 q 515 407 539 408 q 448 378 475 396 q 399 336 421 360 q 347 278 364 299 q 324 242 329 258 q 323 209 319 226 q 333 160 326 192 q 343 161 343 160 q 402 142 358 144 q 503 147 446 139 q 621 172 560 156 q 732 210 682 189 q 813 257 782 232 q 840 306 844 282 m 119 276 q 194 342 156 308 q 269 407 232 375 q 167 424 213 413 q 94 458 122 436 q 54 512 65 479 q 54 592 43 544 l 86 728 q 140 811 97 775 q 249 875 182 847 q 403 925 315 903 q 592 965 490 947 l 906 940 q 973 814 957 864 q 981 726 989 764 q 947 656 974 688 q 886 582 919 624 q 1026 546 985 582 q 1067 450 1067 510 q 1056 364 1067 413 l 1024 226 q 977 168 1015 196 q 881 115 939 140 q 749 68 822 90 q 599 27 676 46 q 442 -7 521 8 q 296 -33 364 -22 l 147 -25 l 88 160 l 119 276 m 69 158 l 135 -42 l 142 -42 l 164 -64 l 322 -72 q 471 -45 392 -61 q 630 -10 550 -29 q 784 33 710 10 q 917 81 858 56 q 1015 136 976 107 q 1063 197 1054 165 l 1094 335 q 1106 424 1106 383 q 1098 477 1106 453 q 1071 521 1090 501 l 1063 528 q 958 592 1035 575 q 1005 656 986 624 q 1024 728 1024 688 q 1004 810 1024 764 q 938 926 985 857 l 924 940 q 918 949 921 944 q 913 957 915 953 l 589 982 q 395 940 485 963 q 238 888 306 918 q 126 820 169 858 q 69 732 82 782 l 38 596 q 32 549 32 575 q 49 481 32 508 q 96 435 65 454 l 97 435 q 147 401 117 414 q 214 379 176 388 q 157 331 186 356 q 104 285 128 307 l 69 158 m 824 306 l 824 300 q 803 266 824 283 q 751 233 783 249 q 676 203 718 217 q 590 180 635 190 q 503 164 546 169 q 425 158 460 158 q 364 174 390 158 q 361 186 361 181 q 361 197 361 192 q 376 235 361 214 q 435 301 392 256 q 480 341 456 325 q 543 368 504 357 l 544 368 q 583 371 568 369 q 611 374 597 372 q 641 378 625 375 q 685 388 657 382 l 703 388 q 760 383 733 388 q 804 372 786 379 q 819 334 815 356 q 824 306 824 313 m 308 626 l 308 632 q 350 684 308 658 q 452 731 392 710 q 580 764 513 751 q 697 776 647 776 q 725 775 713 776 q 747 771 738 774 q 749 768 749 769 q 751 765 750 767 q 759 754 756 760 q 769 743 763 749 l 769 732 q 767 703 769 711 q 761 693 764 696 q 760 692 761 692 q 760 690 760 692 q 752 676 756 683 q 747 650 749 668 q 710 617 728 629 q 657 594 693 604 q 578 585 617 592 q 500 569 540 578 l 501 569 q 497 569 499 569 q 492 568 494 568 l 449 560 l 389 560 q 348 560 367 560 q 318 565 329 561 q 310 600 313 582 q 308 626 308 618 z "},"9":{"ha":1122,"x_min":28,"x_max":1107,"o":"m 326 429 q 329 426 329 426 l 326 429 m 332 519 q 332 503 332 514 q 333 478 332 492 q 337 450 335 464 q 342 425 339 436 q 390 405 360 414 q 457 396 421 396 l 524 396 q 561 400 539 396 q 625 415 583 404 q 715 453 665 426 q 792 515 764 481 q 792 530 792 522 q 793 544 793 538 l 793 721 q 743 728 769 728 q 663 719 707 728 q 574 697 619 711 q 484 664 528 683 q 407 622 440 644 q 353 576 374 600 q 332 526 332 551 l 332 519 m 385 168 q 223 185 294 168 q 108 243 151 201 q 49 308 69 268 q 28 406 28 347 q 29 437 28 421 q 33 469 31 453 l 65 658 q 113 742 74 703 q 213 817 153 782 q 349 882 274 851 q 505 938 425 913 q 665 985 585 964 q 813 1024 744 1007 l 975 1013 q 979 1001 978 1004 l 999 982 q 1031 867 1017 935 q 1055 719 1044 799 q 1073 551 1065 639 q 1086 376 1081 463 q 1096 210 1092 290 q 1103 65 1100 131 q 1105 6 1104 36 q 1107 -44 1106 -24 l 869 -103 l 846 -79 l 839 -82 l 839 -56 l 836 25 q 834 83 835 51 q 832 144 833 114 q 828 203 831 175 q 824 251 826 231 q 704 203 763 219 q 590 178 646 186 q 483 169 535 171 q 385 168 432 168 m 293 546 q 321 613 289 579 q 403 675 353 646 q 517 726 454 704 q 637 758 579 747 q 739 766 694 769 q 799 740 783 763 q 802 740 800 739 q 808 742 804 742 q 813 746 814 742 q 810 753 813 750 q 806 754 808 756 q 808 743 804 753 q 810 721 810 732 q 810 700 810 710 l 810 665 l 810 611 q 809 565 810 588 q 808 510 808 543 q 773 473 794 490 q 726 441 751 456 q 676 415 701 426 q 629 399 650 404 q 565 383 588 388 q 524 379 543 379 l 497 379 l 457 379 q 380 391 417 379 q 324 415 343 403 q 308 439 314 421 q 299 478 303 457 q 294 518 296 499 q 293 546 293 538 m 1068 -8 q 1062 126 1065 44 q 1053 301 1058 207 q 1040 497 1047 396 q 1022 692 1033 599 q 997 865 1011 786 q 964 996 983 944 l 815 1007 q 669 969 747 990 q 511 923 590 949 q 358 868 432 897 q 224 805 283 839 q 127 733 165 771 q 82 654 89 696 l 50 465 q 54 340 36 390 q 115 260 72 290 q 219 219 157 231 q 358 207 282 207 q 463 208 408 207 q 575 219 517 210 q 695 249 633 229 q 821 307 757 269 q 835 279 829 304 q 844 217 840 254 q 849 135 847 179 q 852 53 851 92 q 853 -16 853 14 q 856 -54 854 -46 l 856 -60 l 1068 -8 z "}," ":{"ha":617,"x_min":0,"x_max":0,"o":""},"!":{"ha":406,"x_min":21,"x_max":393,"o":"m 96 321 q 38 682 38 472 q 71 993 38 831 l 347 964 q 268 469 268 739 q 270 400 268 433 q 275 331 272 367 l 96 321 m 267 218 q 354 104 354 181 q 314 23 354 51 q 215 0 274 -6 q 115 36 160 4 q 71 121 71 68 q 103 201 71 169 q 193 233 135 233 q 228 230 210 233 q 267 218 247 226 m 94 304 l 97 304 l 111 290 l 122 282 l 315 293 q 309 374 311 338 q 307 443 307 410 q 390 949 307 711 l 367 972 q 369 979 367 974 l 57 1011 q 21 682 21 831 q 81 315 21 469 l 94 304 m 274 233 l 272 233 q 231 247 250 243 q 193 250 211 250 q 90 214 126 250 q 54 121 54 178 q 106 24 54 58 q 110 20 108 21 q 114 17 111 19 l 117 15 q 125 7 121 11 q 135 0 129 3 q 240 -39 185 -35 q 249 -40 244 -39 q 258 -40 254 -40 q 354 -9 315 -40 q 393 78 393 22 q 357 165 393 129 l 353 169 q 274 233 328 208 z "},"\"":{"ha":604,"x_min":38,"x_max":578,"o":"m 442 975 q 514 938 488 972 q 539 861 539 906 l 539 826 q 538 797 539 811 q 538 767 538 782 l 538 731 q 508 660 538 686 q 431 638 479 633 q 365 663 383 642 q 339 729 347 685 q 330 796 332 763 q 328 869 328 829 q 358 948 328 918 q 442 975 389 978 m 168 976 q 240 939 214 974 q 258 904 251 924 q 265 863 265 885 l 265 828 q 265 798 265 813 q 264 768 264 783 l 264 732 q 235 661 264 688 q 157 639 206 635 q 91 665 108 643 q 65 731 74 686 q 56 797 58 764 q 54 871 54 831 q 85 949 54 919 q 168 976 115 979 m 168 993 l 158 993 q 69 959 100 993 q 38 871 38 925 q 40 794 38 828 q 49 726 42 760 q 67 667 56 690 q 103 633 78 644 l 110 626 q 182 600 132 604 l 196 600 q 274 629 246 600 q 303 706 303 658 l 303 771 q 303 785 303 778 q 304 801 304 793 l 304 836 q 297 881 304 860 q 276 919 289 903 l 269 926 q 267 929 268 928 q 265 932 267 931 l 261 936 l 253 949 q 168 993 221 990 m 442 992 l 432 992 q 342 958 374 992 q 311 869 311 924 q 313 792 311 826 q 322 725 315 758 q 340 667 329 689 q 375 633 351 644 l 383 625 q 456 599 406 603 l 469 599 q 548 628 519 599 q 576 704 576 657 l 576 769 q 577 784 576 776 q 578 800 578 792 l 578 835 q 550 919 578 885 l 535 935 q 528 945 532 940 q 519 957 524 950 l 519 956 q 442 992 489 989 z "},"#":{"ha":1204,"x_min":31,"x_max":1197,"o":"m 533 432 q 534 397 533 414 q 535 364 535 379 l 535 351 q 583 349 558 349 q 631 349 610 349 l 701 349 l 701 431 q 701 449 701 440 q 700 469 700 458 l 700 568 q 608 572 656 572 l 532 572 q 531 554 531 564 q 531 533 531 544 q 531 485 531 510 q 533 432 532 460 m 599 979 q 596 971 596 974 l 619 949 q 597 868 607 913 q 581 774 588 824 l 642 774 l 686 774 l 686 839 q 684 912 686 875 q 678 993 682 949 l 886 1004 l 890 992 l 910 974 q 929 900 921 946 q 944 793 938 854 q 1058 810 1003 800 q 1163 838 1114 821 l 1163 826 l 1185 806 l 1197 583 q 1112 555 1156 565 q 1014 540 1068 544 q 967 536 989 536 q 969 499 968 517 q 971 464 969 481 q 972 440 971 451 q 972 417 972 428 q 1072 433 1024 424 q 1163 458 1119 443 l 1163 447 l 1185 426 l 1197 204 q 1112 176 1156 186 q 1014 161 1068 165 q 996 159 1004 160 q 979 158 988 158 q 968 39 976 99 q 943 -87 960 -21 l 639 -57 l 618 -36 l 607 -35 q 647 147 632 42 q 619 149 633 149 q 592 149 607 149 l 563 149 q 553 148 557 149 q 543 147 549 147 l 543 79 q 544 9 543 44 q 550 -69 546 -26 l 347 -82 l 324 -58 l 318 -60 q 299 16 308 -32 q 282 126 289 64 q 172 110 225 119 q 74 88 118 101 l 50 110 q 47 109 47 110 q 43 108 46 108 l 31 339 q 120 366 75 354 q 218 383 165 378 l 224 383 q 229 385 226 383 q 244 385 236 385 q 261 386 253 386 q 258 431 260 408 q 256 474 257 454 q 254 488 254 481 q 254 501 254 494 q 160 485 206 494 q 74 465 114 476 l 50 488 q 47 487 47 488 q 43 486 46 486 l 31 717 q 118 746 74 735 q 218 761 163 757 q 233 762 225 761 q 251 764 242 763 q 262 887 254 828 q 285 1011 269 946 l 599 979 m 494 610 q 506 611 497 611 l 518 611 l 540 611 l 582 611 q 656 609 618 611 q 718 604 694 607 q 717 592 717 599 q 717 578 717 585 l 717 544 q 717 469 717 508 q 718 393 718 431 l 718 333 q 711 332 717 332 l 706 332 l 693 332 l 672 332 l 631 332 q 556 333 596 332 q 494 339 517 335 q 495 398 496 361 q 493 474 494 435 q 492 550 492 514 q 494 610 492 588 m 299 993 q 277 869 285 926 q 267 749 269 811 q 244 747 256 747 q 219 744 232 746 q 125 731 167 740 q 47 706 83 721 l 58 508 q 153 531 99 521 q 268 547 208 540 q 273 463 271 507 q 279 369 275 418 q 250 369 264 369 q 219 367 236 368 q 125 351 167 361 q 47 328 83 342 l 58 131 q 165 154 103 144 q 294 171 228 164 q 312 40 303 96 q 331 -43 321 -15 l 510 -32 q 506 36 507 3 q 504 106 504 69 l 504 186 q 536 187 522 186 q 565 188 550 188 q 617 186 593 188 q 668 182 642 185 q 651 65 661 115 q 631 -19 642 14 l 907 -47 q 930 76 922 17 q 940 196 938 136 q 986 200 961 197 q 1081 214 1039 204 q 1158 239 1122 224 l 1147 436 q 1053 414 1107 424 q 938 397 1000 404 q 933 482 935 438 q 928 575 931 526 q 986 579 954 575 q 1081 593 1039 583 q 1158 618 1122 603 l 1147 815 q 1041 790 1103 800 q 911 774 979 781 q 895 905 904 849 q 875 988 886 961 l 696 978 q 701 908 699 942 q 703 839 703 875 l 703 758 q 670 758 685 758 q 642 757 656 757 q 588 758 613 757 q 538 763 563 760 q 554 880 544 829 q 575 964 564 931 l 299 993 z "},"$":{"ha":921,"x_min":29,"x_max":938,"o":"m 469 689 q 362 675 411 686 q 293 640 313 664 q 457 456 315 542 q 469 533 465 500 q 472 585 472 567 q 472 641 472 617 q 469 689 471 665 m 608 596 q 603 486 606 538 q 599 385 601 435 q 675 355 642 367 q 735 339 708 343 q 753 334 740 338 q 781 326 765 331 q 813 316 797 321 q 838 307 828 311 l 888 188 l 897 144 q 878 135 894 143 q 831 116 861 126 q 758 95 801 106 q 661 76 715 85 q 615 72 643 74 q 556 69 586 71 q 534 5 546 36 q 508 -54 522 -26 l 310 -7 q 356 68 335 18 q 190 86 264 72 q 50 129 117 100 l 83 286 q 135 272 100 281 q 217 256 171 264 q 313 241 263 247 q 411 235 364 235 q 418 263 414 249 q 425 293 422 278 q 234 442 303 368 q 129 594 165 515 l 126 594 l 121 625 q 107 678 115 650 q 103 735 99 707 q 131 788 107 763 q 215 833 156 814 q 281 844 247 840 q 349 853 314 849 q 409 856 382 856 q 456 858 436 857 q 451 901 453 878 q 446 951 449 924 l 468 964 l 621 944 l 618 847 q 712 832 667 840 q 801 808 757 824 l 781 651 q 753 660 768 654 q 723 674 739 667 q 691 686 707 681 q 658 692 675 692 l 611 692 l 608 596 m 404 281 l 400 260 q 399 256 399 257 q 397 251 399 254 q 299 260 350 253 q 203 276 249 267 q 123 294 158 285 q 71 308 88 303 l 29 119 q 44 113 36 114 l 61 96 q 184 53 122 68 q 318 32 246 39 q 278 -17 301 7 l 292 -19 l 313 -40 l 542 -96 q 569 -33 557 -65 q 592 31 582 -1 q 647 33 619 32 q 689 38 674 35 l 690 38 q 789 58 744 46 q 865 81 833 69 q 916 102 897 93 q 938 114 935 111 l 928 160 l 874 290 l 854 310 l 850 319 q 821 330 838 324 q 787 341 804 336 q 756 350 769 346 q 736 356 742 354 q 694 366 718 358 q 639 385 669 374 l 643 468 q 645 517 644 492 q 647 569 646 543 l 649 653 l 685 653 q 721 646 703 653 q 757 631 739 639 q 783 620 771 625 q 818 610 794 615 l 842 790 l 818 813 l 819 819 q 736 842 775 835 q 657 857 697 850 l 660 929 l 638 951 l 638 960 l 464 981 l 428 961 q 430 942 429 953 q 432 922 431 931 q 433 915 432 918 q 433 908 433 911 q 433 890 433 899 q 435 874 433 882 l 428 874 q 415 873 421 874 q 401 872 408 872 q 375 872 389 872 q 346 869 361 871 q 335 868 342 868 q 329 867 332 868 q 324 867 326 867 q 265 860 293 864 q 206 849 236 856 q 109 792 133 825 q 85 719 85 758 q 88 680 85 697 q 97 646 92 663 q 104 621 101 631 l 111 578 l 119 578 q 188 469 147 522 q 290 367 229 417 q 343 324 314 344 q 404 281 372 303 m 456 585 q 453 546 456 571 q 444 485 451 521 q 350 568 383 525 q 333 610 338 589 q 381 634 349 625 q 454 647 414 643 q 455 617 454 632 q 456 585 456 603 m 238 419 l 251 406 q 238 419 243 411 m 383 524 q 381 526 381 524 l 383 524 z "},"%":{"ha":1206,"x_min":14,"x_max":1203,"o":"m 957 142 q 997 160 985 149 q 1010 196 1010 172 q 1008 204 1010 200 q 1008 207 1008 206 q 1007 211 1007 208 l 1007 213 q 1001 232 1004 224 q 993 247 997 240 q 957 254 975 254 q 874 231 917 254 q 868 192 869 210 q 867 158 867 174 q 868 139 867 144 q 906 135 881 135 q 929 136 917 135 q 957 142 942 138 m 293 621 q 334 640 321 628 q 347 676 347 651 q 346 685 347 681 q 345 688 346 686 q 344 692 344 689 l 344 693 q 338 713 342 704 q 331 728 335 721 q 292 735 310 735 q 207 710 249 735 l 207 708 q 202 672 204 689 q 200 639 200 654 q 203 615 200 621 q 242 611 215 611 q 265 612 253 611 q 290 619 276 613 l 293 621 m 811 422 q 860 430 832 429 q 917 431 889 431 l 968 431 q 1153 349 1104 431 l 1154 349 q 1203 207 1203 300 l 1203 200 q 1157 33 1203 88 q 1058 -29 1124 -8 q 932 -46 1006 -46 q 818 -28 863 -46 q 786 -12 801 -21 q 760 8 771 -4 l 758 10 q 699 79 719 32 q 676 193 676 125 l 676 222 q 676 240 676 232 q 679 261 676 250 l 504 -144 l 222 -94 l 201 -74 l 188 -71 q 295 108 247 25 q 381 263 343 192 q 447 394 418 333 q 497 506 475 454 l 494 503 l 493 503 q 452 466 476 482 q 396 440 428 450 q 269 424 343 424 q 156 442 200 424 q 124 457 139 449 q 97 478 108 465 l 96 479 q 36 549 57 501 q 14 663 14 592 l 14 692 q 15 719 14 706 q 21 747 17 732 q 48 807 33 783 q 77 846 63 831 q 107 869 92 861 q 138 885 122 878 q 142 886 140 885 q 146 888 144 886 l 149 890 q 198 898 169 897 q 254 899 226 899 l 306 899 q 492 815 443 899 q 540 676 540 767 l 540 668 q 536 599 540 629 q 558 660 549 631 q 578 714 568 689 q 605 788 592 754 q 632 851 618 822 q 663 908 646 881 q 704 960 681 935 l 969 1010 l 965 1000 l 989 978 l 715 346 q 753 388 735 375 q 792 411 772 401 l 808 419 l 811 422 m 961 125 q 932 119 946 121 q 906 118 918 118 q 846 133 861 118 q 833 152 838 142 q 828 185 828 163 q 836 265 828 219 q 931 293 885 293 q 1024 218 1008 293 q 1026 207 1025 211 q 1026 196 1026 203 q 1010 149 1026 165 q 961 125 994 133 m 817 406 q 788 390 803 397 q 757 370 772 383 q 727 335 742 357 q 700 274 713 313 q 694 246 696 258 q 693 222 693 233 l 693 193 q 714 86 693 129 q 796 10 740 31 q 906 -7 838 -7 q 1028 10 975 -7 q 1121 68 1089 28 q 1164 226 1164 119 l 1164 233 q 968 414 1164 414 l 929 414 q 870 413 900 414 q 817 406 840 413 m 297 604 q 269 596 282 597 q 242 594 256 594 q 181 611 197 594 q 166 633 171 622 q 161 665 161 643 q 164 703 161 683 q 169 744 167 722 q 265 774 215 774 q 361 699 346 774 q 363 688 363 692 q 364 676 364 683 q 348 628 364 643 q 297 604 332 613 m 154 874 q 125 859 140 867 q 94 838 110 851 q 65 803 79 825 q 38 743 50 781 q 32 715 33 728 q 31 692 31 703 l 31 663 q 51 556 31 597 q 133 479 78 500 q 243 463 175 463 q 365 479 313 463 q 458 538 429 497 q 501 694 501 585 l 501 703 q 306 882 501 882 l 267 882 q 208 881 238 882 q 154 874 178 881 m 942 988 l 713 944 q 656 864 678 907 q 614 765 635 821 q 567 635 593 708 q 497 463 540 561 q 387 235 454 364 q 217 -58 319 107 l 471 -104 l 942 988 z "},"&":{"ha":1346,"x_min":32,"x_max":1344,"o":"m 269 653 q 271 631 269 646 q 276 601 272 617 q 287 573 281 586 q 301 556 293 560 q 357 544 321 544 q 433 543 393 543 l 454 543 q 562 565 510 554 q 663 578 614 576 q 722 604 703 589 q 764 644 742 619 q 768 674 764 667 q 776 687 772 681 q 784 706 781 693 q 786 753 788 718 q 778 760 783 753 q 765 775 772 767 q 753 790 758 783 q 747 797 747 797 q 690 815 732 813 q 594 810 649 818 q 480 785 539 801 q 373 747 421 768 q 295 701 325 725 q 269 653 265 676 m 840 306 q 839 324 840 310 q 833 353 838 338 q 823 381 829 368 q 808 399 817 394 q 753 418 789 410 q 676 426 717 426 l 656 426 q 611 417 628 421 q 581 413 594 414 q 553 410 568 411 q 515 407 539 408 q 448 378 475 396 q 399 336 421 360 q 347 278 364 299 q 324 242 329 258 q 323 209 319 226 q 333 160 326 192 q 343 161 343 160 q 402 142 358 144 q 503 147 446 139 q 621 172 560 156 q 732 210 682 189 q 813 257 782 232 q 840 306 844 282 m 1290 481 q 1226 488 1258 486 q 1156 490 1193 490 l 1126 490 q 1067 490 1099 490 q 1018 486 1036 489 q 1028 458 1021 472 q 1044 428 1036 443 q 1056 397 1051 413 q 1056 364 1060 381 l 1024 226 q 977 168 1015 196 q 881 115 939 140 q 749 68 822 90 q 599 27 676 46 q 442 -7 521 8 q 296 -33 364 -22 l 147 -25 l 88 160 l 119 276 q 194 342 156 308 q 269 407 232 375 q 167 424 213 413 q 94 458 122 436 q 54 512 65 479 q 54 592 43 544 l 86 728 q 140 811 97 775 q 249 875 182 847 q 403 925 315 903 q 592 965 490 947 l 906 940 q 960 847 942 888 q 983 776 979 807 q 980 719 988 744 q 957 669 972 693 q 1032 674 1000 674 q 1304 621 1188 672 l 1290 481 m 1024 728 q 1004 810 1024 764 q 938 926 985 857 l 924 940 q 918 949 921 944 q 913 957 915 953 l 589 982 q 395 940 485 963 q 238 888 306 918 q 126 820 169 858 q 69 732 82 782 l 38 596 q 32 549 32 575 q 49 481 32 508 q 96 435 65 454 l 97 435 q 147 401 117 414 q 214 379 176 388 q 157 331 186 356 q 104 285 128 307 l 69 158 l 135 -42 l 142 -42 l 164 -64 l 322 -72 q 471 -45 392 -61 q 630 -10 550 -29 q 784 33 710 10 q 917 81 858 56 q 1015 136 976 107 q 1063 197 1054 165 l 1094 335 q 1096 353 1096 340 q 1088 389 1096 372 q 1074 422 1081 406 q 1066 435 1069 429 q 1060 449 1063 442 q 1104 451 1079 451 q 1153 451 1129 451 l 1182 451 q 1251 449 1218 451 q 1315 442 1283 447 l 1329 453 l 1344 603 l 1321 625 l 1322 632 q 1187 674 1258 660 q 1032 690 1115 689 l 1018 690 q 1022 708 1021 699 q 1024 728 1024 717 m 824 306 l 824 300 q 803 266 824 283 q 751 233 783 249 q 676 203 718 217 q 590 180 635 190 q 503 164 546 169 q 425 158 460 158 q 364 174 390 158 q 361 186 361 181 q 361 197 361 192 q 376 235 361 214 q 435 301 392 256 q 480 341 456 325 q 543 368 504 357 l 544 368 q 583 371 568 369 q 611 374 597 372 q 641 378 625 375 q 685 388 657 382 l 703 388 q 760 383 733 388 q 804 372 786 379 q 819 334 815 356 q 824 306 824 313 m 308 626 l 308 632 q 350 684 308 658 q 452 731 392 710 q 580 764 513 751 q 697 776 647 776 q 725 775 713 776 q 747 771 738 774 q 749 768 749 769 q 751 765 750 767 q 759 754 756 760 q 769 743 763 749 l 769 732 q 767 703 769 711 q 761 693 764 696 q 760 692 761 692 q 760 690 760 692 q 752 676 756 683 q 747 650 749 668 q 710 617 728 629 q 657 594 693 604 q 578 585 617 592 q 500 569 540 578 q 495 569 497 569 q 492 568 493 568 l 449 560 l 389 560 q 348 560 367 560 q 318 565 329 561 q 310 600 313 582 q 308 626 308 618 z "},"'":{"ha":308,"x_min":38,"x_max":304,"o":"m 168 976 q 240 939 214 974 q 258 904 251 924 q 265 863 265 885 l 265 828 q 265 798 265 813 q 264 768 264 783 l 264 732 q 235 661 264 688 q 157 639 206 635 q 91 665 108 643 q 65 731 74 686 q 56 797 58 764 q 54 871 54 831 q 85 949 54 919 q 168 976 115 979 m 168 993 l 158 993 q 69 959 100 993 q 38 871 38 925 q 40 794 38 828 q 49 726 42 760 q 67 667 56 690 q 103 633 78 644 l 110 626 q 182 600 132 604 l 196 600 q 274 629 246 600 q 303 706 303 658 l 303 771 q 303 785 303 778 q 304 801 304 793 l 304 836 q 297 881 304 860 q 276 919 289 903 l 272 922 q 269 927 269 925 q 265 932 268 929 l 261 936 l 253 949 q 168 993 221 990 z "},"(":{"ha":617,"x_min":35,"x_max":638,"o":"m 615 1097 l 638 1075 l 635 799 l 601 799 q 396 754 482 799 q 353 713 368 739 q 331 655 338 686 q 322 590 324 624 q 321 525 321 556 q 320 483 321 506 q 318 438 319 461 q 316 386 317 413 q 315 333 315 360 q 323 225 315 278 q 356 131 331 172 q 417 86 379 103 q 510 67 454 69 q 551 65 511 65 q 551 61 551 63 q 550 58 550 60 l 574 35 q 566 -33 568 -3 q 564 -86 564 -62 q 564 -126 564 -108 q 565 -160 564 -144 q 566 -180 565 -171 q 567 -196 567 -189 q 558 -240 567 -228 q 522 -251 550 -251 q 489 -248 507 -251 q 443 -239 471 -244 q 200 -129 299 -212 q 115 -47 151 -93 l 115 -49 q 83 17 96 -25 q 60 111 69 60 q 46 219 51 163 q 38 331 40 276 q 35 435 36 386 q 35 519 35 485 q 38 613 35 558 q 59 729 42 667 q 113 859 76 792 q 217 992 150 926 q 388 1077 296 1049 q 590 1106 481 1106 l 615 1106 l 615 1097 m 599 1089 q 226 979 382 1090 q 127 851 163 917 q 75 725 92 786 q 55 610 58 664 q 51 519 51 557 q 53 387 51 467 q 61 225 54 307 q 82 73 68 143 q 121 -29 96 3 q 419 -200 224 -162 q 494 -212 471 -211 q 524 -199 517 -214 q 528 -151 531 -185 q 525 -60 525 -118 q 533 49 525 -17 q 504 50 506 49 q 388 81 432 54 q 319 148 343 107 q 285 240 294 189 q 276 346 276 292 q 278 453 275 400 q 282 551 282 507 q 283 619 282 583 q 292 687 285 654 q 317 747 300 719 q 364 792 333 775 q 596 838 460 842 l 599 1089 z "},")":{"ha":617,"x_min":35,"x_max":638,"o":"m 51 1089 q 424 979 268 1090 q 523 853 488 918 q 575 726 558 788 q 595 610 592 664 q 599 519 599 557 q 597 387 599 467 q 588 225 594 307 q 567 73 581 143 q 529 -29 553 3 q 231 -200 426 -162 q 156 -212 179 -211 q 126 -199 133 -214 q 122 -151 119 -185 q 125 -60 125 -118 q 117 49 125 -17 q 146 50 144 49 q 263 81 218 54 q 331 148 307 107 q 365 240 356 189 q 374 346 374 292 q 372 453 375 400 q 368 551 368 507 q 367 619 368 583 q 358 687 365 654 q 333 747 350 719 q 286 792 317 775 q 54 838 190 842 l 51 1089 m 38 821 l 46 821 l 68 799 l 101 799 q 307 754 221 799 l 307 753 q 333 710 324 735 q 346 659 342 686 q 351 604 350 632 q 351 551 351 576 q 352 510 351 532 q 354 464 353 488 q 356 413 356 439 q 357 360 357 386 q 349 256 357 307 q 319 165 342 206 q 253 97 296 124 q 140 67 211 71 q 99 65 139 65 q 106 -3 104 28 q 108 -60 108 -35 q 108 -100 108 -82 q 107 -133 108 -118 q 106 -144 107 -139 q 106 -154 106 -149 l 106 -169 q 111 -209 106 -196 q 132 -226 117 -222 l 147 -242 q 181 -251 157 -251 q 214 -248 196 -251 q 260 -239 232 -244 q 437 -176 361 -219 q 565 -62 513 -132 q 594 -1 582 -40 q 613 89 606 39 q 626 195 621 139 q 633 306 631 251 q 637 410 636 361 q 638 493 638 458 q 635 576 638 528 q 619 679 632 624 q 580 794 607 735 q 506 911 553 854 q 439 988 478 949 q 262 1076 356 1046 q 60 1106 168 1106 l 35 1106 l 38 821 z "},"*":{"ha":517,"x_min":40,"x_max":517,"o":"m 146 1101 q 185 1060 161 1083 q 231 1018 210 1036 l 242 1008 q 306 1047 274 1031 q 371 1074 339 1063 l 443 1003 q 403 976 424 990 q 363 944 382 961 q 351 935 356 940 q 340 924 347 931 q 402 878 371 900 q 468 842 433 857 l 381 758 q 317 792 353 769 q 251 836 282 814 q 211 788 229 813 q 178 740 193 764 l 71 831 q 101 877 82 853 q 144 926 119 901 q 61 1043 86 988 l 146 1101 m 139 1115 l 40 1049 q 74 988 53 1018 q 122 926 94 958 q 80 875 99 900 q 50 828 61 850 l 182 715 l 207 694 q 242 746 225 721 q 279 793 260 771 q 343 751 308 772 q 411 718 378 731 l 517 819 l 493 843 l 497 847 q 440 876 465 861 q 392 906 415 890 q 393 906 393 906 q 394 907 393 907 q 489 974 433 940 l 465 996 q 467 997 467 997 q 469 999 468 997 l 374 1093 q 311 1067 343 1082 q 243 1028 279 1051 l 242 1031 q 196 1072 219 1049 q 157 1114 172 1096 l 139 1115 m 210 1053 q 211 1051 210 1051 q 197 1064 206 1056 l 190 1071 l 210 1053 z "},"+":{"ha":631,"x_min":24,"x_max":615,"o":"m 401 690 q 397 653 399 675 q 392 609 394 632 q 389 563 390 586 q 388 522 388 540 l 388 504 q 485 486 439 497 q 575 456 532 475 l 561 317 q 428 325 499 325 l 406 325 q 385 324 389 325 q 392 219 386 271 q 413 118 397 167 l 243 107 q 231 149 236 125 q 221 201 225 174 q 214 256 217 228 q 208 308 211 283 q 40 271 122 296 l 42 465 q 119 489 76 479 q 211 504 161 499 q 231 613 218 563 q 261 704 243 664 l 401 690 m 404 707 l 250 722 q 217 629 231 681 q 196 519 204 578 q 104 502 147 513 q 25 476 61 492 l 24 247 q 27 248 26 247 q 31 249 28 249 l 54 226 q 129 247 94 238 q 196 263 164 256 q 208 176 200 221 q 233 90 215 131 l 239 90 l 263 68 l 457 81 q 432 188 439 138 q 424 286 425 238 l 454 286 q 526 284 490 286 q 599 276 563 282 l 615 436 l 592 458 l 593 465 q 512 496 553 485 q 426 514 471 507 q 431 592 428 550 q 440 661 435 633 l 429 676 l 418 688 l 404 707 z "},",":{"ha":308,"x_min":-8,"x_max":297,"o":"m 161 222 q 239 188 210 222 q 253 168 247 176 l 256 165 q 261 158 258 161 q 267 151 264 156 l 269 150 q 297 67 297 115 q 285 27 297 51 q 252 -25 272 3 q 207 -81 232 -53 q 156 -131 182 -108 q 105 -167 129 -153 q 63 -181 81 -181 l 58 -181 q 35 -171 44 -181 l 19 -156 q -2 -136 4 -151 q -8 -101 -8 -121 q -3 -51 -8 -78 q 10 3 3 -25 l 14 19 q 15 25 15 22 q 17 32 15 29 q 26 73 22 54 q 31 101 31 92 q 62 189 31 156 q 151 222 93 222 l 161 222 m 161 206 q 78 179 108 208 q 47 101 47 150 q 36 39 47 79 q 17 -41 25 -1 q 9 -110 8 -81 q 33 -142 10 -140 q 97 -115 58 -143 q 171 -49 135 -87 q 233 30 207 -10 q 258 93 258 69 q 233 168 258 136 q 161 206 208 206 z "},"-":{"ha":631,"x_min":25,"x_max":615,"o":"m 561 317 q 428 325 499 325 q 53 268 244 325 l 42 465 q 119 489 78 479 q 214 504 161 499 q 304 508 268 508 q 575 456 458 507 l 561 317 m 68 225 q 267 271 171 256 q 454 286 363 286 q 586 278 524 286 l 600 289 l 615 438 l 592 460 l 593 467 q 458 509 529 494 q 304 525 386 524 q 213 521 267 525 q 115 503 160 515 q 25 476 69 492 l 38 246 q 41 247 40 246 q 44 247 42 247 l 68 225 z "},".":{"ha":308,"x_min":31,"x_max":297,"o":"m 161 222 q 239 188 210 222 q 253 168 247 176 l 256 165 q 261 158 258 161 q 267 151 264 156 l 269 150 q 297 67 297 115 q 269 -11 297 18 q 192 -40 242 -40 l 178 -40 q 92 -3 124 -35 l 88 0 q 31 101 31 33 q 62 189 31 156 q 151 222 93 222 l 161 222 m 161 206 q 78 179 108 208 q 47 101 47 150 q 76 31 47 57 q 153 -1 104 4 q 230 21 201 -6 q 258 93 258 47 q 233 168 258 136 q 161 206 208 206 z "},"/":{"ha":729,"x_min":-50,"x_max":751,"o":"m 728 1000 l 751 978 l 267 -144 l -15 -94 l -36 -74 l -50 -71 q 113 206 47 85 q 223 422 179 328 q 294 588 267 517 q 340 714 321 658 q 367 788 354 754 q 394 851 381 822 q 426 908 408 881 q 467 960 443 935 l 732 1010 l 728 1000 m 704 988 l 475 944 q 419 864 440 907 q 376 765 397 821 q 329 635 356 708 q 260 463 303 561 q 149 235 217 364 q -21 -58 82 107 l 233 -104 l 704 988 z "},":":{"ha":308,"x_min":31,"x_max":299,"o":"m 161 222 q 239 188 210 222 q 253 168 247 176 l 256 165 q 261 158 258 161 q 267 151 264 156 l 269 150 q 297 67 297 115 q 269 -11 297 18 q 192 -40 242 -40 l 178 -40 q 92 -3 124 -35 l 88 0 q 31 101 31 33 q 62 189 31 156 q 151 222 93 222 l 161 222 m 163 556 q 240 519 211 554 l 240 521 q 249 509 244 514 q 256 499 253 504 l 258 496 q 268 486 263 490 l 271 483 q 299 399 299 449 q 270 321 299 350 q 190 292 242 292 l 179 292 q 93 329 125 297 l 89 332 q 32 433 32 365 q 63 522 32 488 q 153 556 94 556 l 163 556 m 163 539 q 79 512 110 542 q 49 433 49 482 q 77 363 49 389 q 154 331 106 336 q 231 354 203 328 q 260 425 260 381 q 235 501 260 469 q 163 539 210 538 m 161 206 q 78 179 108 208 q 47 101 47 150 q 76 31 47 57 q 153 -1 104 4 q 230 21 201 -6 q 258 93 258 47 q 233 168 258 136 q 161 206 208 206 z "},";":{"ha":308,"x_min":-3,"x_max":301,"o":"m 163 556 q 240 519 211 554 l 240 521 q 249 509 244 514 q 256 499 253 504 l 258 496 q 268 486 263 490 l 271 483 q 299 399 299 449 q 270 321 299 350 q 190 292 242 292 l 179 292 q 93 329 125 297 l 89 332 q 32 433 32 365 q 63 522 32 488 q 153 556 94 556 l 163 556 m 164 197 q 251 157 215 197 q 263 139 257 149 l 264 138 l 271 132 l 275 128 q 301 49 301 94 q 275 -8 301 26 q 212 -76 249 -43 q 135 -132 175 -108 q 68 -156 94 -156 l 64 -156 q 40 -144 50 -154 l 26 -131 q 3 -112 10 -126 q -3 -81 -3 -99 q 3 -34 -3 -58 q 15 14 8 -10 q 16 16 15 15 q 17 18 17 17 q 28 55 24 38 q 32 82 32 72 q 64 165 32 133 q 154 197 96 197 l 164 197 m 164 181 q 80 156 111 183 q 49 82 49 128 q 38 28 49 61 q 20 -35 28 -4 q 14 -90 13 -67 q 39 -117 15 -114 q 102 -97 64 -118 q 176 -44 140 -75 q 237 21 211 -12 q 263 75 263 54 q 239 146 263 115 q 164 181 208 181 m 163 539 q 79 512 110 542 q 49 433 49 482 q 77 363 49 389 q 154 331 106 336 q 231 354 203 328 q 260 425 260 381 q 235 501 260 469 q 163 539 210 538 z "},"<":{"ha":643,"x_min":15,"x_max":625,"o":"m 146 231 q 153 222 149 226 q 160 215 157 218 l 146 231 m 294 69 q 306 58 299 63 l 294 69 m 601 218 l 625 196 l 533 -92 q 449 -60 490 -83 q 367 0 407 -36 q 267 91 315 39 q 174 200 219 143 q 127 243 151 215 q 81 302 103 271 q 41 365 58 333 q 15 421 24 396 l 76 638 q 122 746 97 700 q 172 836 146 792 l 172 835 q 174 838 174 838 q 176 842 175 839 q 185 857 181 849 q 194 872 190 865 l 193 871 q 222 922 207 894 q 251 979 236 949 l 522 999 l 517 990 l 540 968 l 393 728 q 376 684 386 706 q 354 642 365 663 q 330 586 340 613 q 319 529 319 560 q 334 460 319 490 q 364 408 349 431 q 366 403 365 406 q 369 399 367 401 l 371 397 q 404 347 385 374 q 447 294 424 321 l 436 306 q 384 364 407 333 q 346 421 361 394 l 344 422 q 341 428 343 425 q 338 435 339 432 q 308 487 322 457 q 293 556 293 517 q 303 613 293 586 q 328 668 314 639 q 348 708 338 688 q 365 750 358 729 l 365 751 l 367 754 l 496 964 l 281 949 q 244 879 261 910 q 208 817 226 849 q 154 722 181 771 q 107 610 128 674 l 46 394 q 65 353 53 376 q 92 306 76 331 q 124 258 107 282 q 160 215 142 235 l 146 231 q 107 274 126 250 q 71 325 88 299 q 40 376 54 351 q 19 421 26 401 l 81 636 q 128 749 101 700 q 182 843 154 797 q 217 906 200 875 q 254 975 235 936 l 514 994 l 517 990 l 369 750 q 354 713 364 731 q 336 676 344 694 q 334 672 335 674 q 332 667 333 669 q 331 663 331 664 q 329 660 331 663 q 307 608 317 632 q 297 556 297 583 q 311 488 297 518 q 340 436 325 458 l 340 440 q 386 372 358 410 q 449 303 414 335 q 523 249 483 271 q 604 226 563 226 l 601 218 m 581 210 q 506 231 543 210 q 437 283 469 251 q 378 350 404 314 q 333 417 351 386 q 299 476 318 442 q 281 556 281 511 q 288 605 281 582 q 307 651 296 628 q 331 701 318 675 q 354 758 343 726 l 490 981 l 263 963 q 219 880 242 918 q 174 803 196 842 q 131 724 151 765 q 93 633 110 683 l 32 419 q 58 366 40 396 q 97 306 75 336 q 142 250 118 276 q 188 210 167 224 q 264 120 225 164 q 342 41 303 76 q 420 -19 381 6 q 497 -50 460 -43 l 581 210 z "},"=":{"ha":631,"x_min":22,"x_max":628,"o":"m 574 488 q 509 492 542 492 q 440 493 476 493 q 254 483 347 493 q 65 453 161 474 l 54 593 q 226 621 124 615 q 317 625 281 625 q 588 588 471 622 l 574 488 m 560 228 q 495 232 528 231 q 426 233 463 233 q 51 193 249 233 l 40 333 q 213 361 110 356 q 303 365 267 365 q 574 328 457 363 l 560 228 m 67 151 q 267 183 171 172 q 453 194 363 194 q 521 193 489 194 q 585 189 553 192 l 599 200 l 614 311 l 590 333 l 592 340 q 303 382 463 381 q 211 378 265 382 q 109 367 154 375 q 22 346 64 360 l 36 172 q 44 174 42 172 l 67 151 m 81 411 q 467 454 283 454 q 535 453 503 454 q 599 449 567 453 l 613 460 l 628 571 l 604 593 l 606 600 q 317 642 476 640 q 225 638 279 642 q 123 627 168 635 q 36 606 78 619 l 50 432 q 58 433 56 432 l 81 411 z "},">":{"ha":643,"x_min":7,"x_max":621,"o":"m 194 606 q 192 608 193 607 q 190 611 192 610 l 194 606 m 104 1001 q 191 967 149 992 q 274 906 233 942 q 356 825 315 869 q 435 733 396 781 q 474 699 453 721 q 514 653 494 678 q 578 565 547 613 q 621 482 608 517 l 557 265 q 513 161 538 207 q 461 71 488 115 q 422 3 442 38 q 385 -71 403 -31 l 124 -93 l 101 -71 l 89 -72 l 243 181 q 279 261 258 221 q 283 269 282 265 q 286 276 283 272 q 306 325 297 301 q 315 374 315 349 q 297 447 315 410 q 258 513 278 483 l 260 511 q 212 578 240 543 q 147 643 183 614 q 94 670 122 660 q 39 681 67 681 l 17 703 l 7 703 l 104 1001 m 31 719 q 105 699 68 719 q 174 647 142 678 q 234 580 207 615 q 279 514 261 544 q 313 453 294 489 q 332 374 332 418 q 324 326 332 349 q 306 278 317 303 q 282 228 294 254 q 258 171 269 203 l 122 -51 l 350 -32 q 392 51 369 13 q 438 127 415 89 q 481 206 460 165 q 518 296 501 246 l 581 510 q 555 563 572 532 q 516 624 538 593 q 470 680 494 654 q 425 719 446 706 q 349 809 388 765 q 271 888 310 853 q 193 948 232 924 q 115 981 154 972 l 31 719 z "},"?":{"ha":1071,"x_min":25,"x_max":1072,"o":"m 281 224 q 367 179 335 222 l 375 167 l 379 163 q 381 160 381 161 q 383 157 382 158 l 390 150 q 410 112 403 133 q 418 67 418 90 q 390 -10 418 19 q 311 -39 361 -39 l 297 -39 q 213 -4 243 -35 l 207 0 q 151 103 151 32 q 182 190 151 157 q 271 224 213 224 l 281 224 m 78 710 q 72 708 75 708 q 71 708 71 708 l 25 942 q 256 1009 133 992 q 525 1026 378 1026 q 568 1026 538 1026 q 634 1024 599 1025 q 703 1020 669 1022 q 757 1015 738 1018 q 856 997 811 1008 q 933 974 900 986 q 990 950 967 961 q 1024 933 1013 939 q 1031 930 1028 931 q 1051 928 1035 929 l 1050 919 l 1072 897 l 1058 832 l 996 667 q 935 642 972 653 q 879 626 899 632 q 871 624 874 624 q 783 596 835 617 q 671 543 732 575 q 624 522 647 532 q 581 501 601 511 q 497 463 535 481 q 433 424 460 444 q 389 379 406 404 q 365 319 372 354 q 260 288 311 288 q 193 301 222 288 q 150 328 164 314 l 143 333 q 110 371 110 353 q 111 379 110 376 l 118 428 l 126 428 q 184 523 151 482 q 259 599 217 564 q 356 669 301 635 q 482 747 411 704 l 482 746 q 491 751 486 749 q 500 757 496 754 q 385 749 446 757 q 268 728 324 740 q 167 706 213 717 q 100 689 122 694 l 78 710 m 281 207 q 198 181 228 210 q 168 103 168 151 q 196 31 168 58 q 272 0 224 4 q 350 22 321 -4 q 379 93 379 49 q 372 135 379 115 q 354 169 365 154 q 281 207 328 204 m 639 581 q 753 634 701 613 q 842 663 806 656 q 863 668 847 664 q 896 678 878 672 q 932 690 914 683 q 961 703 950 696 l 1018 856 l 1031 911 q 1007 923 1026 913 q 952 947 988 933 q 867 976 917 961 q 756 999 818 990 q 703 1003 736 1001 q 634 1007 669 1006 q 568 1009 599 1008 q 525 1010 538 1010 q 262 994 379 1010 q 44 932 144 978 l 83 731 q 171 753 110 738 q 304 780 232 768 q 451 796 376 792 q 579 785 525 800 q 412 683 483 726 q 288 600 340 640 q 198 515 235 560 q 136 411 161 471 l 133 411 l 128 374 q 136 356 121 369 q 181 335 151 343 q 249 328 210 326 q 328 354 288 329 q 360 424 336 396 q 424 476 385 453 q 517 524 463 500 q 639 581 571 547 z "},"@":{"ha":1101,"x_min":35,"x_max":1078,"o":"m 478 467 q 484 440 478 458 q 499 415 490 421 q 521 403 510 408 q 551 397 532 397 l 569 397 q 600 401 585 397 q 643 411 615 404 q 676 424 653 414 q 725 447 700 435 q 772 473 750 460 q 800 497 793 486 q 852 585 842 556 q 856 626 863 614 q 830 639 849 638 q 793 643 811 640 q 735 637 768 643 q 681 626 701 631 q 657 619 660 621 q 637 607 656 619 q 595 580 618 594 q 554 553 572 565 q 536 540 536 540 q 520 528 529 538 q 503 506 511 518 q 488 483 494 494 q 478 467 481 472 m 1039 600 q 992 462 1014 517 q 931 379 971 407 q 876 323 911 344 q 799 289 842 301 q 712 272 757 276 q 626 266 667 267 q 552 267 585 265 q 504 268 519 268 q 384 303 428 268 q 340 417 340 338 l 340 428 q 357 521 340 474 q 413 614 374 568 q 515 701 451 660 q 674 775 579 742 q 647 777 671 775 q 596 782 624 779 q 544 787 568 785 q 518 789 521 789 q 464 778 485 783 q 427 768 443 774 q 395 755 411 763 q 356 735 379 747 q 283 676 311 711 q 241 597 256 640 q 224 504 226 553 q 229 407 222 456 q 263 317 239 360 q 324 240 286 274 q 415 183 363 206 q 535 156 467 161 q 565 154 536 154 q 742 178 656 154 q 894 263 828 201 l 942 17 q 571 -51 763 -51 q 447 -43 486 -51 q 149 129 250 -6 q 51 465 51 256 q 54 543 51 501 q 73 632 57 585 q 123 733 89 679 q 221 847 157 786 q 593 957 376 958 q 666 953 628 957 q 744 943 704 950 q 823 926 790 935 q 883 906 856 917 q 939 881 911 894 q 1003 849 967 867 l 1038 786 l 1039 600 m 471 -82 q 597 -90 510 -90 q 788 -72 692 -90 q 982 -17 883 -54 l 929 261 l 908 282 l 907 286 q 967 344 946 310 q 1031 431 1010 376 q 1078 569 1053 486 l 1076 763 l 1039 832 l 1022 847 l 1017 860 q 1003 868 1008 867 q 993 872 999 869 l 982 878 q 928 905 953 893 q 877 926 903 917 q 821 944 851 936 q 749 960 790 953 q 669 970 708 967 q 593 974 629 974 l 585 974 q 383 945 475 974 q 211 860 290 917 q 109 740 144 796 q 57 636 74 685 q 38 545 40 588 q 35 465 35 503 q 136 119 35 250 q 218 36 171 72 q 331 -37 267 -8 q 471 -82 394 -67 m 268 383 l 267 383 q 263 453 263 418 q 291 595 263 529 q 388 697 319 661 q 426 717 411 710 q 458 730 442 725 q 494 740 474 735 q 547 750 514 744 q 567 746 551 749 q 452 674 499 713 q 377 594 406 635 q 336 510 349 553 q 324 428 324 468 l 324 417 q 393 275 324 314 l 394 274 q 531 229 439 229 q 543 228 536 229 q 560 228 550 228 q 590 227 574 228 q 626 226 607 226 q 744 233 679 226 q 865 263 810 239 q 718 191 794 211 q 565 171 642 171 q 540 172 542 171 q 403 208 461 179 q 310 279 346 236 q 268 383 278 326 m 517 438 q 526 453 519 443 q 541 474 533 464 q 556 493 549 485 q 571 504 564 501 l 567 526 q 585 535 567 526 q 625 553 603 543 q 666 572 647 564 q 686 581 685 581 q 735 593 717 589 q 765 599 753 597 q 789 603 778 601 q 817 604 800 604 q 825 603 819 603 q 836 603 831 603 q 840 601 838 601 q 824 563 836 586 q 788 507 811 540 q 761 486 782 499 q 716 462 740 474 q 669 440 692 450 q 636 428 646 431 l 636 426 q 594 417 608 419 q 569 414 581 414 l 551 414 q 533 417 540 414 q 518 424 525 419 q 517 438 517 429 m 544 554 l 544 557 q 555 561 543 557 q 582 572 567 565 q 558 561 568 565 q 544 554 547 557 z "},"A":{"ha":1122,"x_min":33,"x_max":1110,"o":"m 281 353 q 285 330 281 344 q 295 301 289 315 q 310 273 301 286 q 326 254 318 260 q 369 231 346 242 q 432 219 392 219 l 472 219 q 537 222 503 219 q 629 240 571 225 q 717 274 671 251 q 790 336 764 297 q 758 502 779 415 q 701 701 736 589 q 688 720 697 711 q 669 735 679 729 q 651 746 660 742 q 636 750 642 750 q 626 749 628 750 q 589 716 617 744 q 524 646 561 688 q 444 556 486 604 q 367 465 403 507 q 308 391 332 422 q 281 353 283 360 m 858 -8 l 858 -3 q 856 33 857 10 q 851 81 854 57 q 842 124 849 104 q 821 149 835 144 q 575 38 690 74 q 360 1 460 1 q 50 306 50 1 l 50 325 q 78 398 50 349 q 155 510 107 447 q 265 645 203 574 q 392 786 326 717 q 524 916 458 856 q 643 1017 589 976 l 792 1006 q 837 877 810 954 q 894 711 864 800 q 954 526 924 622 q 1010 341 985 431 q 1051 174 1035 251 q 1071 43 1068 96 l 858 -8 m 386 -37 q 594 -5 483 -37 q 831 97 706 28 q 836 60 835 81 q 840 24 838 40 q 840 4 840 13 q 842 -8 840 -3 l 842 -31 l 849 -28 l 872 -51 l 1110 7 q 1092 131 1107 58 q 1056 286 1078 203 q 1006 458 1033 369 q 949 633 978 547 q 894 794 921 718 q 847 931 868 871 q 836 963 842 946 q 826 992 831 981 l 806 1011 q 803 1022 803 1019 l 639 1033 q 515 930 582 992 q 382 798 449 868 q 252 654 315 728 q 140 515 189 581 q 63 399 92 450 q 33 325 33 349 l 33 306 q 149 36 33 114 q 386 -37 231 -37 m 319 325 q 350 367 325 335 q 410 440 375 399 q 484 528 444 482 q 560 613 524 574 q 623 680 596 653 q 658 711 650 707 l 663 711 q 681 704 669 711 q 683 701 683 701 q 740 501 719 588 q 772 340 761 415 q 706 288 747 308 q 625 257 664 268 q 534 239 568 242 q 472 236 500 236 l 432 236 q 381 244 400 236 q 344 263 361 253 q 339 267 342 264 l 338 265 q 324 297 329 281 q 319 325 319 314 z "},"B":{"ha":1113,"x_min":17,"x_max":1118,"o":"m 324 460 q 307 420 317 446 q 289 365 297 394 q 276 309 281 336 q 276 265 272 282 q 558 210 433 210 q 665 224 614 210 q 756 268 717 239 q 817 341 794 297 q 839 443 840 385 q 714 413 768 421 q 597 406 660 406 q 541 412 578 406 q 464 426 504 418 q 385 444 424 435 q 324 460 347 453 m 503 800 q 417 786 458 800 q 325 761 376 772 q 326 753 325 757 q 326 746 328 750 q 317 693 319 724 q 314 638 314 663 q 315 622 314 629 q 317 607 315 614 q 391 572 349 583 q 479 558 433 561 q 571 556 525 554 q 656 560 617 557 q 756 571 708 563 q 846 601 804 579 q 834 631 840 614 q 821 666 828 649 q 806 699 814 683 q 788 725 797 715 q 665 785 739 771 q 503 800 590 800 m 89 40 l 81 122 q 101 299 96 210 q 107 481 107 389 q 102 660 107 572 q 90 831 97 747 q 69 860 79 846 q 47 889 58 874 l 38 928 q 382 1011 199 986 q 531 1024 474 1024 q 719 997 635 1025 q 878 910 803 968 q 927 848 906 886 q 965 766 949 810 q 994 676 982 722 q 1016 591 1007 631 q 1033 522 1025 551 q 1047 482 1040 493 q 1077 357 1086 418 q 1031 242 1068 296 q 936 143 993 188 q 824 68 879 99 q 531 3 696 3 q 435 6 486 3 q 322 15 385 8 l 89 40 m 104 3 l 347 -24 q 460 -33 410 -31 q 557 -36 511 -36 q 856 31 726 -36 q 948 90 901 56 q 1032 165 994 124 q 1094 254 1069 207 q 1118 351 1118 301 q 1085 463 1118 411 l 1083 463 q 1072 498 1076 474 q 1058 554 1067 522 q 1038 637 1050 592 q 1010 727 1026 682 q 973 813 994 772 q 925 882 951 854 q 889 922 908 906 q 727 1011 813 982 q 538 1040 642 1040 l 531 1040 q 381 1028 472 1040 q 197 993 288 1015 q 17 938 107 971 l 32 879 q 39 870 35 874 q 46 861 43 867 q 51 856 49 858 q 56 850 53 853 q 66 835 61 843 q 74 824 71 828 q 85 656 81 740 q 90 481 90 571 q 85 302 90 392 q 64 125 79 213 l 74 25 l 82 24 l 104 3 m 353 611 q 356 664 353 635 q 365 715 358 693 l 365 725 q 392 731 379 728 q 418 739 406 735 q 474 754 447 747 q 529 761 501 761 q 669 751 604 761 q 781 708 733 740 q 783 706 781 706 q 797 678 790 694 q 811 647 804 663 q 814 639 813 643 q 817 632 815 635 q 820 622 819 626 q 824 613 821 618 l 824 610 q 741 585 783 592 q 654 576 699 579 q 542 572 601 572 q 442 578 490 572 q 353 604 393 585 l 353 611 m 356 418 q 419 402 381 411 q 496 385 457 393 q 569 372 535 378 q 624 367 604 367 q 721 371 676 367 q 817 389 765 375 q 783 318 807 349 q 723 267 758 288 q 645 237 688 247 q 558 226 603 226 q 314 268 447 226 q 331 347 317 303 q 356 418 344 390 z "},"C":{"ha":1113,"x_min":35,"x_max":1107,"o":"m 994 607 q 592 761 739 754 q 358 715 454 765 q 244 525 239 651 q 531 263 258 296 q 561 261 533 261 q 875 381 739 261 l 942 71 q 571 4 758 4 q 500 6 531 4 q 447 13 469 7 q 149 183 251 50 q 51 519 51 310 q 54 597 51 556 q 73 687 57 639 q 123 788 89 735 q 221 903 157 842 q 593 1013 375 1014 q 664 1008 626 1013 q 744 997 701 1004 q 1065 892 928 968 l 994 607 m 1086 900 q 749 1013 931 983 l 749 1014 q 667 1025 706 1021 q 593 1029 629 1029 l 585 1029 q 382 1001 474 1029 q 211 915 290 972 q 109 796 144 851 q 57 691 74 740 q 38 599 40 642 q 35 519 35 557 q 136 174 35 304 q 229 82 176 118 q 471 -26 322 0 q 524 -33 493 -32 q 597 -35 556 -35 q 983 38 788 -35 l 910 378 l 889 399 l 886 413 q 561 278 732 278 q 535 279 538 278 q 324 369 393 296 q 295 429 306 397 q 283 500 285 461 l 283 511 q 390 678 283 621 q 597 722 476 722 l 618 722 q 1029 561 763 715 l 1107 871 l 1085 893 l 1086 900 z "},"D":{"ha":1075,"x_min":13,"x_max":1056,"o":"m 331 388 q 336 340 333 364 q 342 293 339 317 l 364 293 q 719 413 613 293 q 786 599 786 488 q 785 619 786 611 q 783 635 785 628 q 726 749 771 707 q 574 788 669 788 q 292 658 433 788 q 308 547 299 621 q 331 388 318 472 m 283 975 q 413 1017 350 1003 q 535 1035 476 1032 q 557 1036 546 1036 q 579 1036 568 1036 q 889 938 765 1036 q 964 857 933 901 q 1056 565 1056 746 q 808 106 1056 253 q 601 13 719 51 q 319 -46 483 -26 l 129 -65 l 106 -42 l 99 -43 q 90 19 96 -28 q 78 128 85 65 q 65 264 72 192 q 51 401 57 336 q 40 518 44 467 q 35 592 36 569 l 35 590 q 33 599 33 594 q 32 608 33 603 q 29 629 29 619 l 29 633 q 25 665 26 650 q 24 693 24 681 q 22 777 24 738 q 18 854 21 817 q 14 935 15 890 q 13 1021 13 981 l 264 1021 l 263 1013 l 286 990 l 283 975 m 251 690 q 547 826 400 826 q 800 640 767 826 q 802 624 801 633 q 803 599 803 614 q 732 401 803 482 q 364 276 621 276 l 336 276 l 322 276 q 310 278 313 276 q 293 401 301 338 q 276 520 285 464 q 262 622 268 576 q 251 690 256 667 m 292 -7 q 571 51 454 13 q 775 143 688 90 q 1017 592 1017 286 q 878 925 1017 815 q 536 1018 746 1031 q 239 936 394 1011 l 246 1004 l 29 1004 q 31 926 29 963 q 34 852 32 889 q 38 776 36 815 q 40 693 40 738 q 44 647 40 674 q 51 593 49 621 q 57 522 53 572 q 67 408 61 472 q 81 274 74 344 q 94 142 88 204 q 106 35 100 81 q 114 -25 111 -10 l 292 -7 z "},"E":{"ha":1094,"x_min":21,"x_max":1089,"o":"m 554 1024 q 703 1011 611 1024 q 1047 928 889 986 l 974 644 q 757 710 856 689 q 571 731 658 731 q 299 640 393 731 q 265 597 279 621 q 239 549 250 574 q 429 507 322 507 q 768 604 588 507 l 831 403 q 506 325 639 325 q 240 369 385 325 q 526 210 303 210 q 919 308 689 210 l 965 53 q 763 15 908 29 q 649 6 700 8 q 554 3 599 3 q 261 68 389 3 q 38 482 38 188 q 207 910 38 769 q 554 1024 353 1025 m 554 1040 l 547 1040 q 357 1010 443 1040 q 196 922 271 981 q 21 482 21 778 q 190 93 21 221 q 282 31 229 56 q 581 -36 411 -36 q 677 -33 626 -36 q 790 -24 728 -31 q 1006 19 936 -8 l 956 300 l 933 321 l 932 332 q 526 226 688 226 q 293 311 365 226 q 290 317 292 314 q 288 322 289 319 q 532 286 417 286 q 872 369 668 286 l 803 596 l 783 615 l 779 629 q 429 524 582 524 q 289 546 354 524 q 332 604 308 581 l 333 604 q 597 692 425 692 q 784 670 683 692 q 1010 601 885 649 l 1089 908 l 1067 931 l 1068 938 q 704 1028 890 1003 q 554 1040 613 1040 m 163 119 l 158 124 q 159 123 158 124 q 161 122 160 122 l 175 108 q 163 119 171 111 z "},"F":{"ha":1068,"x_min":21,"x_max":1072,"o":"m 1049 904 l 1072 881 l 996 628 q 837 704 911 675 q 697 749 763 733 q 575 769 632 764 q 467 774 518 774 q 310 725 354 774 q 271 593 271 685 q 354 597 308 597 l 493 597 q 579 595 539 597 q 661 585 619 593 q 747 562 703 576 q 844 522 792 547 l 840 518 l 864 494 l 703 308 q 638 333 665 322 q 586 349 610 343 q 540 359 563 356 q 490 364 517 363 q 474 365 482 365 q 460 365 467 365 q 423 364 440 365 q 386 361 406 363 q 351 358 368 360 q 319 357 335 357 l 304 357 q 355 194 328 269 q 417 43 382 118 l 142 -18 l 119 4 l 113 3 q 21 600 21 349 l 21 611 q 148 949 24 838 q 514 1061 272 1061 l 518 1061 q 719 1044 615 1061 q 915 992 832 1026 q 1050 908 997 957 l 1049 904 m 1031 903 q 718 1028 935 992 q 518 1044 614 1044 q 38 611 44 1047 q 125 24 35 361 l 372 79 q 313 226 340 150 q 263 394 286 303 q 278 396 265 396 l 293 396 q 376 401 332 396 q 465 403 421 406 q 514 398 492 401 q 559 388 536 394 q 609 372 582 382 q 672 349 636 363 l 817 517 q 703 560 756 546 q 599 578 651 574 q 488 581 546 582 q 354 581 429 581 q 289 578 318 581 q 233 569 260 576 q 232 589 232 572 l 232 608 q 274 760 232 714 q 440 813 322 813 q 549 808 492 813 q 672 788 607 803 q 808 747 736 774 q 961 674 881 719 l 1031 903 z "},"G":{"ha":1122,"x_min":33,"x_max":1110,"o":"m 835 654 q 1071 43 1056 358 l 839 13 q 835 53 836 32 q 831 96 833 75 q 576 24 692 47 q 360 1 460 1 q 50 325 39 1 q 65 431 51 364 q 109 575 79 497 q 187 732 139 653 q 303 875 235 811 q 464 979 372 939 q 672 1018 556 1019 l 746 850 q 575 817 649 850 q 449 733 501 785 q 361 618 396 682 q 306 492 326 554 q 276 376 285 431 q 268 290 268 322 q 275 243 268 257 q 388 188 308 188 q 594 253 475 188 q 775 372 690 301 q 689 569 732 511 l 835 654 m 664 575 q 754 376 710 515 q 670 317 713 344 q 588 268 628 289 q 388 204 468 204 q 308 232 340 204 q 307 246 307 239 q 307 264 307 253 q 315 347 307 294 q 344 461 324 400 q 401 585 365 522 q 490 697 436 647 q 619 779 544 747 q 792 811 693 811 l 707 1004 l 689 1022 l 683 1035 l 665 1035 q 453 993 546 1035 q 291 886 361 951 q 172 740 221 821 q 94 579 124 658 q 49 432 64 500 q 33 325 35 364 l 33 306 q 146 39 33 118 q 386 -37 226 -37 q 584 -18 478 -37 q 818 43 690 1 q 821 27 819 36 q 825 -6 822 18 l 832 -4 l 856 -28 l 1110 6 q 1042 330 1103 171 q 864 644 982 489 l 853 656 q 844 666 849 661 q 838 676 840 671 l 664 575 z "},"H":{"ha":1196,"x_min":25,"x_max":1099,"o":"m 379 1024 q 310 919 333 965 q 276 826 286 872 q 264 731 265 781 q 263 618 263 682 l 263 558 q 268 549 263 550 q 295 536 282 542 q 326 527 308 531 q 372 522 344 524 q 440 521 399 521 q 476 522 454 521 q 522 527 497 524 q 573 534 547 531 q 621 542 599 538 q 636 709 625 643 q 665 826 647 775 q 707 922 682 876 q 764 1031 732 968 l 1033 981 q 957 886 1000 942 q 876 773 914 831 q 813 663 839 715 q 786 581 786 611 q 799 554 786 563 q 840 551 811 546 q 913 577 868 557 q 1021 636 957 597 l 1058 415 q 1003 392 1031 403 q 945 372 976 382 q 877 353 914 363 q 793 333 840 343 q 794 262 793 310 q 795 163 794 214 q 797 69 796 113 q 800 8 799 25 l 625 26 q 619 80 622 39 q 614 168 617 121 q 608 258 611 215 q 604 317 606 300 q 586 315 600 315 l 569 315 l 501 313 q 415 322 456 313 q 332 331 375 331 q 301 328 301 331 q 307 251 303 296 q 319 161 311 206 q 340 81 326 117 q 372 32 353 44 l 169 -15 q 122 31 142 -8 q 88 127 103 71 q 65 250 74 183 q 52 379 57 317 q 45 494 47 442 q 42 575 43 547 q 42 599 42 603 q 43 544 43 594 q 44 678 43 615 q 51 799 44 740 q 70 916 57 858 q 110 1035 83 974 l 379 1024 m 382 1040 l 99 1051 q 59 938 74 993 q 38 829 44 883 q 28 719 31 775 q 26 603 26 664 q 25 589 25 599 q 26 522 25 569 q 33 411 28 474 q 46 279 38 349 q 69 147 54 210 q 104 38 83 85 q 154 -26 125 -10 l 165 -37 q 196 -56 179 -51 l 431 0 l 407 22 l 415 25 q 390 46 400 33 q 367 106 376 72 q 353 174 358 140 q 344 241 347 208 q 340 299 342 274 l 343 296 q 358 292 347 292 q 398 289 378 292 q 439 283 418 286 q 482 277 460 281 q 528 274 504 274 l 590 276 q 592 247 592 263 q 594 218 592 233 q 598 155 596 188 q 602 94 600 122 q 606 43 604 65 q 610 11 607 21 l 618 10 l 640 -11 l 840 -32 q 836 30 838 -14 q 834 124 835 74 q 833 222 833 174 q 832 296 832 269 q 978 335 918 315 q 1099 382 1038 354 l 1057 631 l 1035 651 l 1033 664 q 900 592 950 614 q 825 567 850 569 q 859 651 831 600 q 926 759 888 703 q 1008 869 965 815 q 1083 963 1050 924 l 1060 985 q 1063 988 1061 988 q 1065 992 1064 989 l 754 1050 q 744 1030 750 1042 q 733 1008 739 1018 q 724 990 729 999 q 717 975 719 982 q 674 892 693 931 q 641 808 656 854 q 617 703 626 763 q 604 557 608 643 q 510 543 558 549 q 440 538 461 538 q 351 541 382 538 q 301 551 321 544 l 301 624 q 303 722 301 678 q 317 808 306 767 q 351 893 328 850 q 415 989 374 936 l 406 1010 l 389 1026 l 382 1040 z "},"I":{"ha":1090,"x_min":17,"x_max":1083,"o":"m 1008 274 l 1029 253 l 1083 44 q 941 -1 1024 17 q 751 -29 858 -18 q 649 -36 693 -33 q 569 -39 604 -39 q 277 -20 406 -37 q 49 33 149 -3 l 29 53 l 17 57 l 85 350 q 382 263 214 293 q 439 610 439 426 q 439 643 439 626 q 438 679 439 660 q 292 670 361 676 q 156 653 222 664 l 132 676 q 128 676 129 676 q 126 675 128 675 l 81 882 q 360 947 160 931 q 455 955 413 953 q 535 957 497 957 q 814 940 701 956 q 993 896 926 925 l 992 889 l 1014 867 l 949 599 q 819 644 886 626 q 679 674 753 663 q 707 440 707 565 q 703 347 707 394 q 693 251 700 300 q 853 265 774 257 q 1006 283 932 272 l 1008 274 m 993 265 q 647 232 835 242 q 668 467 668 354 q 636 715 668 600 q 914 643 800 694 l 972 886 q 806 925 914 911 q 535 940 699 939 q 456 938 499 940 q 361 931 414 936 q 100 872 171 914 l 139 693 q 287 710 210 704 q 451 719 364 717 q 455 667 454 694 q 456 610 456 639 q 393 243 456 407 q 97 326 219 272 l 38 67 q 254 17 129 33 q 543 0 379 1 q 622 3 578 0 q 724 10 665 6 q 1042 78 935 31 l 993 265 z "},"J":{"ha":1022,"x_min":32,"x_max":1014,"o":"m 403 250 q 469 197 438 213 q 530 178 500 182 q 588 177 560 174 q 643 181 615 181 q 707 194 679 181 q 769 347 769 224 q 697 694 769 492 q 568 971 632 890 l 885 1022 q 944 750 922 867 q 971 546 965 633 q 975 454 975 492 q 768 22 975 93 q 607 -3 693 -3 q 478 1 536 -3 q 371 19 421 4 q 276 63 321 33 q 185 143 231 92 q 139 197 157 175 q 106 242 121 218 q 80 300 92 267 q 53 389 68 333 l 336 481 q 343 408 340 442 q 351 344 346 374 q 369 292 357 315 q 403 250 381 268 m 414 263 q 410 265 413 263 q 388 328 394 293 q 379 407 382 363 q 376 439 378 418 q 374 472 375 460 l 353 493 q 352 499 353 496 q 351 504 351 501 l 32 400 q 61 305 49 342 q 87 242 74 268 q 117 196 100 217 q 158 147 133 175 q 170 135 164 142 q 179 125 176 129 q 215 88 197 104 q 250 58 232 72 q 331 3 289 24 q 418 -26 372 -17 q 517 -39 464 -36 q 633 -42 569 -42 q 799 -17 724 -42 q 1014 428 1014 57 q 1010 521 1014 467 q 982 729 1004 608 q 921 1010 960 850 l 900 1031 q 897 1040 897 1036 l 538 982 q 613 858 578 932 q 681 689 649 785 q 753 347 753 486 q 700 210 753 235 q 643 197 671 197 q 622 197 632 197 q 600 194 611 196 q 579 193 589 193 q 560 193 569 193 q 492 205 528 193 q 415 261 456 217 l 414 263 m 179 129 l 176 133 q 179 129 179 131 z "},"K":{"ha":1121,"x_min":-24,"x_max":1135,"o":"m 965 917 q 963 913 964 914 q 961 910 963 913 l 985 888 q 956 826 971 860 q 928 767 940 793 q 865 637 896 699 q 801 522 835 575 q 729 424 768 468 q 640 346 690 379 q 626 324 626 335 q 635 294 626 308 q 694 254 658 271 q 765 238 729 238 q 774 236 768 236 q 778 235 776 236 q 783 235 781 235 q 786 234 785 235 q 789 233 788 233 q 815 229 806 229 q 840 239 826 229 q 853 247 847 243 q 863 259 858 250 q 870 284 867 268 q 876 329 874 300 l 1094 263 l 1094 261 q 1111 240 1110 254 l 1126 226 q 1125 226 1125 226 q 1124 228 1125 228 l 1126 226 q 1135 207 1135 219 q 1109 149 1135 186 q 1054 74 1083 111 q 1048 66 1051 71 q 1042 58 1044 61 q 926 -19 1001 6 q 769 -43 850 -43 q 751 -42 761 -43 q 733 -42 742 -42 q 669 -22 697 -35 q 613 6 640 -10 l 611 7 q 519 69 561 33 q 482 101 500 85 q 446 136 464 117 q 422 164 432 149 q 403 196 411 179 q 380 145 392 171 q 357 97 368 119 q 339 67 346 79 q 326 44 332 56 q 310 16 317 26 q 295 -5 304 6 q 272 -29 286 -15 q 233 -68 258 -43 l 11 61 l 0 72 l -24 86 q 47 170 18 119 q 96 276 76 221 q 125 388 115 332 q 136 489 135 443 q 137 517 136 503 q 139 544 138 531 q 141 583 140 564 q 142 621 142 601 q 138 686 142 653 q 122 756 133 719 q 90 833 111 793 q 35 919 68 874 l 346 1029 q 349 1022 347 1025 q 351 1014 350 1018 l 369 997 q 413 825 404 915 q 425 649 422 735 q 426 593 426 621 q 429 543 426 567 q 487 577 457 549 q 544 646 517 606 q 597 735 572 686 q 640 830 621 783 q 670 918 658 876 q 683 986 682 960 l 965 917 m 699 964 q 684 894 697 936 q 650 802 671 851 q 601 703 629 753 q 542 615 574 654 q 479 550 511 575 q 417 525 447 525 q 400 536 401 525 q 392 563 399 547 q 386 672 388 614 q 381 788 385 729 q 367 903 376 847 q 336 1008 357 960 l 61 911 q 128 794 107 849 q 155 690 149 740 q 158 590 161 639 q 153 489 154 540 q 142 386 151 443 q 116 274 133 329 q 72 169 99 218 q 7 89 44 119 l 206 -26 q 246 14 233 1 q 267 39 258 26 q 285 71 275 51 q 319 131 296 90 q 339 171 329 149 q 358 215 349 193 q 374 258 367 238 q 388 293 382 278 q 457 147 397 208 q 521 91 488 117 q 593 43 554 65 q 647 16 619 28 q 710 -3 675 4 q 797 -1 753 -6 q 881 15 842 3 q 953 46 921 26 q 1007 93 986 65 q 1044 142 1025 117 q 1077 190 1064 168 q 1094 226 1090 211 q 1088 246 1099 242 l 892 307 q 885 269 889 283 q 876 246 882 254 q 861 232 869 238 q 842 221 853 226 q 803 214 824 210 q 761 221 783 218 q 684 240 722 221 q 621 286 646 260 q 589 340 596 313 q 607 382 582 367 q 708 476 664 421 q 789 597 751 531 q 863 742 826 664 q 940 906 899 819 l 699 964 z "},"L":{"ha":1071,"x_min":18,"x_max":1063,"o":"m 76 318 q 132 366 115 321 q 149 488 149 411 q 135 667 149 567 q 97 889 121 768 l 382 942 q 381 748 390 846 q 355 560 371 650 q 322 395 339 471 q 300 267 306 319 q 456 289 368 272 q 635 331 544 306 q 811 389 726 356 q 956 461 896 422 l 1022 136 q 862 83 947 104 q 681 50 776 63 q 518 38 578 38 q 260 58 379 39 q 38 115 142 76 l 76 318 m 60 322 l 18 106 q 24 103 21 104 q 31 100 28 101 l 50 82 q 285 20 163 40 q 544 -1 407 0 q 708 11 606 -1 q 892 45 804 24 q 1063 103 981 67 l 990 456 l 969 476 l 967 490 q 830 418 908 451 q 667 359 751 385 q 499 315 583 333 q 346 288 415 296 q 367 396 354 333 q 405 601 386 489 q 424 831 424 713 q 423 875 424 851 q 419 931 422 899 l 399 951 q 398 957 399 954 q 397 963 397 960 l 76 901 q 117 667 103 771 q 132 488 132 563 q 119 378 132 419 q 74 335 106 338 l 60 322 z "},"M":{"ha":1592,"x_min":-6,"x_max":1592,"o":"m 1257 -61 l 1249 -62 q 1185 314 1229 164 q 1076 550 1142 464 q 1049 582 1063 565 q 1019 613 1035 599 q 1003 623 1011 619 q 986 629 994 626 q 961 613 974 625 q 938 585 949 600 l 932 575 q 931 557 931 567 q 931 542 931 549 q 956 376 931 467 q 1021 161 982 285 q 1050 69 1035 121 q 1081 -31 1065 18 l 832 -82 l 810 -60 l 801 -61 q 794 14 799 -15 q 785 67 790 43 q 783 64 783 65 q 783 64 783 64 q 766 5 774 32 q 756 -62 758 -22 l 469 -33 l 449 -12 l 436 -11 q 497 115 464 44 q 558 260 529 185 q 605 411 586 335 q 624 556 624 488 l 624 560 q 598 590 611 575 q 569 617 585 604 q 554 626 563 622 q 538 632 546 629 q 510 613 522 629 q 488 581 499 597 l 489 581 l 488 579 l 472 560 q 442 501 458 540 q 410 408 426 461 q 376 293 393 354 q 346 169 360 232 q 322 47 332 106 q 308 -61 313 -12 l 26 -32 l 6 -11 l -6 -10 q 30 139 7 56 q 82 311 53 222 q 144 488 111 400 q 213 652 178 576 q 281 785 247 728 q 344 869 315 842 q 425 925 383 906 q 522 953 467 944 q 649 890 593 921 q 753 821 706 860 q 756 825 756 824 q 758 828 757 826 q 778 852 769 843 q 793 868 786 861 q 874 924 832 904 q 971 951 915 943 q 1068 906 1024 928 q 1150 858 1113 883 q 1220 801 1188 832 q 1282 732 1253 771 q 1356 621 1321 685 q 1428 467 1392 557 q 1504 256 1465 376 q 1592 -25 1543 135 l 1279 -83 l 1257 -61 m 271 -21 q 296 144 276 50 q 339 328 315 238 q 389 491 363 418 q 436 593 415 564 q 472 642 454 617 q 513 671 489 667 q 580 632 547 664 q 640 565 613 600 q 624 419 642 494 q 580 269 607 343 q 521 126 553 194 q 463 4 489 58 l 718 -22 q 726 28 721 7 q 738 72 731 50 q 753 122 744 94 q 771 188 761 149 q 786 132 779 156 q 798 85 793 108 q 808 32 803 61 q 817 -40 813 3 l 1038 6 q 976 198 1006 111 q 927 357 947 285 q 897 490 907 429 q 893 606 888 551 q 924 647 908 626 q 960 669 940 667 q 1028 630 994 663 q 1089 561 1061 597 q 1201 326 1157 474 q 1264 -42 1244 179 l 1549 11 q 1453 316 1496 188 q 1372 536 1411 444 q 1294 689 1333 628 q 1207 794 1254 750 q 1102 869 1160 838 q 968 935 1044 901 q 881 909 919 928 q 804 856 842 890 q 782 831 793 846 q 756 797 771 817 q 651 872 708 840 q 519 936 594 903 q 432 910 471 929 q 356 857 393 892 q 293 775 326 831 q 226 646 260 719 q 160 487 193 572 q 100 315 128 401 q 50 149 72 229 q 15 6 28 68 l 271 -21 z "},"N":{"ha":1064,"x_min":-18,"x_max":1033,"o":"m 707 17 q 763 185 767 97 q 710 358 758 274 q 578 520 661 443 q 399 656 496 597 q 390 463 394 554 q 376 291 386 372 q 347 139 365 210 q 299 6 329 68 l 15 56 q 58 126 38 79 q 97 232 79 174 q 131 353 115 290 q 156 474 146 417 q 172 578 167 532 q 178 646 178 624 q 176 738 178 700 q 172 813 175 775 q 163 897 168 851 q 151 1013 158 943 l 258 1022 l 411 1004 q 489 927 449 968 q 569 844 529 886 q 644 764 608 803 q 706 694 679 725 q 748 644 732 664 q 764 622 764 625 q 766 722 768 664 q 757 837 764 781 q 739 940 750 893 q 714 1004 728 986 l 943 1046 q 973 949 963 1017 q 988 794 983 882 q 994 603 993 706 q 994 399 994 500 q 993 278 994 338 q 986 167 992 219 q 970 72 981 115 q 942 -3 960 28 l 707 17 m 703 0 l 710 0 l 732 -22 l 975 -43 q 1024 136 1015 26 q 1033 372 1033 246 l 1033 413 q 1032 607 1033 510 q 1025 788 1031 704 q 1008 937 1019 872 q 975 1033 996 1001 l 961 1046 q 956 1056 958 1051 q 951 1065 954 1061 l 685 1017 q 710 961 699 999 q 731 876 722 924 q 745 779 740 829 q 750 686 750 729 l 750 663 q 721 697 736 678 q 688 735 706 715 q 626 803 660 767 q 558 878 593 840 q 487 952 522 915 q 418 1021 451 989 l 258 1039 l 133 1028 q 136 994 135 1013 q 140 961 138 976 q 144 932 143 946 q 146 907 144 918 q 153 838 150 868 q 158 779 156 808 q 160 719 160 750 q 161 646 161 688 q 155 578 161 624 q 137 475 149 533 q 109 352 125 417 q 73 228 93 288 q 30 120 53 169 q -18 44 7 71 l -4 42 l 17 21 l 332 -35 q 383 101 364 29 q 413 252 403 172 q 428 419 424 332 q 436 606 432 507 q 600 479 525 550 l 590 490 q 436 615 519 560 q 437 622 436 618 q 438 629 438 625 l 411 656 l 392 644 l 410 625 q 401 441 406 528 q 385 276 396 354 q 356 126 375 197 q 306 -8 338 56 l 32 39 q 75 120 54 71 q 113 227 96 169 q 145 346 131 285 q 170 460 160 407 q 186 556 181 514 q 192 619 192 599 q 191 692 192 661 q 188 753 190 724 q 183 812 186 782 q 176 881 181 842 q 170 934 174 903 q 164 997 167 965 l 285 1008 l 443 990 q 430 1003 436 997 q 417 1017 424 1010 l 258 1035 l 138 1024 q 144 960 140 992 q 150 907 147 929 q 157 838 154 868 q 162 779 160 808 q 165 719 164 750 q 165 646 165 688 q 159 578 165 624 q 142 475 153 533 q 115 353 131 417 q 79 229 99 289 q 37 122 60 169 q -10 47 14 74 l -4 42 l 308 -12 q 359 122 340 51 q 389 272 378 193 q 405 439 400 351 q 414 624 410 526 q 542 527 482 579 q 648 417 603 475 q 719 299 693 360 q 746 179 746 239 q 733 99 746 139 q 693 24 721 60 l 703 0 z "},"O":{"ha":1113,"x_min":25,"x_max":1100,"o":"m 639 228 q 777 301 733 254 q 821 442 821 349 q 819 472 821 456 q 814 507 817 488 q 736 667 793 613 q 575 711 672 711 q 444 689 508 711 q 313 625 379 667 q 292 491 297 551 q 286 379 286 431 q 292 305 286 335 q 311 254 299 275 q 313 253 311 253 q 481 204 357 204 q 557 210 518 204 q 638 228 596 215 l 639 228 m 303 975 q 421 990 356 986 q 553 994 486 994 l 636 994 q 1001 842 894 994 q 1100 531 1100 732 l 1100 514 q 1073 296 1097 389 q 1004 139 1049 203 q 918 57 969 93 q 796 -4 867 21 q 526 -40 685 -40 q 286 -3 382 -40 q 241 21 263 7 q 200 50 219 35 q 128 117 158 78 q 74 206 97 156 q 38 324 49 260 q 26 465 26 388 l 26 507 q 26 518 26 513 q 25 531 25 524 q 28 592 25 563 q 42 656 31 622 q 97 790 68 738 q 156 875 125 842 q 217 927 186 908 q 276 961 247 946 q 289 967 283 964 q 295 970 292 968 q 303 975 299 972 m 643 211 q 561 193 601 199 q 481 188 521 188 q 301 242 351 188 q 262 303 276 268 q 247 406 247 339 q 253 522 247 458 q 275 660 260 585 q 549 750 411 750 q 831 513 785 750 q 835 475 833 493 q 838 442 838 457 q 790 291 838 343 q 643 211 743 239 m 307 958 q 244 924 276 942 q 180 876 213 907 q 117 792 147 844 q 58 650 86 739 q 44 588 47 617 q 42 531 42 558 q 42 494 42 511 q 43 465 43 476 q 54 328 43 390 q 89 213 65 265 q 264 35 146 85 q 500 -1 357 -1 q 765 35 654 -1 q 968 172 903 85 q 1061 540 1056 297 l 1061 557 q 955 872 1061 765 q 636 978 849 978 l 553 978 q 424 974 489 978 q 307 958 360 969 z "},"P":{"ha":1093,"x_min":19,"x_max":1083,"o":"m 561 772 q 546 771 549 772 q 553 690 550 738 q 557 596 556 643 q 560 508 558 549 q 563 449 561 467 q 632 460 599 451 q 694 483 665 469 q 785 640 797 536 q 701 746 778 711 q 561 772 642 776 m 371 739 q 107 607 233 696 l 38 878 q 356 994 156 961 q 531 1011 449 1011 q 872 939 728 1013 q 1044 660 1047 847 q 906 378 1043 483 q 599 281 779 281 l 578 281 q 556 282 560 281 q 458 0 525 93 l 196 38 q 258 178 229 93 q 310 359 288 263 q 349 555 333 456 q 371 739 365 654 m 167 25 l 179 22 l 201 1 l 490 -40 q 592 242 561 57 l 625 242 q 939 342 810 242 q 1046 469 1010 396 q 1083 633 1082 542 l 1083 638 q 1003 850 1083 765 q 879 954 960 913 q 542 1028 739 1028 l 531 1028 q 350 1011 443 1028 l 350 1010 q 19 883 156 976 l 96 579 q 101 583 99 582 l 125 560 q 236 630 182 600 q 347 682 290 660 q 322 506 339 599 q 281 325 304 414 q 228 158 257 236 q 167 25 199 79 m 597 517 q 592 629 594 569 q 586 733 590 689 l 607 733 q 722 708 672 733 q 738 700 733 703 q 768 633 764 674 q 769 618 769 626 q 688 499 769 538 q 645 483 668 489 q 597 471 622 476 l 597 517 z "},"Q":{"ha":1113,"x_min":25,"x_max":1100,"o":"m 460 211 q 541 193 501 199 q 621 188 581 188 q 590 263 617 226 q 530 331 563 300 q 467 386 497 363 q 425 422 436 410 l 622 506 q 673 455 643 490 q 731 379 703 419 q 781 303 758 339 q 808 250 803 267 q 843 310 831 276 q 856 406 856 343 q 849 522 856 458 q 828 660 842 585 q 554 750 692 750 q 272 513 318 750 q 267 475 269 493 q 265 442 265 457 q 313 291 265 343 q 460 211 360 239 m 674 -153 q 676 -130 675 -142 q 676 -107 676 -118 l 676 -82 q 675 -38 676 -62 q 671 0 674 -14 q 660 -1 667 -1 l 653 -1 l 638 -1 l 622 -1 l 603 -1 q 338 35 446 -1 q 135 172 199 85 q 42 540 46 296 l 42 557 q 148 872 42 765 q 467 978 254 978 l 549 978 q 678 974 615 978 q 794 958 742 969 q 858 925 825 942 q 922 877 890 908 q 985 792 954 846 q 1043 650 1015 739 q 1058 588 1054 617 q 1061 531 1061 558 q 1060 494 1061 511 q 1060 465 1060 476 q 1014 213 1060 317 q 856 43 961 93 q 856 22 856 32 q 857 0 857 11 q 856 -29 857 -12 q 855 -62 856 -46 q 853 -94 854 -79 q 850 -119 851 -110 l 674 -153 m 360 -4 q 629 -40 468 -40 l 658 -40 q 660 -62 660 -51 q 660 -82 660 -74 l 660 -107 q 659 -123 660 -114 q 657 -143 658 -132 q 656 -157 656 -150 q 656 -174 656 -165 l 664 -172 l 686 -194 l 888 -157 q 891 -128 889 -144 q 894 -93 893 -111 q 895 -57 894 -75 q 896 -26 896 -39 q 895 -16 896 -21 q 894 -6 894 -11 l 894 8 q 1051 181 999 61 q 1087 299 1075 233 q 1099 439 1099 364 l 1099 463 q 1099 483 1099 472 q 1100 504 1100 493 q 1097 565 1100 535 q 1082 628 1093 594 q 1032 754 1058 704 q 978 836 1006 804 q 901 915 940 889 q 825 961 863 942 q 818 964 821 963 q 813 967 815 965 q 805 971 810 969 q 797 975 800 972 q 680 990 744 986 q 549 994 615 994 l 467 994 q 135 884 246 994 q 25 557 25 774 l 25 540 q 122 163 29 293 q 197 88 151 121 q 360 -4 260 31 m 685 460 q 652 497 668 481 q 624 524 636 513 l 397 428 q 428 392 421 397 q 440 383 435 386 q 442 382 442 382 q 444 381 443 382 l 454 372 q 467 362 463 363 q 478 356 471 361 q 548 288 513 326 q 599 204 583 249 q 533 212 565 207 q 465 228 500 217 l 464 228 q 333 293 375 251 q 304 415 304 340 q 306 447 304 431 q 311 483 308 464 q 581 711 356 711 q 697 693 639 711 q 813 643 754 675 q 832 513 825 572 q 839 406 839 454 q 832 336 839 364 q 814 288 825 308 q 753 376 789 328 q 685 460 717 425 z "},"R":{"ha":1094,"x_min":4,"x_max":1089,"o":"m 378 551 q 378 534 378 543 q 382 518 379 525 q 425 510 396 510 l 446 510 q 499 542 471 522 q 558 585 528 561 q 622 638 589 610 q 686 693 654 665 l 733 732 q 575 750 647 750 q 388 676 417 750 l 389 676 q 385 643 385 660 q 384 624 385 633 q 382 604 383 615 q 378 551 378 579 m 557 1035 q 625 1033 588 1035 q 707 1028 663 1032 q 1068 969 888 1013 q 1067 963 1067 967 l 1089 940 q 1063 807 1072 863 q 1047 714 1053 751 q 1040 654 1042 676 q 1039 618 1039 632 q 1033 579 1039 594 q 950 527 1001 560 q 847 460 899 494 q 779 414 811 436 q 719 374 747 392 q 885 320 803 343 q 1050 282 967 297 l 1049 275 l 1071 253 l 997 -35 q 844 19 918 -12 q 704 85 771 50 q 578 157 638 119 q 467 232 518 194 q 360 124 404 179 q 278 19 315 68 q 253 -13 267 6 q 229 -44 239 -32 l 203 -22 l 203 -24 l 4 143 q 110 276 82 214 q 139 388 139 339 q 136 457 139 422 q 129 531 133 492 q 128 538 129 535 q 128 546 128 542 q 127 556 128 551 q 126 565 126 560 q 119 641 122 601 q 114 725 115 681 l 114 738 q 264 975 114 896 q 392 1020 321 1006 q 546 1035 463 1035 l 557 1035 m 549 789 q 786 756 649 789 q 701 684 746 722 q 613 609 657 646 q 528 542 569 572 q 453 494 486 511 q 370 506 394 488 q 340 553 346 524 q 340 615 335 582 q 346 669 346 647 q 350 706 346 689 q 549 789 381 789 m 557 1018 q 271 960 386 1021 q 131 725 124 883 q 144 544 133 626 q 156 388 156 463 q 128 272 156 335 q 29 143 101 210 l 201 0 q 303 133 247 58 q 439 275 360 208 q 550 199 490 238 q 676 126 610 161 q 813 60 742 90 q 961 7 885 29 l 1029 269 q 644 386 838 306 q 720 433 674 403 q 817 498 767 464 q 916 564 868 532 q 996 614 964 596 q 1000 644 1000 626 q 1001 681 1000 658 q 1008 741 1003 704 q 1022 831 1013 778 q 1047 957 1032 883 q 706 1011 882 996 q 624 1017 661 1015 q 557 1018 586 1018 z "},"S":{"ha":1071,"x_min":25,"x_max":1072,"o":"m 639 428 q 753 374 701 394 q 842 344 806 353 q 863 339 847 343 q 895 329 878 335 q 931 317 913 324 q 961 306 949 311 l 1018 151 l 1031 96 q 1007 84 1026 94 q 953 60 988 74 q 868 31 918 46 q 756 8 818 17 q 703 3 736 6 q 634 0 669 1 q 568 -2 599 -1 q 525 -3 538 -3 q 262 13 379 -3 q 44 75 144 29 l 83 278 q 135 263 101 272 q 211 244 168 254 q 304 226 254 235 q 403 214 354 218 q 497 211 451 210 q 579 222 543 213 q 412 335 483 281 q 288 446 340 390 q 198 558 235 501 q 136 674 161 614 l 133 674 l 128 711 q 111 781 121 744 q 107 853 101 818 q 140 922 113 889 q 238 979 168 954 q 314 992 275 988 q 393 1003 353 997 q 525 1011 476 1011 q 733 994 635 1010 q 918 947 831 978 l 886 782 q 753 796 832 796 q 642 797 707 796 q 514 792 578 797 q 399 773 450 786 q 328 731 347 760 q 639 428 364 561 m 646 443 q 411 607 488 518 q 367 701 376 654 q 416 731 382 719 q 493 748 450 742 q 585 756 536 754 q 679 757 633 757 l 779 757 q 922 740 856 757 l 960 929 l 938 951 l 939 958 q 525 1028 746 1026 q 390 1019 474 1028 q 379 1018 386 1018 q 373 1017 376 1018 q 367 1017 369 1017 q 299 1008 331 1013 q 240 997 267 1004 q 165 962 194 981 q 119 922 136 943 q 95 877 101 900 q 89 832 89 854 q 93 789 89 808 q 101 750 97 769 q 103 744 103 747 q 104 739 103 742 q 106 731 106 735 q 107 722 106 726 l 111 706 l 118 657 l 125 657 q 228 488 165 568 q 392 328 292 407 q 454 279 421 304 q 526 228 488 254 q 501 226 514 226 q 475 226 489 226 q 360 235 421 226 q 242 256 299 244 q 139 281 185 268 q 71 300 93 293 l 25 65 q 40 58 32 60 l 57 42 q 284 -24 164 -7 q 551 -42 404 -42 q 594 -41 564 -42 q 661 -39 625 -40 q 731 -35 697 -37 q 783 -31 764 -33 q 881 -12 838 -24 q 959 11 925 -1 q 1016 35 993 24 q 1051 53 1039 46 q 1063 56 1054 54 q 1072 57 1072 57 l 1058 122 l 997 289 l 979 307 l 975 318 q 940 332 960 325 q 901 345 919 339 q 867 356 882 351 q 846 361 851 360 q 758 390 810 369 q 646 443 707 411 m 308 406 l 319 396 q 325 389 321 393 l 308 406 m 293 422 l 307 407 q 301 413 304 410 q 296 418 299 415 l 293 421 q 292 422 293 421 q 292 424 292 422 q 293 422 292 422 m 293 422 l 300 414 l 296 418 l 293 421 l 293 422 z "},"T":{"ha":1104,"x_min":15,"x_max":1097,"o":"m 640 446 q 643 443 643 443 l 640 446 m 629 1015 q 628 1011 628 1013 q 626 1008 628 1011 l 650 986 q 631 925 639 957 q 615 857 622 893 q 818 835 700 850 q 1075 803 936 821 l 1074 794 l 1097 772 l 1061 488 q 830 540 942 519 q 601 576 718 561 q 616 508 608 540 q 639 449 624 476 l 643 444 q 650 432 646 439 q 657 418 654 425 l 669 393 q 686 381 675 386 q 835 314 747 340 q 1031 283 922 288 l 1028 275 l 1051 253 l 978 -39 q 744 -1 847 -35 q 563 100 642 33 q 463 199 507 140 q 364 403 383 300 q 346 578 346 476 l 346 593 l 290 593 q 181 592 228 593 q 89 583 133 590 l 65 606 l 60 606 l 15 792 q 180 831 92 814 q 374 858 268 849 q 401 959 386 914 q 436 1043 417 1004 l 629 1015 m 446 1025 q 414 946 428 990 q 388 843 400 901 q 197 817 283 833 q 36 779 111 801 l 72 624 q 156 631 110 629 q 264 632 201 632 l 311 632 l 336 632 l 350 632 q 364 631 360 632 q 381 407 358 504 q 475 210 401 306 q 942 0 635 8 l 1008 267 q 823 297 907 269 q 676 365 739 325 q 634 413 649 383 q 606 464 619 442 q 561 618 572 528 q 797 582 683 603 q 1024 531 911 561 l 1057 788 q 773 824 893 810 q 569 844 653 838 q 607 1003 586 940 l 446 1025 z "},"U":{"ha":1093,"x_min":10,"x_max":1083,"o":"m 417 550 q 408 430 417 493 q 385 288 400 367 q 425 278 404 281 q 465 275 446 275 q 622 317 539 275 l 628 317 q 679 349 653 317 q 731 433 706 381 q 778 553 756 485 q 817 692 800 621 q 843 835 833 764 q 853 964 853 906 l 853 1008 l 1058 981 l 1058 972 l 1081 950 l 1081 932 q 1083 889 1082 910 q 1083 846 1083 868 q 971 340 1083 578 q 919 247 946 290 q 860 164 892 203 l 858 164 q 749 55 808 96 q 622 -8 690 14 q 477 -35 554 -29 q 313 -42 400 -42 l 285 -42 l 164 -33 l 142 -11 l 133 -11 l 118 17 q 119 43 118 19 q 123 103 121 67 q 128 185 125 139 q 135 276 132 231 q 141 373 138 325 q 147 458 144 421 q 151 519 150 494 q 153 546 153 543 q 147 639 153 593 q 124 730 140 685 q 81 820 108 775 q 10 911 53 865 l 243 1008 q 257 986 250 996 l 267 976 q 334 861 306 914 q 381 758 363 808 q 408 656 399 707 q 417 550 417 606 m 260 -3 l 286 -3 q 449 3 372 -3 q 592 31 525 10 q 717 92 660 51 q 824 199 775 132 q 883 281 856 238 q 933 372 910 324 q 1017 614 989 490 q 1044 872 1044 738 q 1044 919 1044 896 q 1042 965 1043 942 l 869 990 q 863 858 872 932 q 836 706 854 783 q 794 556 818 629 q 742 425 769 482 q 684 333 714 368 q 626 300 654 299 q 478 258 551 261 q 340 289 404 254 q 375 506 367 415 q 371 674 383 597 q 325 823 358 750 q 235 988 292 896 l 38 906 q 103 821 78 864 q 144 733 129 778 q 164 641 158 688 q 169 546 169 594 q 167 503 169 542 q 160 407 164 464 q 152 284 157 350 q 144 162 147 218 q 138 66 140 106 q 135 24 135 26 l 146 6 l 260 -3 z "},"V":{"ha":1181,"x_min":-6,"x_max":1144,"o":"m 1124 907 q 1122 899 1122 904 l 1144 876 q 1108 728 1131 811 q 1056 558 1085 646 q 994 382 1026 469 q 927 219 961 294 q 860 87 893 144 q 796 3 826 29 q 716 -52 757 -33 q 622 -79 675 -71 q 492 -17 549 -47 q 389 54 436 14 q 284 159 331 97 q 193 317 238 221 q 101 554 149 414 q -6 896 54 694 l 317 957 l 317 946 l 339 925 q 365 713 349 814 q 405 525 382 611 q 456 372 428 439 q 515 263 483 304 q 517 260 515 260 q 560 217 536 236 q 607 192 583 199 q 630 207 621 196 q 650 232 639 218 q 654 238 653 235 q 658 243 656 240 l 657 242 q 663 250 657 242 q 671 261 665 256 q 701 324 685 279 q 733 426 717 368 q 765 553 749 485 q 794 691 781 622 q 817 824 807 760 q 831 936 826 888 l 1124 907 m 846 918 q 832 808 842 871 q 809 678 822 746 q 779 543 796 611 q 746 417 763 475 q 713 315 729 358 q 683 251 697 271 q 648 203 665 228 q 607 174 631 179 q 540 213 572 181 q 479 282 507 246 q 418 392 446 325 q 367 543 390 458 q 328 728 344 628 q 301 936 311 828 l 17 883 q 112 578 69 706 q 193 358 154 450 q 272 206 232 267 q 358 101 311 144 q 463 25 406 57 q 597 -40 521 -7 q 685 -15 646 -33 q 761 39 724 4 q 824 122 790 65 q 890 251 857 178 q 956 410 924 325 q 1016 581 988 496 q 1067 747 1044 667 q 1103 892 1089 828 l 846 918 z "},"W":{"ha":1593,"x_min":-6,"x_max":1592,"o":"m 1571 906 q 1569 897 1569 903 l 1592 875 q 1556 727 1579 810 q 1504 556 1533 644 q 1442 380 1475 468 q 1374 217 1408 292 q 1306 85 1339 142 q 1243 1 1272 28 q 1163 -53 1204 -33 q 1069 -81 1122 -74 q 939 -16 994 -46 q 836 51 883 14 q 814 22 824 33 q 796 3 804 11 q 716 -52 757 -33 q 622 -79 675 -71 q 492 -17 549 -47 q 389 54 436 14 q 284 159 331 97 q 193 317 238 221 q 101 554 149 414 q -6 896 54 694 l 317 957 l 317 946 l 339 925 q 402 550 358 699 q 513 314 446 401 q 524 299 517 306 q 563 263 543 278 q 607 242 583 247 q 626 257 617 246 q 646 283 635 268 q 648 286 647 285 q 650 289 649 288 q 652 292 651 290 q 654 294 653 293 q 643 408 651 347 q 617 542 635 468 q 573 704 600 615 q 506 903 546 793 l 764 956 q 765 944 764 947 l 786 924 q 794 854 789 882 q 803 804 799 826 q 806 813 804 810 q 808 821 807 817 q 822 871 815 846 q 831 936 828 896 l 1129 907 l 1125 899 l 1149 876 q 1127 831 1140 858 q 1104 785 1114 804 q 1056 685 1081 738 q 1010 577 1031 633 q 976 463 989 521 q 963 344 963 404 q 963 326 963 335 q 964 307 963 318 q 1007 265 985 283 q 1054 240 1029 246 q 1075 256 1065 244 q 1096 283 1085 268 q 1101 290 1099 286 q 1106 296 1103 293 l 1117 311 l 1118 313 q 1148 373 1132 332 q 1180 467 1164 414 q 1212 581 1196 519 q 1241 706 1228 643 q 1264 827 1254 768 q 1278 935 1274 886 l 1571 906 m 1293 917 q 1279 811 1289 869 q 1256 691 1269 753 q 1226 568 1242 629 q 1193 454 1210 507 q 1160 361 1176 401 q 1129 301 1143 321 q 1093 253 1111 278 q 1053 224 1075 229 q 985 263 1017 231 q 925 331 953 294 q 935 485 918 408 q 981 634 953 563 q 1043 771 1010 706 q 1103 892 1076 836 l 846 918 q 838 867 843 889 q 826 822 833 844 q 811 773 819 800 q 793 707 803 746 q 780 763 786 740 q 768 810 774 786 q 758 862 763 833 q 749 935 753 890 l 528 890 q 593 696 567 783 q 636 536 619 608 q 661 403 653 464 q 671 290 669 343 q 640 249 656 268 q 606 225 625 229 q 537 265 569 232 q 476 333 504 297 q 365 568 408 421 q 301 936 321 715 l 17 883 q 112 578 69 706 q 193 358 154 450 q 272 206 232 267 q 358 101 311 144 q 463 25 406 57 q 597 -40 521 -7 q 685 -15 646 -33 q 761 39 724 4 q 783 64 772 50 q 808 97 794 78 q 913 24 857 56 q 1044 -42 969 -7 q 1132 -15 1093 -35 q 1208 38 1171 4 q 1270 119 1238 64 q 1337 249 1303 175 q 1403 408 1371 322 q 1465 579 1436 493 q 1515 746 1493 665 q 1550 890 1538 826 l 1293 917 z "},"X":{"ha":1104,"x_min":15,"x_max":1103,"o":"m 1079 315 l 1103 293 l 992 -42 q 797 60 890 -22 q 643 231 718 122 q 632 246 640 236 q 613 269 624 256 q 609 274 610 272 q 606 278 608 275 q 594 289 600 283 q 583 301 589 294 q 528 213 561 253 q 467 139 496 172 q 447 117 456 128 q 429 96 438 107 q 135 -43 325 -28 l 111 -19 q 108 -20 110 -19 q 106 -21 107 -21 l 15 297 q 119 308 64 297 q 222 340 174 319 q 305 392 269 361 q 349 463 340 422 q 353 549 353 500 q 342 622 353 586 q 315 692 332 657 q 278 761 299 728 q 236 828 257 794 l 238 828 l 221 853 q 191 902 206 875 q 153 979 176 929 l 406 1038 l 410 1025 l 429 1006 q 470 898 449 947 q 514 801 492 849 q 538 748 525 774 q 561 697 550 722 q 617 827 586 763 q 678 954 647 892 q 690 978 685 965 q 701 1004 694 992 q 713 1029 707 1017 q 725 1053 719 1042 l 993 1074 l 989 1067 l 1013 1043 l 868 774 l 869 774 q 852 731 863 756 q 831 681 842 707 q 796 599 811 639 q 781 529 781 560 q 790 483 781 504 q 811 443 799 463 l 819 431 q 825 422 822 425 q 938 347 868 369 q 1082 324 1007 324 l 1079 315 m 1058 307 q 983 313 1021 307 q 911 333 944 319 q 850 367 878 346 q 804 419 822 389 q 765 479 788 444 q 742 556 742 514 q 751 610 742 581 q 775 673 761 640 q 804 739 789 706 q 831 804 819 772 l 964 1056 l 736 1036 q 691 942 715 992 q 642 840 667 892 q 594 735 617 788 q 556 633 572 683 q 521 726 542 679 q 477 822 500 774 q 432 919 454 869 q 394 1017 410 968 l 176 967 q 232 869 199 918 q 296 768 265 819 q 348 662 326 717 q 369 549 369 607 q 365 457 369 496 q 322 381 356 414 q 240 326 288 349 q 139 292 193 304 q 38 281 85 281 l 118 -3 q 393 131 293 10 q 435 179 411 153 q 483 235 460 206 q 528 297 507 264 q 561 367 549 331 q 618 288 586 322 q 667 225 650 254 q 957 0 804 29 l 1058 307 z "},"Y":{"ha":1061,"x_min":10,"x_max":1050,"o":"m 133 329 q 227 311 181 317 q 319 306 274 306 q 481 324 413 306 q 418 420 456 368 q 337 526 381 472 q 248 633 293 581 q 162 728 203 685 q 88 805 121 772 q 38 853 56 838 l 236 990 q 290 926 257 965 q 362 840 322 888 q 444 737 401 792 q 527 626 488 682 q 601 515 567 569 q 658 413 636 460 q 668 421 664 417 q 679 431 672 425 q 828 901 828 608 q 819 1022 828 960 l 1006 996 q 1010 939 1008 967 q 1011 882 1011 911 q 900 400 1011 626 q 849 311 876 354 q 789 231 821 268 q 714 167 753 196 q 632 114 675 139 q 213 0 435 -3 l 133 329 m 117 328 l 199 -17 l 207 -17 l 229 -39 l 247 -39 q 665 76 472 -39 q 825 196 753 128 q 885 277 857 233 q 938 368 913 321 q 1050 856 1050 594 q 1049 913 1050 883 q 1043 981 1047 943 l 1022 1001 q 1022 1006 1022 1004 q 1021 1011 1021 1008 l 800 1042 q 808 965 806 1000 q 811 901 811 929 q 668 444 811 617 q 601 551 639 496 q 523 663 564 607 q 440 769 482 718 q 363 864 399 821 q 317 919 339 893 q 279 965 296 944 q 267 978 272 969 q 266 978 267 978 q 265 981 265 979 q 253 996 261 985 q 239 1013 244 1007 l 10 853 q 58 806 26 838 q 131 733 90 775 q 215 640 171 690 q 303 537 260 589 q 386 433 347 485 q 453 335 425 381 q 319 322 386 322 q 228 328 274 322 q 135 346 182 333 l 117 328 m 67 806 q 64 807 65 807 q 63 808 64 807 q 64 807 64 807 q 67 806 65 807 z "},"Z":{"ha":1071,"x_min":18,"x_max":1064,"o":"m 306 286 q 533 238 428 254 q 731 221 639 221 q 865 235 804 221 l 897 69 q 710 23 808 39 q 504 6 613 7 q 447 8 481 6 q 371 15 414 10 q 292 26 331 19 q 217 39 254 32 l 56 67 l 56 76 l 51 78 l 63 151 q 73 231 67 192 q 86 307 79 269 l 93 344 l 94 344 q 160 464 125 407 q 242 574 196 521 q 347 678 288 626 q 483 781 406 729 q 393 774 451 779 q 273 763 335 769 q 156 747 211 756 q 76 731 101 739 l 38 932 q 518 1010 244 1008 q 572 1008 542 1010 q 639 1003 603 1006 q 852 953 776 971 q 965 927 928 936 q 1010 915 1001 918 q 1022 911 1019 913 l 990 819 q 938 776 964 786 q 882 765 911 765 q 849 767 863 765 q 819 768 836 768 l 808 768 q 796 765 804 768 q 656 673 729 719 q 516 572 583 626 q 393 447 449 517 q 306 286 338 378 m 93 688 q 144 699 111 693 q 218 711 178 706 q 302 722 258 717 q 386 731 346 726 q 207 556 276 646 q 83 361 138 467 l 78 361 l 75 343 q 72 338 72 338 l 74 339 l 69 311 q 57 235 63 275 q 46 153 51 196 l 33 65 l 39 64 l 39 51 l 49 50 l 69 29 l 240 0 q 315 -13 276 -7 q 396 -24 353 -19 q 472 -31 439 -29 q 531 -33 506 -33 q 743 -15 642 -32 q 939 35 844 3 l 901 224 l 879 244 l 878 256 q 801 242 836 246 q 731 238 767 238 q 357 290 575 238 q 429 411 386 357 q 523 511 472 465 q 630 595 574 557 q 742 669 686 633 q 784 698 763 683 q 825 726 806 713 l 826 726 l 835 729 l 846 729 q 860 728 854 729 q 874 728 867 728 q 889 726 881 726 q 908 726 897 726 q 969 738 940 726 q 1026 785 999 749 l 1064 892 l 1040 914 l 1043 921 q 1024 928 1036 925 q 974 942 1013 932 q 860 969 936 951 q 646 1019 783 988 q 578 1024 610 1022 q 518 1026 546 1026 q 18 942 246 1025 l 64 708 q 67 709 65 708 q 69 710 68 710 l 93 688 z "},"[":{"ha":593,"x_min":35,"x_max":579,"o":"m 557 1021 l 579 999 l 576 722 l 542 722 q 475 712 499 722 q 421 686 451 701 l 422 686 q 410 680 417 683 q 397 674 404 676 q 353 644 369 658 q 331 614 338 631 q 322 576 324 597 q 321 525 321 554 q 320 483 321 504 q 318 442 319 463 q 316 403 317 422 q 315 364 315 383 q 319 299 315 329 q 339 242 324 268 q 404 202 363 218 q 513 183 446 186 q 554 182 514 182 q 553 178 554 179 q 553 175 553 176 l 576 151 q 569 84 571 114 q 567 31 567 54 q 567 -10 567 8 q 568 -43 567 -28 q 569 -63 568 -54 q 569 -79 569 -72 q 561 -123 569 -111 q 525 -135 553 -135 q 492 -131 510 -135 q 446 -122 474 -128 q 203 -12 301 -96 q 118 68 156 21 q 72 160 89 106 q 47 278 56 215 q 37 403 39 340 q 35 519 35 467 q 38 600 35 558 q 60 689 42 642 q 115 791 78 736 q 218 911 151 846 q 292 963 257 940 q 365 999 326 985 q 449 1022 403 1014 q 557 1029 494 1029 l 557 1021 m 540 1013 q 444 1006 485 1013 q 367 984 403 999 q 299 948 332 969 q 228 899 265 926 q 128 783 164 836 q 76 685 93 731 q 55 598 58 639 q 51 519 51 557 q 53 405 51 467 q 63 283 56 343 q 84 172 69 224 q 124 88 99 119 q 422 -83 226 -46 q 497 -96 474 -94 q 526 -83 519 -97 q 531 -35 533 -68 q 528 57 528 -1 q 536 165 528 100 q 507 167 508 165 q 390 188 435 171 q 321 234 346 206 q 287 299 296 263 q 276 376 278 335 q 278 462 275 417 q 282 551 282 507 q 283 606 282 583 q 293 647 285 629 q 318 679 301 664 q 365 711 335 694 q 406 733 389 724 q 442 750 424 743 q 482 760 460 757 q 538 761 504 763 l 540 1013 z "},"\\":{"ha":729,"x_min":-49,"x_max":751,"o":"m -21 988 l 207 944 q 263 864 242 907 q 305 765 285 821 q 351 635 325 708 q 422 462 378 561 q 533 235 465 363 q 704 -58 600 107 l 449 -104 l -21 988 m 439 -124 l 446 -122 l 468 -144 l 751 -94 q 589 179 654 58 q 479 394 524 300 q 408 561 435 489 q 361 690 381 633 q 335 762 347 729 q 310 823 324 794 q 280 877 296 851 q 243 926 264 903 q 229 943 236 935 q 215 960 222 951 l -49 1010 l 439 -124 z "},"]":{"ha":593,"x_min":35,"x_max":579,"o":"m 51 1013 q 148 1006 107 1013 q 224 984 189 999 q 293 948 260 969 q 364 899 326 926 q 463 783 428 836 q 516 685 499 731 q 537 598 533 639 q 540 519 540 557 q 538 405 540 467 q 529 283 536 343 q 508 172 522 224 q 468 88 493 119 q 169 -83 365 -46 q 95 -96 118 -94 q 65 -83 72 -97 q 61 -35 58 -68 q 64 57 64 -1 q 56 165 64 100 q 85 167 83 165 q 201 188 157 171 q 271 234 246 206 q 305 299 296 263 q 315 376 314 335 q 313 462 317 417 q 310 551 310 507 q 308 606 310 583 q 299 647 307 629 q 274 679 290 664 q 226 711 257 694 q 185 733 203 724 q 150 750 168 743 q 110 760 132 757 q 54 761 88 763 l 51 1013 m 38 744 l 46 744 l 68 722 l 103 722 q 168 713 144 722 q 221 688 192 703 l 222 686 q 234 680 228 683 q 247 674 240 676 q 258 667 253 671 q 268 661 264 664 q 290 617 286 642 q 293 551 293 592 q 294 510 293 531 q 296 468 294 489 q 298 429 297 449 q 299 390 299 410 q 291 315 299 350 q 260 251 283 279 q 194 206 238 224 q 79 183 150 188 q 38 182 78 182 q 45 113 43 144 q 47 57 47 82 q 47 17 47 35 q 46 -17 47 -1 q 45 -27 46 -22 q 44 -37 44 -32 l 44 -53 q 50 -92 44 -79 q 71 -110 56 -106 l 86 -125 q 119 -135 96 -135 q 153 -131 135 -135 q 199 -122 171 -128 q 374 -59 299 -103 q 503 53 450 -15 l 504 53 q 545 140 531 86 q 567 254 560 193 q 577 378 575 315 q 579 493 579 440 q 576 562 579 526 q 563 637 574 597 q 526 721 551 676 q 458 817 501 765 q 421 863 442 839 q 374 911 400 886 q 299 963 333 940 q 227 999 265 985 q 143 1022 189 1014 q 35 1029 97 1029 l 38 744 z "},"^":{"ha":1181,"x_min":-6,"x_max":1144,"o":"m 15 4 q 51 147 29 67 q 102 313 74 228 q 163 484 131 399 q 227 643 194 569 q 293 773 260 717 q 356 856 326 829 q 432 909 393 890 q 519 935 471 928 q 653 869 596 901 q 758 794 711 838 q 846 689 806 750 q 925 536 886 628 q 1006 316 964 444 q 1101 11 1049 188 l 817 -42 q 790 167 807 67 q 751 351 774 267 q 699 503 728 436 q 639 613 671 569 q 578 681 611 649 q 510 721 544 714 q 469 692 488 717 q 433 643 451 667 q 403 580 419 624 q 371 478 388 536 q 338 351 354 419 q 308 216 321 283 q 285 87 294 149 q 271 -22 275 25 l 15 4 m 832 -83 l 1144 -25 q 1057 258 1096 136 q 981 469 1018 379 q 909 624 944 560 q 833 733 874 688 q 772 803 804 772 q 701 858 739 833 q 619 906 664 883 q 522 951 575 928 q 425 924 467 943 q 344 868 383 904 q 281 783 314 840 q 213 649 247 725 q 146 485 179 574 q 83 308 113 396 q 31 137 54 219 q -6 -11 8 54 l 6 -12 l 26 -33 l 308 -62 q 322 48 313 -15 q 345 180 332 111 q 374 317 358 249 q 407 444 390 385 q 440 547 424 503 q 469 610 456 590 q 475 618 472 614 q 481 626 478 622 q 506 661 493 644 q 535 682 519 678 q 564 669 549 678 q 596 638 581 654 q 626 603 611 621 q 685 494 657 561 q 735 342 713 428 q 774 153 757 256 q 801 -62 790 50 l 810 -61 l 832 -83 z "},"_":{"ha":603,"x_min":-40,"x_max":667,"o":"m 613 -190 q 563 -187 597 -187 q 490 -186 529 -186 q 417 -187 451 -186 q 363 -187 382 -187 q 174 -201 267 -187 q -14 -243 82 -214 l -24 -65 q 149 -26 49 -35 q 199 -22 176 -24 q 239 -21 221 -21 l 331 -21 q 413 -22 369 -21 q 496 -26 456 -24 q 570 -35 536 -29 q 626 -50 604 -40 l 613 -190 m 1 -286 q 200 -240 106 -254 q 389 -226 294 -226 l 433 -226 q 473 -226 453 -226 q 517 -225 493 -225 q 588 -226 554 -225 q 636 -229 621 -226 l 651 -218 l 667 -68 l 643 -44 l 644 -39 q 581 -21 618 -28 q 501 -10 543 -14 q 414 -6 458 -7 q 331 -4 369 -4 l 239 -4 q 197 -6 219 -4 q 147 -10 175 -7 q -40 -54 42 -18 l -29 -265 q -25 -264 -26 -264 q -22 -262 -24 -264 l 1 -286 z "},"`":{"ha":379,"x_min":19,"x_max":386,"o":"m 49 1013 q 120 1053 78 1047 q 201 1036 163 1060 q 308 964 264 1001 q 346 915 339 936 q 328 860 353 894 q 275 824 301 828 q 213 843 249 821 q 182 858 196 851 q 156 873 168 865 q 130 890 143 881 q 101 914 117 900 q 75 933 90 924 q 49 954 60 943 q 37 979 39 965 q 49 1013 35 993 m 357 933 q 353 936 356 933 l 356 933 q 319 976 342 956 q 224 1043 282 1010 l 225 1043 q 138 1071 179 1071 q 83 1058 110 1071 q 35 1022 56 1046 l 35 1021 q 19 982 19 1000 q 33 948 19 963 q 64 921 46 933 l 67 919 q 94 897 79 906 q 108 885 101 890 q 121 875 114 881 q 173 835 149 849 q 229 807 197 822 l 232 806 q 294 785 265 785 q 364 825 332 785 q 386 878 386 858 q 378 906 386 893 q 357 933 371 918 z "},"a":{"ha":965,"x_min":26,"x_max":961,"o":"m 242 275 q 245 258 242 269 q 253 235 249 247 q 265 212 258 222 q 281 197 272 201 q 318 178 299 186 q 372 171 338 171 l 406 171 q 463 174 433 171 q 542 188 493 176 q 617 213 578 194 q 681 263 657 232 q 651 392 669 325 q 603 547 633 460 q 576 574 596 563 q 547 585 557 585 q 539 583 540 585 q 506 558 531 581 q 449 503 481 536 q 381 433 417 471 q 316 363 346 396 q 265 305 286 329 q 242 275 244 281 m 739 -7 l 739 -3 q 736 26 738 7 q 731 64 735 44 q 722 99 728 83 q 706 117 715 114 q 493 28 593 54 q 310 1 393 1 q 43 239 43 1 l 43 254 q 68 310 43 272 q 134 398 93 349 q 228 503 175 447 q 338 613 281 560 q 450 714 394 667 q 553 793 506 761 l 681 783 q 719 683 696 743 q 767 554 742 624 q 819 410 793 485 q 867 266 846 336 q 903 135 889 196 q 921 33 918 75 l 739 -7 m 336 -37 q 510 -13 415 -37 q 713 65 606 11 q 717 42 715 54 q 719 18 718 29 q 720 12 719 15 q 721 6 721 8 q 722 1 721 3 q 722 -3 722 0 l 722 -28 l 729 -25 l 753 -49 l 961 -3 q 947 91 958 36 q 916 209 935 146 q 874 340 897 272 q 828 472 851 407 q 781 597 804 538 q 740 704 758 657 q 727 739 733 721 q 715 769 721 757 l 696 788 l 692 800 l 550 810 q 444 728 501 776 q 328 625 386 681 q 216 512 271 569 q 119 403 161 454 q 52 313 78 353 q 26 254 26 274 l 26 239 q 122 29 26 89 q 336 -37 193 -37 m 281 244 q 308 278 286 253 q 358 335 329 303 q 421 403 388 367 q 485 469 454 439 q 538 521 515 500 q 569 544 561 542 q 574 546 571 546 q 586 542 578 546 q 631 392 614 458 q 661 265 649 326 q 603 226 638 242 q 538 204 569 211 q 460 190 489 193 q 406 188 432 188 l 372 188 q 325 193 342 188 q 293 208 308 199 q 285 228 288 219 q 281 244 282 238 m 283 213 l 289 207 q 283 213 285 208 z "},"b":{"ha":944,"x_min":10,"x_max":940,"o":"m 92 615 q 93 614 93 614 q 96 613 94 614 l 92 615 m 311 317 q 289 267 301 297 q 274 213 276 238 q 383 188 332 196 q 481 181 435 181 q 596 213 543 181 q 685 290 649 246 q 540 278 611 278 q 493 282 524 278 q 429 292 463 286 q 364 304 396 297 q 311 317 332 311 m 319 554 q 310 513 313 536 q 308 471 308 490 q 381 453 340 457 q 463 449 422 449 q 508 449 486 449 q 549 451 529 450 l 556 451 q 563 453 560 451 q 635 460 600 456 q 707 476 671 464 q 692 511 700 492 q 674 543 683 531 q 590 569 638 565 q 483 572 543 572 l 468 572 q 319 556 399 572 l 319 554 m 69 14 l 61 15 l 51 97 q 72 237 67 168 q 76 375 76 306 q 72 510 76 444 q 61 640 68 576 q 47 658 53 650 q 36 674 42 665 q 31 681 33 675 q 27 685 28 683 q 25 688 26 686 l 10 735 q 167 778 89 761 q 328 806 244 794 q 399 813 368 810 q 456 815 429 815 l 464 815 q 628 792 556 815 q 765 722 700 768 q 843 642 814 685 q 940 350 940 532 q 740 17 940 110 q 620 -24 685 -11 q 482 -36 556 -36 q 303 -28 407 -36 l 92 -7 l 69 14 m 279 358 q 331 346 299 353 q 399 333 364 339 q 465 322 433 326 q 514 317 497 317 q 743 351 629 317 q 704 287 729 319 q 645 226 679 254 q 569 181 611 199 q 481 164 528 164 q 238 206 372 164 q 237 241 233 219 q 248 285 240 263 q 264 328 256 308 q 279 358 272 349 m 442 611 q 577 606 518 611 q 678 565 636 601 q 707 519 693 550 q 728 468 721 488 q 651 444 692 450 q 564 436 610 439 q 491 433 531 435 q 412 434 451 432 q 335 445 372 436 q 272 474 299 454 q 270 485 271 481 q 269 497 269 490 q 272 540 269 517 q 281 582 274 564 l 281 593 q 442 611 363 611 m 278 11 q 456 3 382 3 q 708 54 601 3 q 901 376 901 146 q 756 710 901 599 q 620 777 693 754 q 456 799 547 800 q 400 796 431 799 q 329 789 369 793 q 176 763 249 778 q 32 724 103 747 l 42 693 q 58 670 50 682 q 78 647 67 658 q 89 513 85 581 q 93 375 93 446 q 88 235 93 304 q 68 94 83 165 l 76 31 l 278 11 z "},"c":{"ha":956,"x_min":26,"x_max":958,"o":"m 935 697 l 958 675 l 890 429 q 685 522 772 492 q 535 554 597 553 l 514 554 q 340 519 417 554 q 250 397 250 478 l 250 385 q 261 326 251 353 q 288 278 271 300 l 275 290 q 224 411 228 338 l 224 424 q 314 546 224 504 q 488 581 390 581 l 508 581 q 658 549 571 579 q 864 456 746 518 l 928 689 q 669 764 808 743 q 536 776 594 776 l 526 776 q 352 753 431 776 q 203 683 274 731 q 119 596 149 638 q 76 517 89 554 q 60 446 63 479 q 57 383 57 413 l 57 379 q 144 108 57 213 l 118 135 q 31 406 31 239 l 31 410 q 33 472 31 439 q 49 543 36 506 q 92 622 63 581 q 176 710 122 664 q 326 780 247 757 q 500 803 404 803 l 510 803 q 643 790 568 803 q 794 756 722 779 q 932 701 865 733 l 935 697 l 867 449 q 508 576 629 574 l 488 576 q 315 542 392 576 q 228 424 228 501 l 228 411 q 461 222 238 246 q 482 221 463 221 q 764 326 638 221 l 767 314 l 788 293 l 851 22 q 681 -23 764 -10 q 518 -36 599 -36 q 453 -34 479 -36 q 408 -29 428 -32 q 178 74 264 -4 q 115 132 142 99 q 26 406 26 238 l 26 410 q 29 472 26 439 q 46 544 32 506 q 90 624 60 582 q 174 713 119 667 q 324 784 244 761 q 500 807 403 807 l 510 807 q 643 794 568 807 q 798 760 725 783 q 938 704 871 738 l 935 697 m 917 694 q 642 778 796 754 q 510 790 567 790 q 190 704 319 792 q 105 615 135 657 q 61 535 75 572 q 45 466 47 499 q 43 406 43 433 q 128 143 43 244 q 385 10 215 39 q 430 5 404 7 q 492 3 456 3 q 651 15 572 3 q 810 56 731 28 l 753 297 q 482 204 639 204 q 456 206 457 204 q 211 410 221 231 q 308 557 203 510 q 508 593 396 597 q 856 474 635 590 l 917 694 z "},"d":{"ha":925,"x_min":7,"x_max":913,"o":"m 217 539 q 226 485 221 521 q 237 406 231 450 q 251 312 243 361 q 267 217 258 263 q 278 215 268 215 l 289 215 l 313 215 q 631 313 535 215 q 675 383 660 344 q 690 468 690 421 q 690 485 690 478 q 688 499 689 492 q 471 644 658 644 q 217 539 343 644 m 97 -19 q 90 27 94 -8 q 79 110 85 63 q 68 213 74 158 q 57 317 63 267 q 48 406 51 367 q 43 463 44 446 q 42 488 43 476 q 42 510 42 500 q 41 528 42 519 q 39 543 40 536 q 27 662 31 607 q 24 781 24 717 l 211 782 l 206 731 q 335 775 272 758 q 461 794 399 792 q 756 721 640 803 q 874 461 874 636 q 667 111 874 222 q 492 40 592 69 q 250 -6 392 10 l 97 -19 m 251 768 l 228 790 l 229 799 l 7 797 q 10 665 7 724 q 22 542 14 606 q 24 526 24 535 q 25 510 25 518 l 25 476 q 26 469 25 472 q 26 461 26 465 q 32 404 28 444 q 41 313 36 364 q 52 206 46 263 q 65 100 58 150 q 76 13 71 50 q 85 -37 81 -25 l 90 -36 l 114 -60 l 278 -44 q 522 1 421 -29 q 699 74 622 32 q 913 435 913 188 q 835 663 913 576 q 765 733 804 704 q 642 792 710 772 q 493 813 575 813 q 485 812 489 813 q 476 811 481 811 l 461 811 q 358 797 411 808 q 250 765 306 786 l 251 768 m 275 386 q 264 458 268 425 q 257 507 260 490 q 497 606 376 606 q 631 574 579 606 q 671 493 660 544 q 673 481 672 486 q 674 468 674 475 q 611 317 674 383 l 613 317 q 313 232 522 232 l 297 232 q 285 310 290 271 q 275 386 281 350 z "},"e":{"ha":942,"x_min":15,"x_max":944,"o":"m 476 815 q 534 813 503 815 q 606 806 565 810 q 767 778 689 794 q 924 735 844 763 l 921 728 l 944 706 l 872 460 q 518 531 660 531 q 292 463 368 531 q 274 444 282 453 q 260 426 267 435 q 368 413 310 413 q 669 493 507 413 l 674 479 l 693 461 l 757 281 q 595 231 669 247 q 461 215 521 215 q 362 221 413 215 q 261 240 311 226 q 453 181 325 181 q 804 264 596 181 l 806 253 l 828 232 l 871 8 q 792 -15 835 -8 q 683 -28 750 -21 q 503 -36 579 -36 q 365 -24 429 -36 q 246 17 301 -11 q 151 78 192 42 q 15 376 15 176 q 169 722 15 610 q 304 792 232 768 q 468 815 376 815 l 476 815 m 476 799 q 312 777 385 800 q 179 710 239 754 q 32 376 32 601 q 225 54 32 146 q 476 3 329 3 q 656 11 551 3 q 763 24 722 18 q 831 42 804 31 l 792 242 q 453 164 594 164 q 206 289 261 164 q 435 254 322 254 q 715 314 557 254 l 660 471 q 368 396 506 396 q 206 428 276 396 q 227 465 215 447 q 257 499 239 483 q 492 569 336 569 q 838 503 638 569 l 901 724 q 757 763 831 747 q 604 789 683 778 q 533 796 564 793 q 476 799 501 799 z "},"f":{"ha":925,"x_min":15,"x_max":928,"o":"m 904 704 l 928 682 l 861 481 q 724 541 788 518 q 603 576 660 564 q 498 591 547 588 q 406 594 449 594 q 269 557 311 594 l 268 557 q 239 467 242 531 q 304 471 269 471 l 414 471 q 491 469 454 471 q 565 460 528 467 q 643 442 603 454 q 732 408 683 429 l 728 404 l 751 381 l 610 231 q 580 240 596 235 q 553 249 564 246 q 486 268 514 261 q 425 275 458 275 q 411 276 418 276 q 399 276 406 276 q 366 275 382 276 q 335 272 350 274 q 306 270 319 271 q 279 269 292 269 l 269 269 q 313 144 289 203 q 364 25 336 85 l 124 -24 l 101 -1 l 94 -3 q 15 467 15 272 l 15 476 q 440 832 19 832 l 446 832 q 531 828 489 832 q 619 818 574 825 q 790 778 719 803 q 907 710 861 753 l 904 704 m 886 704 q 780 763 846 740 q 618 801 714 786 q 530 812 572 808 q 446 815 488 815 q 32 476 36 817 q 107 18 29 282 l 319 61 q 269 178 293 119 q 226 307 246 236 q 239 308 228 308 l 253 308 q 323 313 285 308 q 400 314 361 317 q 442 311 422 314 q 481 303 461 308 q 524 290 501 297 q 579 272 547 282 l 703 403 q 605 436 650 425 q 515 451 560 447 q 419 455 469 456 q 304 454 368 454 q 249 451 275 454 q 201 444 224 449 q 200 458 200 447 l 200 475 q 235 593 200 558 q 379 633 279 633 q 473 630 424 633 q 578 615 522 626 q 695 583 633 604 q 826 525 757 561 l 886 704 z "},"g":{"ha":965,"x_min":26,"x_max":961,"o":"m 718 510 q 921 33 907 278 l 721 10 q 719 25 719 17 q 718 40 718 33 q 717 57 718 49 q 715 75 717 65 q 493 19 593 38 q 310 1 393 1 q 43 254 35 1 q 56 337 44 285 q 94 449 68 389 q 160 572 119 510 q 260 683 201 633 q 399 765 319 733 q 579 794 478 796 l 642 663 q 494 637 557 663 q 386 572 432 611 q 310 482 340 532 q 263 384 281 432 q 238 294 244 336 q 231 226 231 251 q 236 190 231 200 q 333 146 265 146 q 511 197 410 146 q 592 240 554 217 q 667 290 631 264 q 629 385 647 349 q 593 444 611 421 l 718 510 m 569 450 q 608 387 589 424 q 646 294 626 350 q 578 252 613 272 q 504 213 543 232 q 333 163 404 163 q 269 178 296 163 l 269 200 q 276 265 269 224 q 301 353 283 306 q 350 448 319 400 q 427 535 381 496 q 538 599 474 575 q 688 624 601 624 l 614 781 l 596 797 l 590 811 l 571 811 q 388 778 468 811 q 248 694 308 746 q 147 579 188 643 q 79 453 106 515 q 40 338 53 392 q 26 254 28 285 l 26 239 q 122 29 26 89 q 336 -37 193 -37 q 701 22 489 -37 q 706 -8 701 4 l 713 -7 l 736 -31 l 961 -4 q 756 490 947 251 q 740 510 747 501 q 724 531 732 519 l 569 450 z "},"h":{"ha":1029,"x_min":22,"x_max":954,"o":"m 357 800 q 353 796 354 797 q 351 793 353 794 l 375 769 q 311 680 333 721 q 278 601 289 639 q 266 526 268 564 q 264 447 264 489 l 264 415 q 308 412 282 413 q 381 411 335 411 q 435 414 399 411 q 511 424 471 417 q 524 543 515 494 q 544 628 532 592 q 574 697 557 665 q 613 767 590 729 q 626 788 618 775 q 639 810 633 800 l 914 763 l 908 757 l 932 733 q 874 667 904 706 q 817 588 844 629 q 767 506 789 546 q 732 438 744 467 q 893 508 776 449 l 894 496 l 917 475 l 954 278 q 844 241 900 258 q 714 210 788 224 l 714 108 q 716 19 714 64 q 721 -46 718 -25 l 544 -25 l 524 -4 l 514 -3 q 508 52 511 13 q 501 133 504 92 q 501 145 501 140 q 500 157 500 150 q 499 178 499 168 q 497 197 499 188 l 461 197 q 421 199 440 197 q 382 201 401 200 q 345 203 363 203 q 308 204 328 204 q 297 206 300 204 l 294 207 q 298 168 296 190 q 304 122 300 146 q 315 75 308 99 q 333 31 322 51 q 365 4 344 15 l 356 1 l 379 -21 l 175 -62 q 147 -44 161 -58 l 140 -37 q 94 10 114 -26 q 62 96 75 47 q 41 200 49 144 q 29 306 33 256 q 24 394 25 356 q 22 447 22 432 q 24 461 22 457 q 25 551 24 508 q 33 637 26 594 q 51 722 39 679 q 86 811 64 764 l 357 800 m 97 794 q 63 703 75 747 q 47 613 51 658 q 41 518 42 567 q 40 414 40 469 q 40 454 40 451 q 40 435 39 457 q 42 374 40 414 q 47 284 43 333 q 59 183 51 235 q 78 88 67 132 q 108 14 90 44 q 149 -24 125 -17 l 318 11 q 289 50 300 22 q 271 113 278 78 q 260 182 264 147 q 256 242 257 217 q 282 243 256 243 q 357 240 319 243 q 435 236 394 236 l 461 236 l 497 238 q 511 239 510 238 q 515 192 513 225 q 519 123 517 160 q 524 55 521 86 q 529 13 526 24 l 679 -6 q 676 49 676 7 q 675 135 675 90 l 675 193 l 675 247 q 811 277 757 261 q 914 311 865 293 l 881 483 q 722 418 765 426 q 688 446 679 410 q 714 511 693 471 q 763 596 735 551 q 822 682 790 640 q 881 751 853 724 l 649 792 q 599 706 621 743 q 563 630 578 669 q 540 540 549 590 q 526 410 531 489 q 444 399 486 403 q 381 394 403 394 q 321 395 344 394 q 280 398 297 396 q 251 403 263 400 q 226 414 239 407 q 222 421 222 415 q 224 431 222 428 q 225 440 225 435 q 226 533 225 490 q 235 616 226 575 q 263 698 243 657 q 322 785 283 739 l 97 794 z "},"i":{"ha":938,"x_min":11,"x_max":933,"o":"m 894 60 q 622 7 796 24 q 535 2 574 4 q 467 0 496 0 q 32 51 186 3 l 83 256 q 201 217 139 233 q 339 189 264 201 q 379 326 365 256 q 393 476 393 396 q 392 520 393 499 q 388 561 390 542 q 247 553 313 558 q 118 542 181 549 l 86 681 q 311 726 144 711 q 393 731 356 729 q 460 733 431 733 q 836 692 739 731 l 786 503 q 676 536 733 522 q 547 557 618 550 q 569 465 563 513 q 575 364 575 417 q 570 274 575 319 q 556 181 565 229 q 856 206 715 189 l 894 60 m 614 338 q 609 430 614 386 q 590 515 604 474 q 709 494 653 508 q 821 460 765 479 l 878 672 l 854 694 l 857 701 q 460 750 740 749 q 392 748 431 750 q 310 743 354 746 q 163 722 222 736 q 67 690 103 708 l 106 524 l 111 524 l 135 501 q 249 513 189 508 q 375 521 310 518 q 376 499 376 510 q 376 476 376 488 q 364 338 376 404 q 329 207 351 271 q 192 238 254 221 q 71 278 129 254 l 11 40 l 24 36 l 43 17 q 493 -39 210 -36 q 562 -37 522 -39 q 650 -32 601 -35 q 925 22 825 -15 l 933 36 l 892 193 l 871 214 l 868 224 q 741 210 810 215 q 601 200 672 204 q 614 338 614 271 z "},"j":{"ha":879,"x_min":22,"x_max":878,"o":"m 142 113 q 133 120 138 117 q 126 128 129 124 q 147 106 133 117 l 142 113 m 357 206 q 422 163 390 172 q 482 154 454 154 q 492 155 488 154 q 501 156 497 156 l 517 156 q 535 157 525 157 q 553 157 544 157 q 590 164 579 157 q 646 271 646 185 q 585 538 646 375 q 526 665 557 608 q 454 768 494 722 l 774 815 q 776 806 774 811 l 797 785 q 874 401 865 535 q 878 328 878 357 q 690 -21 878 38 q 549 -42 625 -42 q 446 -40 493 -42 q 357 -28 399 -37 q 278 1 315 -18 q 204 51 240 19 q 176 74 189 63 q 147 101 163 86 q 105 144 122 126 q 74 184 88 163 q 49 236 61 206 q 22 315 36 267 l 301 397 q 302 392 301 394 q 303 386 303 389 l 325 365 q 330 334 328 353 q 333 304 332 315 q 340 252 336 276 q 353 208 343 228 q 353 208 353 208 q 356 207 354 207 l 357 206 m 346 194 q 317 227 326 208 q 302 269 307 246 q 295 318 297 292 q 289 375 293 344 l 44 304 q 67 235 57 261 q 90 189 78 208 q 119 153 103 169 q 158 113 135 136 q 237 49 197 72 q 319 15 276 26 q 413 0 363 3 q 522 -3 463 -3 q 660 18 594 -3 q 839 354 839 75 q 835 426 839 382 q 813 584 831 493 q 761 797 794 675 l 488 757 q 544 672 517 725 q 600 543 571 618 q 663 271 663 378 q 608 153 663 174 q 582 143 596 146 q 553 140 568 140 q 505 138 529 140 q 456 139 481 136 q 403 153 431 142 q 346 194 376 165 z "},"k":{"ha":964,"x_min":-25,"x_max":981,"o":"m 407 82 q 413 78 410 79 l 407 82 m 835 717 q 833 713 833 714 q 831 710 832 713 l 854 688 q 824 633 840 664 q 796 579 807 603 q 744 481 769 528 q 690 394 718 435 q 628 319 661 353 q 556 261 596 286 q 544 246 544 254 q 547 231 544 236 q 595 201 567 214 q 656 189 624 189 q 659 188 658 189 q 663 188 660 188 l 669 188 q 697 183 686 183 q 715 186 708 183 q 719 190 717 188 q 724 193 722 192 q 733 200 729 197 q 741 210 738 203 q 748 228 744 217 q 754 263 751 240 l 939 210 q 957 189 956 200 l 975 172 q 981 156 981 167 q 963 114 981 138 q 925 65 946 90 q 913 51 918 58 q 903 38 908 44 q 858 1 885 17 q 799 -23 831 -14 q 731 -37 767 -32 q 660 -42 694 -42 l 633 -42 q 531 -4 578 -28 q 429 61 474 24 q 383 99 404 79 q 347 143 363 119 q 329 103 339 122 q 313 69 319 83 q 297 45 304 56 q 285 28 290 35 l 286 28 q 271 3 276 13 q 258 -14 265 -6 q 238 -33 250 -22 q 206 -61 226 -43 l 10 39 l -4 53 l -25 64 q 38 133 13 93 q 80 216 64 172 q 104 303 96 260 q 114 381 113 346 q 115 402 114 392 q 117 424 115 413 l 117 428 q 119 456 118 443 q 119 485 119 469 q 101 590 119 535 q 24 721 83 646 l 299 807 q 306 792 300 799 l 322 775 q 360 643 353 711 q 369 510 367 575 q 370 468 371 489 q 372 428 369 447 q 445 481 408 438 q 513 580 482 525 q 563 689 543 635 q 586 772 583 743 l 835 717 m 601 751 q 576 663 599 719 q 517 549 553 606 q 440 451 482 493 q 357 410 397 410 q 344 419 346 410 q 336 439 343 428 q 331 523 332 478 q 326 614 329 568 q 315 703 324 660 q 289 786 307 747 l 53 711 q 109 620 92 663 q 132 538 126 578 q 135 460 138 499 q 131 381 132 422 q 122 300 129 344 q 99 213 114 256 q 62 131 85 169 q 6 68 39 93 l 176 -19 q 210 11 200 1 q 228 31 221 21 q 245 56 236 42 q 275 103 254 71 q 308 169 293 132 q 333 229 322 206 q 392 115 342 163 q 510 33 443 68 q 557 13 533 22 q 610 -3 581 4 q 685 -1 647 -4 q 757 12 722 3 q 820 36 792 21 q 867 72 849 51 q 897 110 881 90 q 926 147 914 131 q 941 176 938 164 q 935 193 944 189 l 767 240 q 760 210 764 221 q 752 192 757 199 q 740 182 747 186 q 724 172 733 178 q 692 167 708 165 q 656 172 675 169 q 588 188 621 172 q 533 223 556 203 q 506 265 511 243 q 522 299 501 286 q 609 372 572 329 q 678 467 646 414 q 742 580 711 519 q 808 706 772 640 l 601 751 z "},"l":{"ha":921,"x_min":11,"x_max":921,"o":"m 50 263 q 97 296 82 265 q 111 381 111 326 q 98 519 111 438 q 63 706 85 601 l 344 754 q 346 743 344 747 l 367 722 q 369 683 368 707 q 371 644 371 660 q 353 460 371 549 q 319 296 336 371 q 310 260 314 276 q 303 229 306 244 q 435 252 364 238 q 579 288 507 267 q 717 333 651 308 q 833 386 783 358 l 836 374 l 857 353 l 921 72 q 773 27 850 44 q 614 0 696 10 q 535 -8 569 -6 q 471 -10 500 -10 q 246 8 353 -8 q 43 56 139 24 l 24 75 l 11 79 l 50 263 m 32 90 q 224 45 122 60 q 444 29 326 31 q 507 31 472 29 q 586 39 542 33 q 879 106 753 58 l 822 360 q 698 305 771 331 q 547 258 625 279 q 392 224 468 238 q 257 207 315 211 q 277 308 263 249 q 306 436 292 367 q 328 582 319 506 q 329 733 336 658 l 83 693 q 115 520 103 597 q 128 381 128 443 q 113 284 128 318 q 65 247 99 250 l 32 90 z "},"m":{"ha":1368,"x_min":-8,"x_max":1375,"o":"m 13 4 q 42 117 24 54 q 85 246 61 179 q 138 379 110 313 q 195 503 167 446 q 252 603 224 560 q 306 668 281 647 q 373 710 339 696 q 447 731 407 725 q 561 679 514 703 q 650 622 608 656 q 672 649 663 638 q 692 668 681 660 q 758 709 724 694 q 832 729 792 724 q 947 678 897 703 q 1038 619 997 653 q 1113 538 1078 585 q 1181 419 1147 490 q 1251 247 1215 347 q 1332 8 1288 147 l 1086 -32 q 1031 256 1068 143 q 936 438 994 369 q 884 491 913 467 q 825 522 856 515 q 795 503 807 519 q 768 472 783 488 q 772 382 764 429 q 798 278 781 335 q 840 155 815 222 q 893 4 865 88 l 703 -32 q 694 24 699 1 q 685 66 690 47 q 675 103 681 85 q 664 146 669 121 q 648 96 656 117 q 634 57 640 75 q 624 22 628 39 q 618 -18 619 4 l 397 3 q 447 100 419 46 q 497 212 474 154 q 536 328 521 269 q 550 442 551 388 q 499 492 526 468 q 442 524 471 517 q 406 501 422 519 q 375 463 390 482 q 334 383 357 440 q 290 254 311 325 q 253 110 269 183 q 233 -17 238 38 l 13 4 m 404 -35 l 656 -58 q 662 -7 658 -28 q 672 35 665 14 q 680 -2 676 18 q 688 -53 683 -22 l 696 -51 l 718 -74 l 936 -32 q 908 47 924 6 q 882 119 893 88 q 827 285 849 214 q 806 418 806 356 l 806 440 q 817 453 811 446 q 828 465 824 461 q 850 483 838 479 q 881 469 863 479 q 924 426 903 449 q 1017 245 981 360 q 1071 -50 1053 131 l 1078 -49 l 1101 -72 l 1375 -28 q 1303 187 1336 94 q 1240 349 1269 279 q 1180 469 1210 419 q 1118 556 1150 518 q 1061 617 1090 590 q 997 666 1032 644 q 922 706 963 688 q 833 746 882 725 q 752 724 789 739 q 681 681 715 708 q 646 646 663 667 q 558 699 604 676 q 450 747 513 721 q 367 726 404 742 q 294 681 331 711 q 240 614 269 658 q 181 510 211 569 q 123 381 151 450 q 69 242 94 311 q 23 107 43 172 q -8 -11 3 42 l 1 -11 l 24 -33 l 271 -57 q 290 73 275 -1 q 326 219 306 147 q 370 348 347 290 q 411 428 393 406 l 410 428 q 415 433 413 431 q 419 439 417 436 q 442 467 431 454 q 467 483 453 479 q 504 465 488 476 q 519 450 511 458 q 533 435 526 442 l 533 432 q 520 331 533 383 q 487 227 507 279 q 442 126 467 175 q 396 36 418 78 q 391 28 397 42 q 381 7 385 15 l 371 -12 l 383 -14 l 404 -35 z "},"n":{"ha":915,"x_min":-26,"x_max":894,"o":"m -11 29 l -26 32 q 19 91 -3 53 q 58 176 40 129 q 90 274 76 224 q 115 371 104 325 q 131 452 125 417 q 136 504 136 488 q 135 578 136 547 q 132 640 135 608 q 124 709 129 671 q 113 806 119 747 l 222 814 l 361 799 q 430 737 394 771 q 500 669 465 703 q 566 602 535 635 q 621 543 597 569 q 631 532 626 538 q 642 521 636 526 l 642 535 q 637 605 642 565 q 624 682 632 644 q 603 750 615 719 q 578 793 592 781 l 817 835 q 820 828 819 832 q 824 821 821 825 l 842 804 q 872 722 861 776 q 888 596 882 667 q 894 444 893 525 q 894 285 894 364 q 886 101 894 188 q 843 -42 878 14 l 608 -25 l 586 -3 l 574 -3 q 624 73 608 38 q 639 139 639 108 q 623 221 639 179 q 578 303 607 263 q 511 383 550 344 q 428 454 472 421 q 371 490 399 475 q 369 442 369 465 q 368 394 369 418 q 363 273 365 332 q 352 159 360 214 q 330 55 344 104 q 290 -36 315 6 l 10 8 l -11 29 m 810 -3 q 834 56 825 22 q 848 131 843 90 q 854 217 853 171 q 856 311 856 263 q 855 470 856 390 q 849 619 854 550 q 835 740 844 688 q 810 817 826 793 l 614 782 q 636 732 626 771 q 651 647 646 693 q 658 555 657 600 q 656 485 660 510 q 626 519 656 488 q 553 597 597 551 q 455 692 508 642 q 354 782 401 742 l 222 797 l 131 790 q 142 700 138 736 q 149 634 146 664 q 152 575 151 604 q 153 504 153 546 q 148 452 153 488 q 135 371 143 417 q 114 275 126 325 q 85 179 101 225 q 51 97 69 133 q 13 43 33 61 l 257 4 q 299 112 285 51 q 319 240 313 172 q 327 383 325 308 q 333 538 329 458 q 490 428 417 493 q 606 292 563 364 q 655 148 650 221 q 608 13 660 75 l 810 -3 z "},"o":{"ha":956,"x_min":18,"x_max":951,"o":"m 553 165 q 680 227 640 186 q 719 343 719 268 q 718 372 719 358 q 714 400 717 386 q 472 585 675 585 q 236 515 351 585 q 218 408 224 457 q 213 317 213 358 q 225 238 213 264 q 258 189 238 211 q 414 146 301 146 q 553 165 478 146 m 265 747 q 365 760 310 758 q 475 763 419 763 l 547 763 q 913 435 913 763 l 913 421 q 832 135 908 228 q 657 28 774 64 q 431 -1 565 -1 q 226 28 307 -1 q 76 167 124 65 q 36 363 36 251 q 35 386 36 374 q 35 414 35 399 q 38 458 35 436 q 50 507 42 481 q 100 618 74 576 q 155 684 126 660 q 211 722 183 708 q 265 747 239 735 m 261 764 l 260 763 l 249 757 q 239 753 244 756 q 185 726 213 740 q 132 687 158 713 q 81 619 106 661 q 33 513 56 578 q 22 463 25 486 q 18 414 18 439 q 19 406 18 410 q 19 397 19 401 l 19 363 q 61 160 19 244 q 156 46 94 86 q 249 -10 194 10 q 457 -40 332 -40 q 688 -11 596 -40 q 868 100 807 25 q 951 394 947 196 l 951 408 q 871 650 951 565 q 547 779 778 779 l 475 779 q 362 777 418 779 q 261 764 306 775 m 549 182 q 414 163 474 163 q 276 193 315 163 l 278 193 q 273 198 275 196 q 268 203 271 200 q 256 238 260 218 q 251 290 251 258 q 256 377 251 331 q 274 481 261 424 q 499 546 385 546 q 638 511 585 546 q 697 396 681 471 q 701 369 700 382 q 703 343 703 356 q 667 238 703 275 q 549 182 631 201 z "},"p":{"ha":946,"x_min":11,"x_max":938,"o":"m 519 371 q 557 380 539 374 q 590 393 575 386 q 660 485 660 426 q 659 488 660 486 q 658 492 658 489 l 658 497 q 640 535 654 519 q 624 544 629 540 q 578 559 601 554 q 528 564 556 564 l 510 564 q 516 486 514 532 q 519 400 518 440 l 519 371 m 140 17 q 192 117 167 57 q 237 244 217 176 q 272 384 257 313 q 294 521 286 456 q 203 479 249 503 q 111 426 158 456 l 88 450 q 82 446 85 449 l 11 690 q 304 793 126 767 q 456 806 385 806 l 467 806 q 757 747 636 806 q 878 650 839 707 q 938 493 938 586 l 938 489 q 813 258 935 342 q 542 179 697 179 l 514 179 q 425 -40 486 38 l 174 -7 l 151 15 l 140 17 m 482 603 q 603 582 549 607 q 675 499 669 554 q 597 378 683 418 q 483 350 547 356 q 481 396 482 364 q 479 465 481 428 q 476 540 478 503 q 469 601 474 576 q 482 603 471 603 m 318 576 q 301 433 314 511 q 267 280 288 356 q 222 138 247 204 q 168 29 197 71 l 394 0 q 478 219 451 74 q 496 218 479 218 l 515 218 q 779 294 669 218 q 899 515 896 375 q 750 732 901 661 q 456 789 625 790 q 306 776 386 789 q 150 740 218 763 q 32 685 82 718 l 93 474 q 318 576 201 543 z "},"q":{"ha":956,"x_min":18,"x_max":951,"o":"m 344 335 q 353 325 347 331 l 344 335 m 399 182 q 456 170 428 175 q 511 163 483 165 q 481 210 500 188 q 439 251 461 232 q 428 260 433 256 q 418 268 422 264 q 388 292 400 279 q 365 310 376 300 q 338 336 353 321 l 539 413 q 585 372 558 401 q 640 307 613 342 q 671 267 656 288 q 700 229 686 247 q 718 317 718 260 q 697 496 718 392 q 503 546 599 546 q 272 371 310 546 q 267 317 267 343 q 285 235 267 265 q 399 182 321 201 m 313 -11 q 160 69 217 18 q 104 124 128 93 q 42 247 64 174 q 18 421 21 321 l 18 435 q 401 779 18 779 l 472 779 q 588 777 532 779 q 688 764 643 775 l 707 754 q 778 715 742 738 q 850 642 814 692 q 895 579 874 617 q 936 485 917 542 l 935 486 q 949 435 947 458 q 951 388 951 411 q 951 372 951 379 q 950 358 950 365 l 950 336 q 908 135 950 214 q 852 53 886 86 q 775 -1 818 19 l 775 -10 q 776 -18 775 -14 q 776 -26 776 -22 q 774 -80 776 -47 q 768 -132 772 -112 l 594 -161 l 572 -139 l 564 -140 l 564 -40 l 544 -40 q 313 -11 404 -40 m 394 165 q 267 227 307 186 q 228 343 228 268 q 233 400 228 372 q 476 585 272 585 q 711 515 596 585 q 729 408 724 457 q 735 317 735 358 q 724 242 735 268 q 694 194 714 217 q 672 235 690 207 q 628 295 653 264 q 578 354 604 326 q 535 393 553 382 l 365 331 q 402 301 375 319 q 457 258 429 282 q 508 205 485 233 q 533 146 531 176 q 394 165 472 146 m 731 -94 q 735 -49 733 -79 q 738 0 738 -19 q 737 17 738 8 q 736 33 736 25 q 871 167 828 74 q 911 363 911 244 q 912 386 911 374 q 913 414 913 399 q 910 458 913 436 q 897 507 908 481 q 847 617 874 575 q 792 683 819 658 q 738 722 765 708 q 683 747 710 735 q 585 760 639 758 q 472 763 531 763 l 401 763 q 35 435 35 763 l 35 421 q 117 135 40 229 q 290 28 171 65 q 518 -1 382 -1 l 535 -1 l 549 -1 l 561 -1 l 568 -1 q 578 0 575 -1 q 581 -29 581 -14 l 581 -64 l 581 -82 l 581 -119 l 731 -94 z "},"r":{"ha":942,"x_min":0,"x_max":943,"o":"m 472 615 q 301 551 326 615 q 297 522 297 539 q 293 480 297 506 q 293 431 289 454 q 318 394 297 408 q 389 386 339 379 q 454 422 418 399 q 528 474 490 446 q 603 532 565 501 q 676 589 642 563 q 566 608 617 601 q 472 615 515 615 m 481 794 q 537 793 506 794 q 606 789 568 792 q 758 772 685 782 q 901 746 831 763 q 879 648 888 689 q 867 578 871 607 q 861 532 863 550 q 860 503 860 514 q 856 479 860 488 q 788 441 829 465 q 703 390 747 417 q 619 338 660 363 q 556 301 579 314 q 885 210 718 239 l 826 6 q 581 96 693 40 q 378 210 469 151 q 262 102 311 160 q 172 0 213 44 l 25 111 q 110 213 88 164 q 133 303 133 261 q 124 425 133 361 q 111 565 115 489 q 233 749 107 689 q 344 783 282 772 q 481 794 406 794 m 481 811 q 340 800 403 811 q 226 764 276 789 q 94 574 94 703 l 94 564 q 100 497 97 529 q 106 436 103 465 q 106 428 106 432 q 107 421 107 425 q 114 360 111 389 q 117 303 117 331 q 92 217 117 265 q 0 111 68 169 l 24 93 l 32 85 l 201 -43 q 224 -17 211 -32 q 247 10 236 -1 q 319 90 281 49 q 403 168 358 132 q 608 55 494 110 q 861 -36 722 0 l 928 193 l 904 215 l 907 222 q 768 250 836 233 q 633 290 700 267 q 680 318 656 303 q 732 349 704 333 q 818 402 776 376 q 892 443 860 428 q 899 476 899 460 q 900 506 899 488 q 906 553 901 524 q 919 626 910 583 q 943 729 928 668 l 921 751 q 922 758 921 756 q 766 788 843 778 q 607 806 689 799 q 538 810 569 808 q 481 811 507 811 m 329 426 q 331 445 329 433 q 333 467 332 457 q 335 481 335 474 q 336 496 336 489 q 340 521 336 508 l 339 521 q 499 576 361 576 q 619 564 553 576 q 610 558 615 561 q 601 551 606 554 q 590 543 596 547 q 579 535 585 539 q 476 458 526 494 q 382 401 425 421 l 361 401 q 331 407 340 401 q 329 426 329 413 z "},"s":{"ha":933,"x_min":18,"x_max":928,"o":"m 556 349 q 652 308 608 324 q 728 285 696 292 q 747 280 733 283 q 776 272 760 276 q 810 261 793 267 q 839 250 826 256 l 843 240 l 863 221 l 917 90 l 928 42 q 906 31 924 40 q 856 11 888 22 q 778 -12 824 0 q 678 -33 733 -25 q 632 -36 661 -35 q 572 -39 603 -37 q 515 -41 542 -40 q 478 -42 489 -42 q 247 -28 351 -42 q 50 25 142 -15 l 32 42 q 25 45 29 44 q 18 49 21 46 l 60 239 q 118 224 78 233 q 207 204 158 214 q 308 188 256 194 q 407 181 361 181 l 439 181 q 352 238 390 208 q 282 294 314 267 q 177 399 219 346 q 107 508 135 451 l 100 508 l 96 529 l 96 532 l 93 551 q 90 566 92 558 q 86 581 89 574 q 85 586 85 583 q 83 593 85 590 q 77 619 81 606 q 74 650 74 633 q 101 720 74 686 q 207 782 128 754 q 267 792 235 789 q 336 799 300 796 q 401 803 372 801 q 451 806 431 806 q 811 751 646 804 l 810 744 l 832 722 l 799 567 q 733 580 763 578 q 674 582 704 582 l 582 582 q 504 581 544 582 q 428 574 464 579 q 364 561 393 569 q 321 539 335 553 q 346 486 326 514 q 556 349 411 413 m 549 333 q 281 569 314 439 q 344 603 299 592 q 443 618 389 614 q 552 622 497 622 q 647 621 607 621 q 708 619 679 621 q 763 610 738 617 l 790 739 q 451 789 638 788 q 403 787 432 789 q 338 782 374 785 q 269 775 303 779 q 204 764 236 771 q 120 718 144 743 q 92 666 96 693 q 96 610 88 639 q 110 556 104 582 l 115 525 l 118 525 q 170 435 139 479 q 247 347 201 390 q 354 261 293 304 q 497 174 415 218 q 388 164 451 161 q 260 176 324 167 q 145 198 197 186 q 72 217 93 210 l 39 58 q 224 10 122 22 q 451 -3 325 -3 q 489 -2 463 -3 q 545 0 515 -1 q 604 3 575 1 q 650 6 633 4 q 747 25 704 14 q 820 47 790 36 q 867 65 850 57 q 886 75 883 74 l 876 118 l 826 238 q 801 247 817 242 q 770 256 786 251 q 742 263 754 260 q 724 268 729 267 q 647 291 692 275 q 549 333 601 307 z "},"t":{"ha":949,"x_min":10,"x_max":950,"o":"m 522 782 q 504 726 511 757 q 490 658 497 696 q 665 642 563 651 q 910 614 768 632 l 881 414 q 482 481 686 463 q 519 361 493 411 q 550 323 532 343 q 592 289 568 303 q 709 233 644 257 q 861 206 774 208 l 810 0 q 408 164 543 8 q 326 318 347 233 q 314 401 318 358 q 313 493 310 444 l 300 493 l 289 493 l 268 493 l 226 493 q 135 492 176 493 q 63 486 94 490 l 31 607 q 333 657 160 642 q 383 800 356 747 l 522 782 m 374 818 q 345 753 358 789 q 319 672 332 718 q 158 651 236 665 q 10 618 81 638 l 50 468 l 56 468 l 79 446 q 161 453 118 451 q 253 454 204 454 l 294 454 q 299 380 294 414 q 310 314 303 346 q 396 153 331 226 q 471 83 431 111 q 632 -5 539 25 q 846 -39 725 -35 l 904 192 l 881 214 l 883 222 q 719 249 785 225 q 600 304 653 272 q 558 336 576 318 q 556 342 558 336 l 557 340 q 537 386 544 361 q 524 440 529 411 q 721 414 624 431 q 917 372 818 397 l 950 599 l 926 622 l 928 629 q 728 652 821 643 q 569 668 636 661 q 553 669 561 669 q 536 669 544 669 q 549 718 542 694 q 567 765 556 742 l 543 788 q 545 791 544 790 q 547 794 546 792 l 374 818 z "},"u":{"ha":940,"x_min":0,"x_max":938,"o":"m 117 18 q 119 51 117 21 q 124 126 121 82 q 131 221 128 169 q 138 317 135 272 q 144 392 142 361 q 146 426 146 424 q 124 572 146 501 q 32 706 103 642 l 203 769 q 280 642 251 699 q 319 526 308 585 q 322 396 329 467 q 293 225 315 325 q 415 191 353 186 q 539 233 476 196 q 588 259 563 232 q 637 331 613 286 q 683 434 661 376 q 719 552 704 492 q 743 670 735 613 q 749 772 751 728 l 894 753 q 899 681 899 717 q 803 290 899 471 q 759 219 783 253 q 708 156 735 185 q 617 72 667 103 q 509 24 567 40 q 385 2 451 7 q 246 -3 319 -3 l 224 -3 l 126 6 l 117 18 m 118 -11 l 124 -11 l 146 -33 l 249 -42 l 272 -42 q 415 -37 347 -42 q 541 -15 482 -32 q 651 35 600 3 q 744 121 701 67 q 840 258 799 182 q 938 654 938 440 q 936 693 938 672 q 932 738 935 714 l 911 758 q 910 768 910 761 l 732 790 l 732 750 q 724 651 732 706 q 701 542 715 597 q 667 433 686 486 q 628 340 649 381 q 585 275 607 300 q 542 250 563 250 l 532 250 q 404 207 463 207 q 338 222 372 207 q 357 333 350 283 q 364 426 364 382 q 356 508 364 469 q 333 586 349 547 q 292 667 317 625 q 233 757 267 708 l 224 767 q 216 777 219 772 q 208 789 213 782 l 0 711 q 65 640 40 675 q 105 569 90 604 q 124 498 119 533 q 129 426 129 463 q 128 403 129 424 q 124 352 126 383 q 119 283 122 321 q 114 206 117 244 q 109 137 111 171 q 105 76 107 103 q 101 31 103 49 q 100 13 100 14 l 118 -11 z "},"v":{"ha":1017,"x_min":-8,"x_max":990,"o":"m 949 694 q 919 582 938 644 q 876 453 900 519 q 823 319 851 386 q 766 196 794 253 q 709 95 738 139 q 656 31 681 51 q 588 -12 622 3 q 514 -32 554 -26 q 399 19 449 -6 q 308 78 349 44 q 233 159 268 111 q 165 278 199 207 q 94 450 131 350 q 14 689 58 550 l 258 731 q 281 569 267 647 q 314 424 294 490 q 358 304 333 357 q 411 219 382 251 q 463 166 435 190 q 522 135 492 142 q 557 158 542 139 q 588 196 572 176 q 614 245 600 211 q 642 325 628 279 q 670 424 657 371 q 695 529 683 476 q 715 631 707 582 q 728 717 724 679 l 949 694 m 713 735 q 700 646 708 696 q 681 542 692 596 q 657 435 669 489 q 631 336 644 382 q 603 257 617 290 q 579 210 590 224 q 578 209 581 213 q 572 203 575 206 q 565 193 567 194 q 564 190 564 192 q 563 189 564 190 q 544 167 554 176 q 522 153 535 157 q 473 179 496 160 q 431 222 450 199 q 384 310 406 257 q 346 427 363 363 q 317 566 329 492 q 296 719 304 640 l 274 740 l 274 751 l -8 701 q 81 435 42 544 q 158 251 121 326 q 235 127 196 175 q 324 44 275 79 q 419 -17 367 8 q 540 -71 471 -43 q 620 -50 585 -65 q 690 -6 656 -35 q 744 60 715 15 q 803 164 774 106 q 861 291 832 222 q 915 429 890 360 q 959 563 939 499 q 990 679 979 628 l 967 701 q 968 706 968 704 q 969 710 968 707 l 713 735 m 464 181 l 471 174 q 467 177 468 176 q 464 181 465 178 z "},"w":{"ha":1385,"x_min":-8,"x_max":1374,"o":"m 1332 693 q 1302 581 1321 644 q 1259 451 1283 518 q 1207 317 1235 385 q 1151 193 1179 250 q 1094 92 1122 136 q 1040 29 1065 49 q 974 -12 1007 1 q 899 -32 940 -25 q 784 19 832 -6 q 694 76 736 43 q 673 49 683 60 q 656 31 663 38 q 588 -12 622 3 q 514 -32 554 -26 q 399 19 449 -6 q 308 78 349 44 q 233 159 268 111 q 165 278 199 207 q 94 450 131 350 q 14 689 58 550 l 258 731 q 314 442 276 556 q 410 260 351 328 q 462 206 433 231 q 519 175 490 182 q 550 194 538 179 q 578 226 563 208 q 569 316 576 269 q 548 419 563 363 q 510 542 533 475 q 454 693 488 610 l 643 729 q 651 673 647 696 q 660 631 656 650 q 671 594 665 613 q 682 551 676 576 q 697 601 690 581 q 710 640 704 622 q 721 676 717 658 q 728 717 725 693 l 949 694 q 898 600 926 650 q 844 494 869 550 q 804 379 819 439 q 794 257 789 319 q 847 206 818 229 q 906 175 875 182 q 940 197 925 179 q 971 235 956 215 q 1011 315 989 258 q 1054 443 1033 372 q 1091 587 1075 514 q 1113 715 1107 660 l 1332 693 m 1097 733 q 1076 601 1092 676 q 1040 454 1060 526 q 997 324 1019 382 q 958 244 975 267 l 951 238 q 944 229 949 233 q 941 225 942 226 q 938 221 940 224 q 923 203 931 211 q 906 193 915 196 q 867 211 886 199 q 832 240 849 224 l 832 263 q 842 350 832 307 q 869 433 853 393 q 905 512 885 474 q 944 586 925 550 l 946 586 q 994 679 968 624 l 971 701 l 975 710 l 713 735 q 703 680 708 701 q 692 638 699 658 q 686 672 689 653 q 681 718 683 692 l 660 739 q 658 750 658 742 l 432 706 q 489 550 465 619 q 528 424 513 481 q 551 319 543 367 q 561 231 558 272 l 556 225 q 550 218 553 221 q 546 214 547 215 l 543 211 q 533 201 538 206 q 519 193 528 196 q 472 219 494 200 q 429 263 449 239 q 345 442 379 331 q 296 719 311 553 l 275 740 q 274 751 274 743 l -8 701 q 81 435 42 544 q 158 251 121 326 q 235 127 196 175 q 324 44 275 79 q 419 -17 367 8 q 540 -71 471 -43 q 682 -12 626 -61 q 701 8 690 -3 q 722 32 711 18 q 810 -20 763 3 q 925 -71 858 -43 q 1004 -49 969 -62 q 1075 -7 1039 -36 q 1129 58 1100 13 q 1188 162 1158 103 q 1245 290 1217 221 q 1299 428 1274 358 q 1343 562 1324 497 q 1374 678 1363 626 l 1350 700 q 1351 704 1351 703 q 1353 708 1351 706 l 1097 733 m 833 232 q 832 232 833 232 q 832 233 832 232 l 833 232 z "},"x":{"ha":949,"x_min":8,"x_max":953,"o":"m 824 0 q 572 175 693 22 q 531 225 558 199 q 482 286 504 251 q 453 231 471 257 q 416 183 436 206 q 376 140 396 160 q 339 101 356 119 q 101 -3 253 10 l 32 218 q 119 227 74 218 q 203 254 164 236 q 272 299 243 272 q 308 358 300 325 q 313 390 311 372 q 314 431 314 408 q 296 517 314 475 q 252 600 278 560 q 199 678 226 640 q 151 754 171 717 l 340 793 q 372 717 353 756 q 410 640 390 678 q 448 565 429 603 q 478 493 467 528 q 512 574 492 532 q 553 656 532 615 q 596 735 575 696 q 633 808 617 774 l 829 822 l 722 621 q 699 572 713 596 q 674 524 686 547 q 654 478 663 500 q 646 435 646 456 q 666 374 646 400 q 700 329 686 349 q 788 260 731 281 q 910 240 846 240 l 824 0 m 847 -39 l 861 -31 l 953 226 l 929 250 l 932 257 q 820 269 874 257 q 735 313 767 282 q 730 318 732 315 q 725 325 728 321 q 699 362 713 342 q 685 408 685 382 q 697 461 685 433 q 726 519 710 489 q 742 551 735 535 q 758 589 750 568 l 760 589 l 878 810 l 854 833 l 858 840 l 622 825 q 605 788 615 808 q 583 749 594 768 q 573 729 578 739 q 563 710 568 719 q 520 632 540 671 q 482 553 500 593 q 466 585 475 568 q 449 618 457 601 q 410 694 429 656 q 375 782 390 733 l 354 801 q 353 807 353 804 q 351 814 353 811 l 125 767 q 159 708 140 738 q 200 647 178 679 q 203 642 203 644 q 207 636 204 639 q 269 538 240 588 q 297 431 297 488 q 296 394 297 411 q 292 363 294 376 q 255 308 283 332 q 185 268 226 285 q 98 243 144 251 q 8 235 51 235 l 89 -21 q 92 -20 90 -21 q 94 -19 93 -19 l 118 -43 q 375 67 286 -29 l 374 67 q 388 82 381 74 q 404 99 396 90 q 459 156 431 125 q 507 226 488 188 q 514 221 511 222 q 517 217 517 218 q 521 213 518 215 q 543 189 533 200 q 558 167 553 178 q 608 110 582 135 q 658 64 633 85 q 847 -39 751 -22 m 631 92 q 629 93 629 92 l 631 92 z "},"y":{"ha":913,"x_min":3,"x_max":908,"o":"m 92 279 q 191 260 146 265 q 275 254 236 254 q 329 256 303 254 q 383 264 356 258 q 288 381 344 318 q 176 502 232 444 q 72 604 119 560 q 3 668 25 649 l 207 794 q 228 769 218 782 q 243 753 239 757 q 331 654 279 713 q 436 531 383 596 q 510 438 475 485 q 574 349 546 392 q 694 703 694 486 q 693 757 694 731 q 688 815 692 783 l 881 793 l 881 783 l 903 763 q 907 706 906 731 q 908 663 908 681 q 811 281 908 457 q 767 208 790 243 q 714 144 744 174 q 647 94 681 117 q 575 51 614 72 q 217 -39 401 -39 l 199 -39 l 176 -17 l 169 -17 l 92 279 m 182 0 q 543 89 365 -1 q 613 131 581 108 q 679 181 646 153 q 731 242 708 208 q 774 313 754 276 q 869 689 869 488 q 865 778 869 729 l 706 797 q 710 749 708 772 q 711 703 711 726 q 583 335 711 475 q 574 328 576 332 q 567 321 571 325 q 487 444 538 376 q 382 574 436 511 q 278 691 328 638 q 204 772 229 744 l 32 665 q 75 627 47 653 q 138 567 103 601 q 212 492 172 533 q 289 410 251 451 q 359 328 326 368 q 414 253 392 288 q 275 238 346 238 q 115 256 189 238 l 182 0 z "},"z":{"ha":921,"x_min":11,"x_max":921,"o":"m 58 550 q 56 549 57 550 q 53 549 54 549 l 11 739 q 217 787 111 771 q 444 804 324 803 q 497 803 469 804 q 556 799 524 801 q 701 767 644 779 q 793 749 757 756 q 844 738 825 742 q 873 731 863 733 q 889 726 883 728 q 900 721 894 724 l 897 714 l 921 692 l 888 606 q 839 567 864 578 q 785 557 814 557 q 767 558 775 557 q 753 560 760 558 q 741 562 746 561 q 731 563 736 563 q 706 558 718 563 l 707 558 q 678 542 692 550 q 649 524 664 533 q 552 465 600 494 q 460 399 504 435 q 379 322 417 364 q 317 229 342 281 q 485 199 408 208 q 629 189 563 189 q 756 204 682 189 l 758 193 l 779 172 l 813 21 q 642 -20 729 -7 q 460 -33 556 -33 q 410 -33 439 -33 q 343 -28 381 -32 q 329 -26 336 -26 q 315 -24 322 -25 q 263 -17 289 -21 q 210 -8 236 -14 l 63 14 l 56 21 l 54 21 l 40 35 l 32 36 l 32 43 l 22 43 l 38 124 q 45 187 40 157 q 57 244 50 217 l 64 272 q 166 424 106 354 q 317 561 226 494 q 181 544 247 553 q 82 528 114 535 l 58 550 m 264 224 q 336 349 290 294 q 438 446 382 403 q 556 525 494 489 q 675 596 618 561 q 717 599 699 603 q 758 596 735 596 q 807 605 785 596 q 851 640 829 614 l 879 711 q 869 715 876 713 q 829 723 861 717 q 732 743 797 729 q 549 782 667 757 q 492 786 517 785 q 444 788 467 788 q 225 772 326 786 q 32 728 124 758 l 65 569 q 137 582 88 575 q 242 596 186 589 q 349 608 297 603 q 429 617 400 614 q 214 451 296 536 q 81 268 132 367 l 74 240 q 62 181 67 211 q 54 118 57 150 l 43 60 l 49 60 l 49 51 l 186 31 q 253 19 219 24 q 318 11 286 15 q 384 6 356 7 q 433 6 413 6 q 612 17 529 6 q 771 56 694 29 l 743 183 q 629 172 688 172 q 264 224 471 172 z "},"{":{"ha":643,"x_min":15,"x_max":625,"o":"m 581 719 q 506 699 543 719 q 437 647 469 678 q 378 580 404 615 q 333 514 351 544 q 299 453 318 489 q 281 374 281 418 q 288 326 281 349 q 307 278 296 303 q 331 228 318 254 q 354 171 343 203 l 490 -51 l 263 -32 q 219 51 242 13 q 174 127 196 89 q 131 206 151 165 q 93 296 110 246 l 32 510 q 58 563 40 532 q 97 623 75 593 q 142 678 118 653 q 188 719 167 704 q 264 809 225 765 q 342 888 303 853 q 419 948 381 924 q 497 981 458 972 l 581 719 m 508 1001 q 420 966 464 992 q 335 904 376 940 q 253 823 293 868 q 174 729 213 778 q 127 685 151 713 q 81 627 103 658 q 41 565 58 596 q 15 508 24 533 l 76 290 q 122 181 96 228 q 176 86 149 133 q 182 76 179 81 q 188 67 185 72 q 220 10 204 39 q 251 -49 236 -18 l 258 -49 l 281 -71 l 542 -93 l 392 150 q 356 233 376 192 q 331 290 342 264 q 319 347 319 317 q 335 419 319 388 q 367 475 351 451 l 365 475 q 369 480 368 478 q 372 483 371 482 q 415 547 389 513 q 475 611 442 582 q 547 660 508 640 q 625 681 585 681 l 532 969 l 513 989 l 508 1001 z "},"|":{"ha":300,"x_min":-14,"x_max":285,"o":"m 200 1025 q 201 1020 200 1022 q 201 1015 201 1018 l 224 994 q 238 913 231 967 q 253 792 246 860 q 265 650 260 725 q 275 505 271 575 q 282 376 279 435 q 285 281 285 317 q 283 185 285 243 q 278 62 282 126 q 270 -65 275 -3 q 260 -169 265 -126 l 18 -136 l -4 -114 l -14 -112 q 13 29 1 -53 q 33 199 25 111 q 44 371 40 286 q 49 521 49 456 q 47 567 49 532 q 43 647 46 601 q 40 705 42 675 q 36 767 38 735 q 32 848 33 807 q 28 924 31 889 q 26 983 26 958 q 25 1017 25 1008 l 200 1025 m 42 1000 q 44 952 42 989 q 48 866 46 915 q 53 761 50 817 q 59 656 57 706 q 63 570 61 607 q 65 521 65 533 q 61 370 65 454 q 50 201 57 286 q 32 36 43 115 q 7 -99 21 -43 l 222 -129 q 232 -28 228 -87 q 240 93 236 31 q 244 213 243 156 q 246 307 246 269 q 244 401 246 342 q 238 528 242 460 q 227 672 233 597 q 215 812 221 746 q 201 930 208 878 q 188 1008 194 982 l 42 1000 z "},"}":{"ha":643,"x_min":7,"x_max":621,"o":"m 31 207 q 105 228 68 207 q 174 280 142 249 q 234 347 207 311 q 279 414 261 383 q 313 474 294 439 q 332 554 332 510 q 324 602 332 579 q 306 649 317 625 q 282 698 294 672 q 258 756 269 724 l 122 979 l 350 960 q 392 877 369 915 q 437 801 414 839 q 481 722 460 763 q 518 631 501 681 l 581 418 q 555 364 572 394 q 516 303 538 333 q 470 247 494 272 q 425 207 446 221 q 349 117 388 160 q 271 39 310 74 q 193 -20 232 4 q 115 -53 154 -44 l 31 207 m 104 -74 q 111 -72 106 -72 l 133 -94 q 218 -60 176 -85 q 300 -1 260 -36 q 380 78 340 35 q 458 169 419 122 q 506 210 481 183 q 553 269 531 238 q 594 334 576 301 q 621 392 613 367 l 557 608 q 513 713 538 667 q 461 803 488 758 q 421 871 440 836 q 385 946 401 906 l 365 965 q 361 976 364 968 l 90 1000 l 243 746 q 279 665 258 706 q 281 660 281 663 q 283 656 282 658 q 306 605 296 629 q 315 554 315 581 q 297 481 315 518 q 258 415 278 444 l 260 415 q 215 352 242 386 q 155 290 188 318 q 85 242 122 261 q 7 224 47 224 l 104 -74 z "},"~":{"ha":750,"x_min":3,"x_max":751,"o":"m 717 443 q 683 425 704 438 q 631 389 663 413 q 558 328 600 365 q 463 238 517 292 q 281 353 460 254 q 197 297 240 325 q 118 257 154 268 l 31 336 q 64 356 43 343 q 116 391 85 368 q 188 451 147 414 q 282 543 229 488 q 464 428 283 526 q 549 483 506 454 q 628 522 592 511 l 717 443 m 729 454 l 631 542 q 567 515 599 533 q 504 475 536 497 q 494 469 500 471 q 484 463 489 467 q 474 456 479 458 q 467 452 471 454 q 460 447 464 450 q 318 540 356 504 l 318 546 l 301 561 q 294 582 294 572 q 183 473 232 517 q 99 402 135 429 q 40 361 64 375 q 3 340 17 347 l 115 238 l 117 238 l 142 215 q 219 253 178 226 q 301 308 261 281 l 307 311 q 366 276 339 292 q 413 247 393 261 q 439 221 431 232 q 450 203 447 210 l 456 208 l 479 185 q 583 284 539 244 q 660 349 628 324 q 715 387 693 374 q 749 406 736 400 l 751 426 l 728 449 l 729 454 z "},"":{"ha":617,"x_min":0,"x_max":0,"o":""},"":{"ha":965,"x_min":26,"x_max":960,"o":"m 319 -46 q 202 -31 250 -46 q 122 17 154 -15 q 49 104 72 49 q 26 239 26 160 l 26 254 q 52 314 26 274 q 119 404 78 354 q 215 511 161 454 q 328 624 269 568 q 444 728 386 679 q 549 810 501 776 l 692 800 l 696 788 l 715 769 q 754 669 731 729 q 804 538 778 608 q 857 390 831 467 q 906 243 883 314 q 942 111 928 172 q 960 8 957 50 l 951 -4 q 758 -53 849 -40 q 589 -65 667 -65 q 481 -61 531 -65 q 394 -53 432 -57 q 352 -48 371 -50 q 319 -46 333 -46 m 921 33 q 903 135 918 75 q 867 266 889 196 q 820 411 846 336 q 769 556 794 486 q 719 685 743 625 q 681 783 696 744 l 553 793 q 450 713 506 760 q 338 612 394 665 q 228 503 282 558 q 134 399 175 447 q 68 312 93 350 q 43 254 43 274 l 43 239 q 101 56 43 119 q 293 -7 160 -7 q 387 -15 326 -7 q 529 -26 447 -24 q 710 -17 611 -28 q 921 33 810 -6 z "},"":{"ha":303,"x_min":29,"x_max":296,"o":"m 160 206 q 232 168 207 206 q 257 93 257 136 l 257 57 q 256 27 257 42 q 256 -3 256 13 l 256 -37 q 227 -108 256 -82 q 150 -132 199 -135 q 83 -106 101 -126 q 57 -40 65 -85 q 48 28 50 -6 q 46 101 46 61 q 76 179 46 150 q 160 206 107 208 m 160 222 l 150 222 q 60 189 92 222 q 29 101 29 156 q 31 24 29 58 q 40 -44 33 -10 q 58 -102 47 -81 q 93 -135 68 -124 l 101 -143 q 175 -171 124 -165 l 186 -171 q 266 -142 238 -171 q 294 -64 294 -112 l 294 0 q 295 15 294 7 q 296 31 296 22 l 296 67 q 268 150 296 115 l 265 151 q 260 158 263 156 q 254 165 257 161 l 251 168 q 238 188 246 176 q 160 222 208 222 z "},"":{"ha":925,"x_min":-204,"x_max":928,"o":"m -187 -44 q -72 -69 -119 -76 q 8 -33 -25 -62 q 62 44 42 -3 q 96 142 82 92 q 53 319 75 238 q 32 476 31 401 q 446 815 36 817 q 530 812 488 815 q 618 801 572 808 q 780 763 714 786 q 886 704 846 740 l 826 525 q 695 583 757 561 q 578 615 633 604 q 474 630 524 626 q 379 633 425 633 q 235 593 279 633 q 200 475 200 558 l 200 458 q 201 444 200 446 q 249 451 224 449 q 304 454 275 454 q 419 455 368 454 q 515 451 469 456 q 605 436 560 447 q 703 403 650 425 l 579 272 q 524 290 547 282 q 481 303 501 297 q 442 311 461 308 q 400 314 422 314 q 323 313 361 317 q 253 308 285 308 l 239 308 q 226 307 228 308 q 241 247 236 272 q 251 199 246 221 q 263 155 256 176 q 283 106 269 133 l 288 56 q 256 13 285 43 q 185 -55 228 -18 q 92 -130 143 -92 q -7 -196 40 -168 q -93 -235 -54 -224 q -150 -232 -132 -247 l -187 -44 m -204 -46 l -165 -240 q -158 -244 -161 -243 q -150 -249 -154 -246 l -135 -265 q -97 -279 -117 -279 q -28 -260 -69 -279 q 60 -210 14 -240 q 152 -144 106 -181 q 237 -73 199 -107 q 299 -11 275 -39 q 326 28 324 17 l 322 82 q 299 143 306 117 q 285 199 292 169 q 278 231 282 214 q 269 269 275 249 l 279 269 q 306 270 292 269 q 335 272 319 271 q 366 275 350 274 q 399 276 382 276 q 411 276 406 276 q 425 275 418 276 q 486 268 458 275 q 553 249 514 261 q 580 240 564 246 q 610 231 596 235 l 751 381 l 728 404 l 732 408 q 643 442 683 429 q 565 460 603 454 q 491 469 528 467 q 414 471 454 471 l 304 471 q 239 467 268 471 q 268 557 242 531 l 269 557 q 406 594 311 594 q 499 591 450 594 q 605 576 549 588 q 724 541 661 564 q 861 481 788 518 l 928 682 l 904 704 l 907 710 q 790 778 861 753 q 619 818 719 803 q 531 828 574 825 q 446 832 489 832 l 440 832 q 15 476 19 832 l 15 469 q 26 366 15 418 q 50 258 36 314 q 52 249 51 253 q 54 239 53 244 q 65 191 60 215 q 78 142 71 167 q 54 70 68 106 q 21 7 40 35 q -26 -37 1 -21 q -87 -54 -53 -54 q -182 -29 -126 -54 l -204 -46 z "},"":{"ha":917,"x_min":31,"x_max":871,"o":"m 161 222 q 239 188 210 222 q 253 168 247 176 l 256 165 q 261 158 258 161 q 267 151 264 156 l 269 150 q 297 67 297 115 q 269 -11 297 18 q 192 -40 242 -40 l 178 -40 q 92 -3 124 -35 l 88 0 q 31 101 31 33 q 62 189 31 156 q 151 222 93 222 l 161 222 m 735 224 q 813 188 783 222 l 813 189 q 821 177 817 182 q 828 167 825 172 l 843 151 q 871 67 871 117 q 843 -10 871 19 q 765 -39 815 -39 l 751 -39 q 665 -3 697 -35 l 661 0 q 604 103 604 33 q 635 190 604 157 q 725 224 667 224 l 735 224 m 442 225 q 519 189 489 222 l 519 190 q 528 178 524 183 q 535 168 532 174 l 550 153 q 578 68 578 118 q 549 -8 578 21 q 471 -37 521 -37 l 457 -37 q 372 -3 403 -33 l 367 1 q 311 104 311 33 q 342 192 311 158 q 432 225 374 225 l 442 225 m 735 207 q 651 181 682 210 q 621 103 621 151 q 649 31 621 58 q 726 0 678 4 q 803 22 775 -4 q 832 93 832 49 q 807 169 832 138 q 735 207 782 206 m 442 208 q 358 182 389 211 q 328 104 328 153 q 356 32 328 58 q 432 1 383 6 q 510 24 481 -3 q 539 94 539 50 q 514 171 539 139 q 442 208 488 206 m 161 206 q 78 179 108 208 q 47 101 47 150 q 76 31 47 57 q 153 -1 104 4 q 230 21 201 -6 q 258 93 258 47 q 233 168 258 136 q 161 206 208 206 z "},"":{"ha":753,"x_min":31,"x_max":753,"o":"m 699 557 q 634 565 667 563 q 565 567 601 567 l 543 567 l 532 567 q 519 565 524 567 q 510 430 514 497 q 506 302 507 363 q 504 190 504 242 q 504 106 504 140 q 506 36 504 69 q 510 -32 507 3 l 331 -43 q 310 54 319 -14 q 292 207 300 122 q 278 382 285 292 q 268 547 272 472 q 153 531 208 540 q 58 508 99 521 l 47 706 q 219 744 119 736 q 244 747 232 746 q 267 749 256 747 q 277 869 269 811 q 299 993 285 926 l 575 964 q 552 868 563 928 q 535 733 542 808 q 638 717 590 726 q 713 697 685 708 l 699 557 m 619 949 l 596 972 q 599 979 596 974 l 285 1011 q 262 887 269 946 q 251 764 254 828 q 233 762 242 763 q 218 761 225 761 q 31 717 113 753 l 43 486 q 47 487 46 486 q 50 488 47 488 l 74 465 q 160 486 114 478 q 254 501 206 494 q 265 340 258 426 q 279 176 271 254 q 298 34 288 97 q 319 -60 308 -29 l 325 -58 l 349 -82 l 550 -69 q 544 9 546 -26 q 543 79 543 44 q 543 163 543 114 q 544 271 543 213 q 549 395 546 329 q 557 528 551 461 l 592 528 q 660 526 628 528 q 724 518 692 524 l 738 529 l 753 678 l 729 700 l 731 707 q 660 728 699 719 q 576 744 621 738 q 594 857 583 806 q 619 949 606 908 z "},"":{"ha":753,"x_min":31,"x_max":753,"o":"m 699 179 q 565 188 636 188 q 536 187 550 188 q 504 186 522 186 l 504 106 q 506 36 504 69 q 510 -32 507 3 l 331 -43 q 312 40 321 -15 q 294 171 303 96 q 165 154 228 164 q 58 131 103 144 l 47 328 q 126 351 83 342 q 219 367 168 361 q 250 369 236 368 q 279 369 264 369 q 273 463 275 418 q 268 547 271 507 q 153 531 208 540 q 58 508 99 521 l 47 706 q 219 744 119 736 q 244 747 232 746 q 267 749 256 747 q 277 869 269 811 q 299 993 285 926 l 575 964 q 552 868 563 928 q 535 733 542 808 q 638 717 590 726 q 713 697 685 708 l 699 557 q 634 565 667 563 q 565 567 601 567 l 543 567 l 532 567 q 519 565 524 567 q 515 460 517 513 q 510 358 513 408 q 626 342 572 351 q 713 318 681 333 l 699 179 m 554 438 q 556 482 556 460 q 558 528 557 504 l 592 528 q 664 526 629 528 q 736 517 699 524 l 753 678 l 729 700 l 731 707 q 660 728 699 719 q 576 744 621 738 q 594 857 583 806 q 619 949 606 908 l 596 972 q 599 979 596 974 l 285 1011 q 262 887 269 946 q 251 764 254 828 q 233 762 242 763 q 218 761 225 761 q 31 717 113 753 l 43 486 q 47 487 46 486 q 50 488 47 488 l 74 465 q 160 485 114 476 q 254 501 206 494 q 254 488 254 494 q 256 474 254 481 q 258 431 257 454 q 261 386 260 408 q 244 385 253 386 q 229 385 236 385 q 224 383 226 383 l 218 383 q 121 367 167 378 q 31 339 75 356 l 43 108 q 47 109 46 108 q 50 110 47 110 l 74 88 q 172 110 118 101 q 282 126 225 119 q 299 16 289 64 q 318 -60 308 -32 l 324 -58 l 347 -82 l 550 -69 q 544 9 546 -26 q 543 79 543 44 l 543 147 q 553 148 549 147 q 563 149 557 149 l 592 149 q 724 140 661 149 l 738 151 l 753 299 l 729 321 l 731 328 q 650 354 696 344 q 551 371 604 364 q 553 404 553 388 q 554 438 553 421 z "},"":{"ha":431,"x_min":-53,"x_max":554,"o":"m -40 913 q -7 934 -28 919 q 44 974 14 949 q 116 1041 75 1000 q 211 1143 157 1082 q 506 944 214 1122 l 369 833 q 336 852 353 839 q 302 882 319 865 q 267 916 285 899 q 233 947 250 933 q 187 913 211 932 q 138 875 163 893 q 91 843 114 857 q 47 824 68 829 l -40 913 m -53 903 l 43 806 l 47 806 l 71 783 q 142 817 106 793 q 213 869 178 842 q 234 887 224 878 q 256 904 244 896 q 263 899 260 900 l 272 889 q 300 862 286 875 q 329 838 314 849 q 363 811 346 822 q 399 793 379 800 l 554 919 l 531 943 l 536 947 q 351 1065 422 1015 q 247 1146 279 1114 l 247 1147 l 244 1150 q 224 1183 224 1171 q 115 1067 161 1113 q 37 992 69 1021 q -17 948 4 963 q -50 926 -37 933 l -53 903 m 290 875 l 301 865 q 304 863 301 863 q 290 875 299 867 z "},"":{"ha":1708,"x_min":14,"x_max":1717,"o":"m 957 142 q 997 160 985 149 q 1010 196 1010 172 q 1008 204 1010 200 q 1008 207 1008 206 q 1007 211 1007 208 l 1007 213 q 1001 232 1004 224 q 993 247 997 240 q 957 254 975 254 q 874 231 917 254 q 868 192 869 210 q 867 158 867 174 q 868 139 867 144 q 906 135 881 135 q 929 136 917 135 q 957 142 942 138 m 1469 167 q 1510 185 1497 174 q 1524 222 1524 197 q 1522 231 1524 226 q 1522 233 1522 232 q 1521 238 1521 235 l 1521 239 q 1515 258 1518 250 q 1507 274 1511 267 q 1468 281 1486 281 q 1383 257 1428 281 q 1383 251 1383 254 q 1382 244 1382 247 q 1378 213 1379 226 q 1376 185 1376 199 q 1376 172 1376 178 q 1376 163 1375 167 q 1418 158 1390 158 l 1424 158 q 1445 159 1435 158 q 1467 165 1456 160 l 1469 167 m 293 621 q 334 640 321 628 q 347 676 347 651 q 346 685 347 681 q 345 688 346 686 q 344 692 344 689 l 344 693 q 338 713 342 704 q 331 728 335 721 q 292 735 310 735 q 207 710 249 735 l 207 708 q 202 672 204 689 q 200 639 200 654 q 203 615 200 621 q 242 611 215 611 q 265 612 253 611 q 290 619 276 613 l 293 621 m 1325 436 q 1381 444 1349 443 q 1443 446 1413 446 l 1481 446 q 1667 365 1615 446 l 1668 364 q 1717 222 1717 315 l 1717 215 q 1671 49 1717 103 l 1669 49 q 1628 12 1653 28 q 1572 -14 1604 -4 q 1515 -26 1546 -22 q 1444 -31 1485 -31 q 1332 -12 1376 -31 q 1300 3 1315 -6 q 1274 24 1285 11 l 1272 25 q 1213 94 1233 47 q 1205 113 1208 104 q 1199 133 1201 122 q 1183 76 1193 101 q 1157 33 1172 51 q 1058 -29 1124 -8 q 932 -46 1006 -46 q 818 -28 863 -46 q 786 -12 801 -21 q 760 8 771 -4 l 758 10 q 699 79 719 32 q 676 193 676 125 l 676 222 q 676 240 676 232 q 679 261 676 250 l 504 -144 l 222 -94 l 201 -74 l 188 -71 q 295 108 247 25 q 381 263 343 192 q 447 394 418 333 q 497 506 475 454 l 494 503 l 493 503 q 452 466 476 482 q 396 440 428 450 q 269 424 343 424 q 156 442 200 424 q 124 457 139 449 q 97 478 108 465 l 96 479 q 36 549 57 501 q 14 663 14 592 l 14 692 q 15 719 14 706 q 21 747 17 732 q 48 807 33 783 q 77 846 63 831 q 107 869 92 861 q 138 885 122 878 q 142 886 140 885 q 146 888 144 886 l 149 890 q 198 898 169 897 q 254 899 226 899 l 306 899 q 492 815 443 899 q 540 676 540 767 l 540 668 q 536 599 540 629 q 558 660 549 631 q 578 714 568 689 q 605 788 592 754 q 632 851 618 822 q 663 908 646 881 q 704 960 681 935 l 969 1010 l 965 1000 l 989 978 l 715 346 q 753 388 735 375 q 792 411 772 401 l 808 419 l 811 422 q 860 430 832 429 q 917 431 889 431 l 968 431 q 1153 349 1104 431 l 1154 349 q 1177 317 1167 333 q 1193 279 1188 300 q 1197 293 1196 288 q 1225 355 1210 331 q 1256 394 1240 379 q 1289 418 1272 410 q 1321 433 1306 426 l 1319 433 l 1325 436 m 1474 150 q 1445 142 1458 143 q 1418 142 1432 142 q 1356 157 1374 142 q 1342 178 1347 168 q 1338 211 1338 189 q 1340 249 1338 229 q 1346 292 1343 268 q 1442 319 1394 319 q 1538 244 1522 319 q 1540 233 1539 238 q 1540 222 1540 229 q 1524 174 1540 190 q 1474 150 1508 158 m 1331 419 q 1301 406 1317 413 q 1271 385 1286 399 q 1241 349 1256 372 q 1214 289 1226 326 q 1206 238 1206 257 q 1206 221 1206 226 q 1207 208 1207 215 q 1228 101 1207 144 q 1310 25 1254 46 q 1418 8 1351 8 q 1485 13 1456 8 q 1542 25 1515 17 q 1635 83 1606 43 q 1678 242 1678 135 l 1678 249 q 1481 429 1678 429 l 1443 429 q 1384 428 1414 429 q 1331 419 1354 426 m 961 125 q 932 119 946 121 q 906 118 918 118 q 846 133 861 118 q 833 152 838 142 q 828 185 828 163 q 836 265 828 219 q 931 293 885 293 q 1024 218 1008 293 q 1026 207 1025 211 q 1026 196 1026 203 q 1010 149 1026 165 q 961 125 994 133 m 817 406 q 788 390 803 397 q 757 370 772 383 q 727 335 742 357 q 700 274 713 313 q 694 246 696 258 q 693 222 693 233 l 693 193 q 714 86 693 129 q 796 10 740 31 q 906 -7 838 -7 q 1028 10 975 -7 q 1121 68 1089 28 q 1164 226 1164 119 l 1164 233 q 968 414 1164 414 l 929 414 q 870 413 900 414 q 817 406 840 413 m 297 604 q 269 596 282 597 q 242 594 256 594 q 181 611 197 594 q 166 633 171 622 q 161 665 161 643 q 164 703 161 683 q 169 744 167 722 q 265 774 215 774 q 361 699 346 774 q 363 688 363 692 q 364 676 364 683 q 348 628 364 643 q 297 604 332 613 m 154 874 q 125 859 140 867 q 94 838 110 851 q 65 803 79 825 q 38 743 50 781 q 32 715 33 728 q 31 692 31 703 l 31 663 q 51 556 31 597 q 133 479 78 500 q 243 463 175 463 q 365 479 313 463 q 458 538 429 497 q 501 694 501 585 l 501 703 q 306 882 501 882 l 267 882 q 208 881 238 882 q 154 874 178 881 m 942 988 l 713 944 q 656 864 678 907 q 614 765 635 821 q 567 635 593 708 q 497 463 540 561 q 387 235 454 364 q 217 -58 319 107 l 471 -104 l 942 988 z "},"":{"ha":1071,"x_min":25,"x_max":1072,"o":"m 314 400 q 319 396 317 397 l 314 400 m 293 421 l 296 418 l 300 414 l 293 422 l 293 421 m 293 422 q 292 424 292 422 q 292 422 292 422 q 293 421 293 421 l 296 418 q 301 413 299 415 q 307 407 304 410 l 293 422 m 325 389 q 319 396 321 393 l 308 406 l 325 389 m 646 443 q 758 390 707 411 q 846 361 810 369 q 867 356 851 360 q 901 345 882 351 q 940 332 919 339 q 975 318 960 325 l 979 307 l 997 289 l 1058 122 l 1072 57 q 1063 56 1072 57 q 1051 53 1054 54 q 1016 35 1039 46 q 959 11 993 24 q 881 -12 925 -1 q 783 -31 838 -24 q 731 -35 764 -33 q 661 -39 697 -37 q 594 -41 625 -40 q 551 -42 564 -42 q 284 -24 404 -42 q 57 42 164 -7 l 40 58 q 25 65 32 60 l 71 300 q 139 281 93 293 q 242 256 185 268 q 360 235 299 244 q 475 226 421 226 q 501 226 489 226 q 526 228 514 226 q 454 279 488 254 q 392 328 421 304 q 228 488 292 407 q 125 657 165 568 l 118 657 l 111 706 l 107 722 q 106 731 106 726 q 104 739 106 735 q 103 744 103 742 q 101 750 103 747 q 93 789 97 769 q 89 832 89 808 q 95 877 89 854 q 119 922 101 900 q 165 962 136 943 q 240 997 194 981 q 299 1008 267 1004 q 367 1017 331 1013 q 373 1017 369 1017 q 379 1018 376 1018 q 390 1019 386 1018 q 525 1028 474 1028 q 538 1027 532 1028 q 550 1026 543 1026 l 531 1046 l 525 1040 q 431 1135 521 1067 q 349 1189 394 1160 q 247 1253 304 1218 l 236 1263 q 225 1270 231 1267 q 213 1278 219 1274 l 376 1410 q 424 1382 403 1399 q 465 1346 444 1365 l 465 1347 l 515 1297 q 557 1328 539 1314 q 569 1336 564 1332 q 581 1344 574 1340 q 644 1390 613 1368 q 704 1421 676 1411 l 815 1308 q 813 1307 814 1307 q 811 1306 813 1307 l 835 1283 q 798 1260 821 1275 q 742 1215 775 1244 q 663 1140 708 1186 q 557 1026 617 1094 q 754 1006 660 1024 q 939 958 849 989 l 938 951 l 960 929 l 922 740 q 779 757 849 757 l 679 757 q 585 756 633 757 q 493 748 536 754 q 416 731 450 742 q 367 701 382 719 q 411 607 376 654 q 646 443 488 518 m 701 1401 q 658 1380 682 1394 q 610 1348 635 1365 q 562 1312 586 1331 q 515 1278 538 1293 q 480 1309 497 1292 q 446 1342 463 1326 q 413 1372 429 1358 q 379 1392 396 1385 l 243 1281 q 538 1081 535 1103 q 633 1183 592 1142 q 704 1251 674 1225 q 756 1291 735 1276 q 789 1313 776 1306 l 701 1401 m 639 428 q 328 731 364 561 q 399 773 347 760 q 514 792 450 786 q 642 797 578 797 q 753 796 707 796 q 886 782 829 796 l 918 947 q 733 994 831 978 q 525 1011 635 1010 q 393 1003 476 1011 q 314 992 353 997 q 238 979 275 988 q 140 922 168 954 q 107 853 113 889 q 111 781 101 818 q 128 711 121 744 l 133 674 l 136 674 q 198 558 161 614 q 288 446 235 501 q 412 335 340 390 q 579 222 483 281 q 497 211 543 213 q 403 214 451 210 q 304 226 354 218 q 211 244 254 235 q 135 263 168 254 q 83 278 101 272 l 44 75 q 262 13 144 29 q 525 -3 379 -3 q 568 -2 538 -3 q 634 0 599 -1 q 703 3 669 1 q 756 8 736 6 q 867 31 818 17 q 952 60 917 46 q 1007 84 988 74 q 1031 96 1026 94 l 1018 151 l 961 306 q 931 317 949 311 q 895 329 913 324 q 863 339 878 335 q 842 344 847 343 q 753 374 806 353 q 639 428 701 394 z "},"":{"ha":497,"x_min":11,"x_max":494,"o":"m 343 119 q 317 153 333 132 q 267 205 300 174 q 184 278 235 236 q 57 374 133 319 q 304 671 83 375 l 440 533 q 415 500 432 517 q 378 466 399 483 q 338 431 358 449 q 301 396 317 414 q 341 349 318 374 q 385 301 364 325 q 426 253 407 276 q 453 208 444 229 l 343 119 m 49 357 q 119 305 88 329 q 179 258 151 281 q 287 160 256 196 q 332 107 318 124 l 338 106 l 360 85 l 378 83 l 494 178 q 474 216 486 197 q 446 254 461 235 q 418 289 433 272 q 388 324 403 306 l 376 335 q 361 352 369 343 q 344 369 353 361 q 370 394 356 382 q 400 419 385 407 q 447 461 425 440 q 482 508 469 482 l 458 531 q 460 532 460 532 q 461 535 460 533 l 303 694 q 11 386 78 392 q 26 375 18 381 q 40 364 33 369 l 49 357 m 288 165 l 286 167 l 288 167 l 288 165 z "},"":{"ha":1775,"x_min":35,"x_max":1790,"o":"m 781 714 q 677 747 722 736 q 592 761 632 758 q 358 715 454 765 q 244 525 239 651 q 531 263 260 296 q 561 261 532 261 q 758 304 674 261 q 751 383 747 340 q 754 471 754 426 q 756 602 754 543 q 781 714 758 661 m 1256 1007 q 1321 1004 1283 1007 q 1404 994 1358 1001 q 1585 962 1500 983 q 1749 911 1669 940 l 1675 629 q 1456 700 1557 674 q 1268 726 1356 726 q 1191 728 1222 726 q 1134 727 1160 729 q 1085 717 1108 725 q 1035 690 1063 708 l 969 643 q 960 617 963 632 q 955 588 957 603 q 950 558 953 572 q 940 532 947 543 q 1131 492 1028 492 q 1468 588 1290 492 l 1532 386 q 1357 328 1436 347 q 1207 308 1278 308 q 942 354 1081 308 q 1228 193 1004 193 q 1621 293 1396 193 l 1667 36 q 1464 -1 1610 13 q 1256 -14 1340 -14 q 963 53 1088 -14 q 948 60 956 56 q 933 68 940 64 q 571 4 763 4 q 498 6 529 4 q 447 13 467 7 q 149 183 251 50 q 51 519 51 310 q 54 597 51 556 q 73 687 57 639 q 123 788 89 735 q 221 903 157 842 q 593 1013 376 1014 q 664 1008 626 1013 q 744 997 701 1004 q 969 936 864 976 q 1256 1007 1096 1008 m 1256 1024 l 1247 1024 q 968 954 1097 1024 q 861 988 915 974 q 749 1014 807 1003 q 667 1025 706 1021 q 593 1029 629 1029 l 585 1029 q 383 1001 475 1029 q 211 915 290 972 q 109 796 144 851 q 57 691 74 740 q 38 599 40 642 q 35 519 35 557 q 136 174 35 304 q 229 82 176 118 q 471 -26 322 0 q 522 -33 490 -32 q 597 -35 554 -35 q 957 28 783 -35 q 970 22 964 25 q 983 15 976 18 q 1282 -53 1110 -53 q 1492 -40 1368 -53 q 1707 3 1638 -25 l 1657 285 l 1635 306 l 1633 318 q 1228 210 1389 210 q 996 296 1069 210 q 990 307 992 301 q 1233 269 1115 269 q 1387 290 1304 269 q 1574 353 1469 311 l 1503 579 l 1483 599 l 1479 613 q 1131 508 1285 508 q 989 531 1054 508 q 993 560 990 543 q 998 586 996 574 q 1007 610 1000 599 l 1067 653 l 1068 653 q 1133 683 1104 676 q 1201 689 1161 689 l 1235 689 q 1263 688 1249 689 q 1294 688 1278 688 q 1483 660 1381 688 q 1710 586 1586 633 l 1790 892 l 1767 914 l 1769 921 q 1406 1011 1592 989 q 1322 1021 1360 1018 q 1256 1024 1285 1024 m 738 494 l 738 471 q 738 444 738 457 q 736 418 738 432 q 734 390 735 404 q 733 364 733 376 q 738 314 733 339 q 651 286 696 294 q 561 278 607 278 q 536 279 538 278 q 335 356 403 294 q 261 526 268 418 l 261 538 q 365 700 261 644 q 571 744 451 744 l 590 744 q 760 704 661 739 q 756 693 757 696 q 760 692 757 692 q 744 599 746 647 q 742 494 742 551 l 742 471 q 742 444 742 457 q 740 418 742 432 q 738 390 739 404 q 738 364 738 376 q 743 310 738 332 q 561 274 660 274 q 544 273 550 274 q 535 274 538 272 l 535 275 q 339 347 407 290 l 351 335 q 561 249 421 265 q 588 247 563 247 q 764 282 686 247 l 772 274 l 779 289 l 765 301 q 764 318 764 310 q 764 338 764 328 q 765 364 764 350 q 767 392 765 378 q 768 418 768 406 q 768 444 768 431 l 768 468 q 771 581 768 529 q 792 681 774 632 q 803 676 794 679 l 796 692 l 769 718 q 765 707 767 710 q 672 736 714 726 q 592 749 631 746 l 571 749 q 364 704 450 749 q 257 538 257 647 l 257 525 q 325 361 263 424 l 336 350 q 283 499 290 404 l 283 511 q 390 678 283 621 q 597 722 476 722 l 618 722 q 683 712 650 719 q 756 693 715 704 q 739 597 740 644 q 738 494 738 550 z "},"":{"ha":1071,"x_min":18,"x_max":1064,"o":"m 506 1293 q 513 1286 508 1289 l 506 1293 m 818 1300 q 815 1299 817 1299 q 814 1297 815 1299 l 838 1275 q 803 1251 825 1267 q 749 1208 782 1236 q 672 1137 717 1181 q 567 1025 626 1093 q 605 1022 586 1024 q 646 1019 624 1021 q 860 969 783 988 q 974 942 936 951 q 1024 928 1013 932 q 1043 921 1036 925 l 1040 914 l 1064 892 l 1026 785 q 969 738 999 749 q 908 726 940 726 q 888 726 896 726 q 872 728 879 726 q 859 728 865 728 q 846 729 853 729 l 835 729 l 826 726 l 825 726 q 785 698 806 713 q 742 669 764 683 q 630 594 686 633 q 522 510 574 556 q 428 411 471 465 q 356 290 385 357 q 557 251 464 264 q 731 238 650 238 q 801 242 767 238 q 878 256 836 246 l 879 244 l 901 224 l 939 35 q 743 -15 844 3 q 531 -33 642 -32 q 472 -31 506 -33 q 396 -24 439 -29 q 315 -13 353 -19 q 240 0 276 -7 l 69 29 l 49 50 l 39 51 l 39 64 l 33 65 l 46 153 q 57 235 51 196 q 69 311 63 275 l 74 339 l 72 338 q 75 343 72 338 l 78 361 l 83 361 q 207 556 138 467 q 386 731 276 646 q 302 722 346 726 q 218 711 258 717 q 144 699 178 706 q 93 688 111 693 l 69 710 q 67 709 68 710 q 64 708 65 708 l 18 942 q 258 1005 136 985 q 518 1026 379 1025 l 544 1026 l 535 1038 q 531 1033 532 1035 q 529 1031 531 1032 q 464 1103 526 1053 q 373 1165 426 1131 q 251 1242 319 1199 l 240 1251 q 228 1259 233 1256 q 217 1267 224 1263 l 379 1399 q 436 1367 411 1389 q 486 1319 461 1346 l 485 1319 q 499 1305 492 1313 q 517 1289 507 1297 q 542 1305 529 1297 q 563 1319 554 1313 q 571 1324 567 1322 q 578 1329 575 1326 q 587 1335 582 1332 q 596 1342 592 1339 q 653 1382 625 1363 q 710 1411 682 1401 l 818 1300 m 706 1392 q 663 1369 686 1385 q 615 1337 639 1354 q 565 1301 590 1319 q 518 1268 540 1282 q 483 1299 500 1282 q 450 1333 467 1317 q 417 1362 433 1349 q 382 1381 400 1375 l 247 1269 q 542 1071 539 1092 q 638 1173 596 1132 q 709 1240 679 1214 q 760 1280 739 1265 q 793 1303 781 1294 l 706 1392 m 306 286 q 393 447 338 378 q 516 572 449 517 q 656 674 583 628 q 796 765 729 719 q 808 768 804 768 l 819 768 q 849 767 836 768 q 882 765 861 765 q 938 776 911 765 q 990 819 964 786 l 1022 911 q 1010 915 1019 913 q 965 927 1001 918 q 852 953 928 936 q 639 1003 776 971 q 572 1008 603 1006 q 518 1010 542 1010 q 263 990 379 1008 q 38 932 146 971 l 76 731 q 156 747 101 739 q 273 763 211 756 q 393 774 335 769 q 483 781 451 779 q 347 678 406 729 q 242 574 288 626 q 160 464 196 521 q 94 344 125 407 l 93 344 l 86 307 q 73 231 79 269 q 63 151 67 192 l 51 78 l 56 76 l 56 67 l 217 39 q 292 26 254 32 q 371 15 331 19 q 447 8 414 10 q 504 6 481 6 q 710 23 613 7 q 897 69 808 39 l 865 235 q 731 221 804 221 q 533 238 638 221 q 306 286 428 254 z "},"":{"ha":308,"x_min":38,"x_max":304,"o":"m 168 976 q 240 939 214 974 q 258 904 251 924 q 265 863 265 885 l 265 828 q 265 798 265 813 q 264 768 264 783 l 264 732 q 235 661 264 688 q 157 639 206 635 q 91 665 108 643 q 65 731 74 686 q 56 797 58 764 q 54 871 54 831 q 85 949 54 919 q 168 976 115 979 m 168 993 l 158 993 q 69 959 100 993 q 38 871 38 925 q 40 794 38 828 q 49 726 42 760 q 67 667 56 690 q 103 633 78 644 l 110 626 q 182 600 132 604 l 196 600 q 274 629 246 600 q 303 706 303 658 l 303 771 q 303 785 303 778 q 304 801 304 793 l 304 836 q 297 881 304 860 q 276 919 289 903 l 272 922 q 269 927 269 925 q 265 932 268 929 l 261 936 l 253 949 q 168 993 221 990 z "},"":{"ha":308,"x_min":38,"x_max":304,"o":"m 168 976 q 240 939 214 974 q 258 904 251 924 q 265 863 265 885 l 265 828 q 265 798 265 813 q 264 768 264 783 l 264 732 q 235 661 264 688 q 157 639 206 635 q 91 665 108 643 q 65 731 74 686 q 56 797 58 764 q 54 871 54 831 q 85 949 54 919 q 168 976 115 979 m 168 993 l 158 993 q 69 959 100 993 q 38 871 38 925 q 40 794 38 828 q 49 726 42 760 q 67 667 56 690 q 103 633 78 644 l 110 626 q 182 600 132 604 l 196 600 q 274 629 246 600 q 303 706 303 658 l 303 771 q 303 785 303 778 q 304 801 304 793 l 304 836 q 297 881 304 860 q 276 919 289 903 l 272 922 q 269 927 269 925 q 265 932 268 929 l 261 936 l 253 949 q 168 993 221 990 z "},"":{"ha":604,"x_min":38,"x_max":578,"o":"m 442 975 q 514 938 488 972 q 539 861 539 906 l 539 826 q 538 797 539 811 q 538 767 538 782 l 538 731 q 508 660 538 686 q 431 638 479 633 q 365 663 383 642 q 339 729 347 685 q 330 796 332 763 q 328 869 328 829 q 358 948 328 918 q 442 975 389 978 m 168 976 q 240 939 214 974 q 258 904 251 924 q 265 863 265 885 l 265 828 q 265 798 265 813 q 264 768 264 783 l 264 732 q 235 661 264 688 q 157 639 206 635 q 91 665 108 643 q 65 731 74 686 q 56 797 58 764 q 54 871 54 831 q 85 949 54 919 q 168 976 115 979 m 168 993 l 158 993 q 69 959 100 993 q 38 871 38 925 q 40 794 38 828 q 49 726 42 760 q 67 667 56 690 q 103 633 78 644 l 110 626 q 182 600 132 604 l 196 600 q 274 629 246 600 q 303 706 303 658 l 303 771 q 303 785 303 778 q 304 801 304 793 l 304 836 q 297 881 304 860 q 276 919 289 903 l 269 926 q 267 929 268 928 q 265 932 267 931 l 261 936 l 253 949 q 168 993 221 990 m 442 992 l 432 992 q 342 958 374 992 q 311 869 311 924 q 313 792 311 826 q 322 725 315 758 q 340 667 329 689 q 375 633 351 644 l 383 625 q 456 599 406 603 l 469 599 q 548 628 519 599 q 576 704 576 657 l 576 769 q 577 784 576 776 q 578 800 578 792 l 578 835 q 550 919 578 885 l 535 935 q 528 945 532 940 q 519 957 524 950 l 519 956 q 442 992 489 989 z "},"":{"ha":604,"x_min":38,"x_max":578,"o":"m 442 975 q 514 938 488 972 q 539 861 539 906 l 539 826 q 538 797 539 811 q 538 767 538 782 l 538 731 q 508 660 538 686 q 431 638 479 633 q 365 663 383 642 q 339 729 347 685 q 330 796 332 763 q 328 869 328 829 q 358 948 328 918 q 442 975 389 978 m 168 976 q 240 939 214 974 q 258 904 251 924 q 265 863 265 885 l 265 828 q 265 798 265 813 q 264 768 264 783 l 264 732 q 235 661 264 688 q 157 639 206 635 q 91 665 108 643 q 65 731 74 686 q 56 797 58 764 q 54 871 54 831 q 85 949 54 919 q 168 976 115 979 m 168 993 l 158 993 q 69 959 100 993 q 38 871 38 925 q 40 794 38 828 q 49 726 42 760 q 67 667 56 690 q 103 633 78 644 l 110 626 q 182 600 132 604 l 196 600 q 274 629 246 600 q 303 706 303 658 l 303 771 q 303 785 303 778 q 304 801 304 793 l 304 836 q 297 881 304 860 q 276 919 289 903 l 269 926 q 267 929 268 928 q 265 932 267 931 l 261 936 l 253 949 q 168 993 221 990 m 442 992 l 432 992 q 342 958 374 992 q 311 869 311 924 q 313 792 311 826 q 322 725 315 758 q 340 667 329 689 q 375 633 351 644 l 383 625 q 456 599 406 603 l 469 599 q 548 628 519 599 q 576 704 576 657 l 576 769 q 577 784 576 776 q 578 800 578 792 l 578 835 q 550 919 578 885 l 535 935 q 528 945 532 940 q 519 957 524 950 l 519 956 q 442 992 489 989 z "},"":{"ha":625,"x_min":35,"x_max":597,"o":"m 392 200 q 253 181 314 181 q 97 224 140 181 q 63 272 75 246 q 51 351 51 299 q 59 444 51 393 q 101 543 67 496 q 156 575 131 561 q 205 599 181 589 q 255 614 229 608 q 311 619 281 619 q 553 435 514 619 q 558 379 558 407 q 519 263 558 303 q 392 200 479 222 m 115 189 q 279 142 163 142 q 421 161 343 142 q 555 228 513 185 q 597 353 597 271 q 592 411 597 383 q 532 535 575 488 q 311 636 465 636 q 197 615 244 636 q 93 560 150 594 q 44 449 53 504 q 35 351 35 394 q 48 266 35 294 q 86 213 61 238 q 111 193 94 203 l 115 189 z "},"":{"ha":631,"x_min":25,"x_max":615,"o":"m 561 317 q 428 325 499 325 q 53 268 244 325 l 42 465 q 119 489 78 479 q 214 504 161 499 q 304 508 268 508 q 575 456 458 507 l 561 317 m 68 225 q 267 271 171 256 q 454 286 363 286 q 586 278 524 286 l 600 289 l 615 438 l 592 460 l 593 467 q 458 509 529 494 q 304 525 386 524 q 213 521 267 525 q 115 503 160 515 q 25 476 69 492 l 38 246 q 41 247 40 246 q 44 247 42 247 l 68 225 z "},"":{"ha":744,"x_min":25,"x_max":746,"o":"m 693 317 q 558 325 631 325 q 445 322 513 325 q 306 310 378 318 q 167 292 235 303 q 53 268 100 282 l 42 465 q 119 489 78 479 q 214 504 161 499 q 304 508 268 508 q 399 505 342 508 q 515 494 456 501 q 626 478 574 488 q 706 456 678 468 l 693 317 m 68 225 q 189 251 119 240 q 331 270 258 263 q 472 282 404 278 q 585 286 539 286 q 718 278 656 286 l 732 289 l 746 436 l 722 458 l 724 465 q 637 491 692 479 q 520 510 582 503 q 400 521 458 517 q 304 525 342 525 q 213 521 267 525 q 115 503 160 515 q 25 476 69 492 l 38 246 q 41 247 40 246 q 44 247 42 247 l 68 225 z "},"":{"ha":713,"x_min":3,"x_max":753,"o":"m 718 1044 q 685 1026 706 1039 q 633 990 664 1014 q 559 930 601 967 q 464 839 517 893 q 281 954 461 854 q 198 898 240 926 q 118 858 156 869 l 31 938 q 64 957 43 944 q 116 992 85 969 q 189 1052 147 1015 q 283 1143 231 1089 q 465 1029 285 1128 q 550 1084 507 1056 q 629 1124 593 1113 l 718 1044 m 731 1056 l 632 1143 q 569 1117 600 1135 q 506 1076 538 1099 q 496 1071 501 1072 q 485 1064 490 1068 q 475 1057 481 1060 q 469 1053 472 1056 q 461 1049 465 1051 q 374 1099 410 1076 q 319 1140 339 1122 l 319 1143 l 306 1156 q 296 1178 296 1167 q 195 1080 240 1119 q 115 1014 150 1040 q 54 972 79 988 q 14 949 29 957 l 15 949 q 9 945 13 947 q 3 942 6 943 l 115 839 l 117 839 l 142 817 q 217 853 178 828 q 296 906 257 878 q 301 909 299 908 q 307 913 304 910 q 367 877 340 893 q 415 847 394 861 q 442 822 433 833 q 453 804 450 811 l 458 810 l 482 786 q 585 885 540 846 q 662 951 629 925 q 716 989 694 976 q 750 1007 738 1001 l 753 1028 l 729 1050 l 731 1056 z "},"":{"ha":1797,"x_min":14,"x_max":1786,"o":"m 699 482 q 695 451 699 467 q 681 421 692 436 q 628 400 644 400 q 594 454 594 400 l 594 468 q 656 535 621 535 q 693 508 676 535 q 699 482 699 499 m 1096 478 l 1136 547 l 1161 478 l 1096 478 m 338 579 l 318 358 l 365 376 l 374 588 l 338 579 m 542 592 q 394 468 394 567 q 395 455 394 460 q 397 439 396 450 q 475 344 414 344 q 495 346 486 344 q 515 354 504 347 l 514 390 q 475 385 503 385 q 431 428 431 385 q 463 513 431 472 q 515 543 488 543 q 526 542 521 543 q 536 539 532 542 l 542 592 m 735 513 q 653 586 718 586 l 643 586 q 631 582 640 586 q 556 397 556 533 q 625 360 569 360 q 639 361 632 360 q 657 364 646 363 q 735 513 715 364 m 917 575 l 879 588 l 874 439 l 756 574 l 761 358 l 793 364 l 793 468 q 917 364 864 364 l 917 575 m 974 588 l 954 368 l 1001 383 l 1011 594 l 974 588 m 1193 533 q 1143 601 1183 601 q 1118 593 1132 601 q 1035 382 1043 489 l 1076 382 q 1126 431 1101 431 q 1174 382 1150 431 l 1196 372 l 1193 533 m 1388 582 l 1354 594 l 1346 447 l 1231 582 l 1235 368 l 1265 372 l 1265 478 q 1388 371 1339 371 l 1388 582 m 1443 372 l 1415 353 l 1440 326 l 1472 358 l 1443 372 m 1443 594 l 1435 431 l 1467 425 l 1492 582 l 1443 594 m 1747 517 q 1744 511 1747 511 l 1725 461 l 1622 461 l 1692 364 q 1692 352 1692 357 q 1693 343 1693 347 q 1656 290 1693 300 l 1543 315 l 1531 171 q 1488 144 1517 144 q 1372 193 1442 144 l 1260 60 l 1203 47 l 1133 121 l 918 0 l 885 13 l 885 85 l 601 38 l 568 60 l 578 121 l 282 146 l 282 193 l 318 231 l 136 267 q 104 315 104 267 l 171 376 l 46 439 l 35 499 l 157 521 l 92 606 l 104 679 l 239 667 q 289 839 239 839 l 296 839 l 421 789 q 556 933 501 910 l 657 863 l 863 971 l 907 933 l 894 897 l 907 885 l 1133 933 l 1214 922 l 1203 851 l 1474 851 l 1497 826 q 1451 753 1497 765 l 1678 692 q 1680 683 1679 686 q 1681 675 1681 679 q 1600 606 1681 619 q 1747 517 1747 550 m 1719 649 q 1718 664 1719 660 q 1717 669 1717 667 q 1717 675 1717 674 l 1694 697 l 1694 704 l 1526 750 q 1536 806 1536 769 l 1514 828 l 1514 833 l 1481 868 l 1247 868 l 1254 907 l 1231 929 l 1232 938 l 1131 950 l 947 910 l 949 911 l 925 933 l 928 939 l 864 992 l 657 881 l 557 951 q 413 808 493 925 l 297 856 l 289 856 q 222 685 226 856 l 89 697 l 74 603 l 128 532 l 14 513 l 31 428 l 44 421 l 61 404 l 136 367 l 88 322 q 119 251 88 261 l 133 239 q 160 228 142 228 l 271 204 l 265 199 l 265 131 l 274 129 l 296 108 l 556 85 l 550 51 l 569 39 l 581 28 l 626 -1 l 868 38 l 868 1 l 879 -3 l 899 -22 l 946 -40 l 1151 75 l 1197 29 l 1201 29 l 1225 7 l 1293 22 l 1401 150 q 1514 106 1469 106 q 1569 142 1550 106 l 1581 274 l 1682 251 q 1732 317 1732 265 l 1732 324 q 1731 331 1732 326 q 1731 340 1731 336 l 1672 422 l 1760 422 l 1779 475 q 1786 490 1786 479 q 1772 515 1786 501 l 1761 525 q 1685 585 1751 551 q 1719 649 1719 608 m 1279 490 l 1269 497 l 1269 499 l 1269 510 l 1361 406 l 1361 411 l 1371 401 l 1371 394 q 1304 453 1342 408 q 1279 490 1292 469 m 807 482 l 796 493 l 794 503 l 889 397 l 889 403 l 900 392 l 900 388 q 828 451 868 403 q 817 466 822 458 q 807 482 813 474 m 679 547 q 700 544 686 547 q 717 508 710 531 l 717 507 l 708 514 q 708 516 708 515 q 707 518 707 517 l 708 518 q 676 547 694 539 l 679 547 m 1169 563 q 1174 549 1172 556 q 1176 532 1175 542 l 1176 514 l 1164 550 l 1156 558 q 1169 563 1164 563 m 594 381 l 594 396 q 611 385 599 389 l 621 376 q 594 381 604 376 m 1093 446 l 1100 439 q 1086 426 1093 435 q 1089 436 1088 432 q 1093 446 1090 440 z "},"":{"ha":921,"x_min":18,"x_max":928,"o":"m 239 335 q 241 334 240 335 q 242 333 242 333 l 240 335 l 239 335 m 447 844 q 442 850 446 849 l 447 844 m 242 333 q 249 326 246 331 q 256 319 253 322 q 253 322 254 321 q 251 325 253 324 l 242 333 m 729 1100 q 726 1099 728 1099 q 725 1097 726 1099 l 749 1075 q 714 1051 736 1067 q 658 1008 692 1036 q 578 933 625 979 q 469 814 532 886 l 446 838 q 442 833 443 835 q 440 831 442 832 q 375 903 438 853 q 284 965 338 931 q 163 1042 231 999 l 150 1054 l 129 1067 l 290 1200 q 344 1169 319 1189 q 394 1122 369 1149 l 392 1122 q 429 1088 408 1104 q 467 1113 453 1103 q 493 1133 481 1124 l 506 1142 q 563 1181 535 1163 q 619 1211 590 1200 l 729 1100 m 556 349 q 652 308 608 324 q 728 285 696 292 q 747 280 733 283 q 776 272 760 276 q 810 261 793 267 q 839 250 826 256 l 843 240 l 863 221 l 917 90 l 928 42 q 906 31 924 40 q 856 11 888 22 q 778 -12 824 0 q 678 -33 733 -25 q 632 -36 661 -35 q 572 -39 603 -37 q 515 -41 542 -40 q 478 -42 489 -42 q 246 -28 350 -42 q 50 25 142 -15 l 32 42 q 25 45 29 44 q 18 49 21 46 l 60 239 q 118 224 78 233 q 207 204 158 214 q 308 188 256 194 q 407 181 361 181 l 439 181 q 352 238 390 208 q 282 294 314 267 q 177 399 219 346 q 107 508 135 451 l 100 508 l 96 529 l 96 532 l 93 551 q 90 565 92 558 q 86 579 89 572 q 78 612 82 594 q 75 649 75 629 q 81 684 75 667 q 101 719 86 701 q 141 752 115 736 q 207 782 167 768 q 267 792 235 789 q 336 799 300 796 q 401 803 372 801 q 451 806 431 806 q 811 751 646 804 l 810 744 l 832 722 l 799 567 q 733 580 763 578 q 674 582 704 582 l 582 582 q 504 581 544 582 q 428 574 464 579 q 364 561 393 569 q 321 539 335 553 q 347 485 329 510 q 432 415 381 449 q 556 349 483 381 m 617 1192 q 573 1169 596 1185 q 526 1137 550 1154 q 478 1101 503 1119 q 431 1068 453 1082 q 394 1099 411 1082 q 361 1132 378 1115 q 328 1162 344 1149 q 293 1181 311 1175 l 158 1069 q 453 871 450 892 q 549 973 507 932 q 620 1040 590 1014 q 671 1080 650 1065 q 704 1103 692 1094 l 617 1192 m 549 333 q 281 569 314 438 q 344 603 299 592 q 443 618 389 614 q 552 622 497 622 q 647 621 607 621 q 708 619 679 621 q 763 610 738 617 l 790 739 q 451 789 638 788 q 403 787 432 789 q 338 782 374 785 q 269 775 303 779 q 204 764 236 771 q 120 717 144 743 q 92 665 96 692 q 96 610 88 638 q 110 556 104 582 l 115 525 l 118 525 q 170 435 139 479 q 247 347 201 390 q 354 261 293 304 q 497 174 415 218 q 388 164 451 161 q 260 176 324 167 q 145 198 197 186 q 72 217 93 210 l 39 58 q 224 10 122 22 q 451 -3 325 -3 q 489 -2 463 -3 q 545 0 515 -1 q 604 3 575 1 q 650 6 633 4 q 747 25 704 14 q 820 47 790 36 q 867 65 850 57 q 886 75 883 74 l 876 118 l 826 238 q 801 247 817 242 q 770 256 786 251 q 742 263 754 260 q 724 268 729 267 q 647 291 692 275 q 549 333 601 307 z "},"":{"ha":497,"x_min":36,"x_max":518,"o":"m 167 672 q 192 639 175 660 q 242 587 210 618 q 326 514 275 556 q 453 418 376 472 q 206 121 428 418 l 69 258 q 95 292 78 275 q 132 326 113 310 q 172 360 151 343 q 208 396 193 378 q 169 443 192 418 q 124 492 146 468 q 83 540 101 517 q 57 583 65 564 l 167 672 m 157 686 l 36 589 q 77 522 51 554 q 132 458 103 490 q 162 426 147 442 q 188 397 176 411 q 169 381 178 389 q 151 365 161 374 q 142 358 147 361 q 133 350 138 354 q 85 306 107 328 q 49 257 63 285 l 207 97 q 207 99 207 99 q 208 100 208 99 l 233 76 q 518 379 460 379 l 496 400 q 504 401 499 401 q 390 485 439 447 q 306 552 342 522 q 247 605 271 582 q 208 644 224 628 q 203 653 206 647 l 193 661 q 184 674 188 668 q 178 683 181 679 l 157 686 m 254 590 q 253 590 253 590 q 251 592 253 592 q 250 593 250 593 q 249 596 250 594 l 260 586 q 267 578 261 583 l 254 590 m 233 613 l 249 596 q 239 605 243 600 q 232 614 235 610 q 233 613 232 613 m 254 590 q 253 590 253 590 q 251 592 253 592 q 250 593 251 593 q 250 594 250 593 l 260 586 q 254 590 257 588 z "},"":{"ha":1533,"x_min":26,"x_max":1543,"o":"m 482 204 q 651 236 575 204 q 640 299 640 267 l 640 369 q 644 472 640 425 q 667 558 649 518 q 581 584 621 575 q 508 593 542 593 q 308 557 397 597 q 211 410 203 510 q 456 206 221 231 q 482 204 457 204 m 1076 792 q 1133 789 1101 792 q 1204 781 1164 786 q 1357 755 1283 771 q 1501 717 1431 739 l 1438 494 q 1092 563 1242 563 q 863 494 939 563 l 806 419 q 968 389 871 389 q 1260 464 1106 389 l 1315 306 q 1163 261 1232 276 q 1035 246 1094 246 q 806 281 919 246 q 1053 156 861 156 q 1392 233 1192 156 l 1431 33 q 1363 17 1404 22 q 1256 4 1322 11 q 1158 -3 1203 -1 q 1076 -6 1114 -6 q 943 8 1006 -6 q 825 46 881 21 q 816 50 819 49 q 807 54 813 51 q 492 3 654 3 q 430 5 456 3 q 385 10 404 7 q 128 143 215 39 q 43 406 43 240 q 45 466 43 433 q 61 535 47 499 q 105 615 75 572 q 190 704 135 657 q 510 790 322 792 q 642 778 567 790 q 826 732 739 764 q 940 777 879 761 q 1076 792 1001 793 m 1076 808 l 1068 808 q 937 793 996 808 q 825 750 878 778 q 736 776 781 765 q 643 794 692 788 q 510 807 568 807 l 501 807 q 327 787 404 807 q 189 726 250 767 q 95 631 128 675 q 47 547 63 586 q 29 473 32 507 q 26 410 26 439 l 26 406 q 115 132 26 233 q 178 74 142 99 q 408 -29 264 -4 q 453 -34 428 -32 q 518 -36 479 -36 q 833 14 681 -36 q 836 13 833 13 l 847 7 l 846 8 q 1103 -44 960 -44 q 1186 -42 1142 -44 q 1283 -35 1231 -40 q 1299 -33 1292 -33 q 1314 -32 1307 -33 q 1403 -21 1367 -26 q 1471 0 1439 -15 l 1428 224 l 1406 244 l 1404 256 q 1053 172 1192 172 q 861 232 925 172 q 961 213 911 218 q 1061 207 1011 207 q 1192 224 1119 207 q 1357 272 1265 240 l 1293 454 l 1274 474 l 1269 486 q 968 406 1107 406 q 914 408 940 406 q 864 417 888 410 l 896 458 l 897 458 q 1118 524 971 524 q 1472 451 1264 524 l 1543 699 l 1519 721 l 1522 728 q 1365 770 1443 753 q 1206 797 1288 788 q 1134 806 1165 803 q 1076 808 1103 808 m 482 221 q 461 222 463 221 q 275 294 333 235 q 250 383 253 332 l 250 397 q 340 519 250 478 q 422 545 379 536 q 514 554 465 554 l 535 554 q 585 549 558 554 q 640 536 611 544 q 626 455 629 496 q 624 369 624 414 l 624 299 q 625 274 624 288 q 631 246 626 261 q 482 221 560 221 m 833 14 l 835 14 l 836 13 l 833 14 z "},"":{"ha":921,"x_min":11,"x_max":921,"o":"m 415 1104 q 408 1110 413 1106 q 415 1104 410 1107 m 751 1088 q 749 1086 750 1086 q 747 1085 749 1086 l 771 1063 q 737 1039 758 1054 q 682 995 715 1024 q 602 920 649 967 q 493 803 556 874 q 523 801 508 803 q 556 799 538 800 q 701 767 644 779 q 793 749 757 756 q 844 738 825 742 q 873 731 863 733 q 889 726 883 728 q 900 721 894 724 l 897 714 l 921 692 l 888 606 q 839 567 864 578 q 785 557 814 557 q 767 558 775 557 q 753 560 760 558 q 741 562 746 561 q 731 563 736 563 q 706 558 718 563 l 707 558 q 678 542 692 550 q 649 524 664 533 q 552 465 600 494 q 460 399 504 435 q 379 322 417 364 q 317 229 342 281 q 485 199 408 208 q 629 189 563 189 q 756 204 682 189 l 758 193 l 779 172 l 813 21 q 642 -20 729 -7 q 460 -33 556 -33 q 410 -33 439 -33 q 343 -28 381 -32 q 329 -26 336 -26 q 315 -24 322 -25 q 263 -17 289 -21 q 210 -8 236 -14 l 63 14 l 56 21 l 54 21 l 40 35 l 32 36 l 32 43 l 22 43 l 38 124 q 45 187 40 157 q 57 244 50 217 l 64 272 q 166 424 106 354 q 317 561 226 494 q 248 553 283 557 q 181 544 213 549 q 124 536 150 540 q 82 528 99 532 l 60 550 q 53 549 57 549 l 11 739 q 217 787 111 771 q 444 804 324 803 q 467 804 456 804 q 489 803 478 804 l 468 825 q 465 821 465 822 q 463 818 464 819 q 406 883 461 836 q 185 1029 328 939 l 174 1039 q 162 1047 167 1043 q 150 1054 157 1050 l 314 1186 q 366 1156 343 1175 q 411 1114 389 1136 q 451 1076 424 1100 q 489 1101 475 1090 q 515 1121 503 1111 l 528 1129 q 585 1169 557 1150 q 642 1199 613 1188 l 751 1088 m 639 1179 q 595 1157 618 1172 q 549 1124 572 1142 q 500 1088 525 1107 q 453 1056 475 1069 q 417 1086 435 1069 q 383 1119 400 1103 q 350 1149 367 1136 q 317 1168 333 1163 l 181 1057 q 475 858 472 879 q 571 960 529 919 q 642 1027 613 1001 q 693 1067 672 1053 q 726 1090 714 1082 l 639 1179 m 264 224 q 336 349 290 294 q 438 446 382 403 q 556 525 494 489 q 675 596 618 561 q 717 599 699 603 q 758 596 735 596 q 807 605 785 596 q 851 640 829 614 l 879 711 q 869 715 876 713 q 829 723 861 717 q 732 743 797 729 q 549 782 667 757 q 492 786 517 785 q 444 788 467 788 q 225 772 326 786 q 32 728 124 758 l 65 569 q 138 582 89 575 q 242 596 186 589 q 349 608 297 603 q 429 617 400 614 q 214 451 296 536 q 81 268 132 367 l 74 240 q 62 181 67 211 q 54 118 57 150 l 43 60 l 49 60 l 49 51 l 186 31 q 253 19 219 24 q 318 11 286 15 q 384 6 356 7 q 433 6 413 6 q 612 17 529 6 q 771 56 694 29 l 743 183 q 629 172 688 172 q 264 224 471 172 z "},"":{"ha":1061,"x_min":10,"x_max":1050,"o":"m 67 806 q 64 807 65 807 q 63 808 64 807 q 64 807 64 807 q 67 806 65 807 m 768 1388 q 860 1338 822 1386 q 865 1330 863 1333 q 869 1324 867 1326 l 871 1322 q 876 1316 874 1319 q 881 1310 878 1313 q 882 1308 882 1310 q 883 1308 882 1308 q 914 1211 914 1267 q 883 1122 914 1156 q 797 1089 851 1089 l 782 1089 q 692 1126 725 1093 l 688 1131 q 626 1247 626 1165 q 663 1349 626 1310 q 760 1388 699 1388 l 768 1388 m 335 1389 q 385 1376 364 1388 q 422 1346 406 1365 q 428 1338 425 1342 q 433 1329 431 1333 l 446 1317 q 482 1213 482 1264 q 450 1124 482 1157 q 365 1090 418 1090 l 350 1090 q 258 1128 292 1094 l 253 1132 q 193 1249 193 1167 q 229 1350 193 1311 q 326 1389 265 1389 l 335 1389 m 110 353 q 221 329 171 336 q 319 322 271 322 q 453 335 386 322 q 386 433 425 381 q 303 537 347 485 q 215 640 260 589 q 131 733 171 690 q 58 806 90 775 q 10 853 26 838 l 239 1013 q 253 996 244 1007 q 265 981 261 985 q 266 978 265 979 q 267 978 267 978 q 279 965 272 969 q 317 919 296 944 q 363 864 339 893 q 440 769 399 821 q 523 663 482 718 q 601 551 564 607 q 668 444 639 496 q 811 901 811 617 q 808 965 811 929 q 800 1042 806 1000 l 1021 1011 q 1022 1006 1021 1008 q 1022 1001 1022 1004 l 1043 981 q 1049 913 1047 943 q 1050 856 1050 883 q 938 368 1050 597 q 885 277 913 321 q 825 196 857 233 q 665 76 753 128 q 247 -39 472 -39 l 229 -39 l 207 -17 l 199 -17 l 110 353 m 768 1371 q 676 1340 710 1374 q 643 1247 643 1306 q 674 1163 643 1194 q 757 1128 704 1132 q 843 1153 811 1122 q 875 1238 875 1185 q 847 1328 875 1289 q 768 1371 815 1369 m 335 1372 q 243 1341 276 1375 q 210 1249 210 1307 q 241 1165 210 1196 q 325 1129 272 1133 q 410 1155 378 1124 q 443 1239 443 1186 q 415 1329 443 1289 q 379 1360 399 1349 q 335 1372 360 1371 m 213 0 q 632 114 435 -3 q 714 167 675 139 q 789 231 753 196 q 849 311 821 268 q 900 400 876 354 q 1011 882 1011 629 q 1010 939 1011 911 q 1006 996 1008 967 l 819 1022 q 828 901 828 960 q 679 431 828 608 q 668 421 672 425 q 658 413 664 417 q 601 515 636 460 q 527 626 567 569 q 444 737 488 682 q 362 840 401 792 q 290 926 322 888 q 236 990 257 965 l 38 853 q 88 805 56 838 q 162 728 121 772 q 248 633 203 685 q 337 526 293 581 q 418 420 381 472 q 481 324 456 368 q 319 306 413 306 q 225 311 271 306 q 133 329 179 317 l 213 0 z "},"":{"ha":617,"x_min":0,"x_max":0,"o":""},"":{"ha":418,"x_min":15,"x_max":411,"o":"m 314 668 q 372 307 372 518 q 339 -3 372 160 l 38 28 q 117 521 117 253 q 115 591 117 557 q 110 660 113 625 l 314 668 m 143 771 q 56 886 56 808 q 95 967 56 939 q 194 990 135 996 q 294 954 250 986 q 339 868 339 921 q 306 788 339 821 q 218 756 274 756 q 181 760 199 756 q 143 771 163 764 m 315 685 l 92 676 q 100 521 100 593 q 15 13 100 253 l 26 11 l 47 -10 l 375 -43 q 402 126 393 46 q 411 281 411 206 q 351 646 411 493 l 332 664 q 331 668 331 667 q 329 674 331 671 l 315 685 m 106 771 q 164 733 128 747 l 165 733 q 244 717 208 717 q 342 753 306 717 q 378 842 378 789 q 346 922 378 890 l 339 928 q 304 967 326 949 q 194 1007 253 1003 l 186 1007 q 182 1008 183 1007 q 178 1008 181 1008 q 78 976 117 1008 q 39 886 39 944 q 103 772 39 815 l 106 771 z "},"":{"ha":956,"x_min":28,"x_max":960,"o":"m 425 658 q 310 626 361 650 q 213 479 204 576 q 363 293 221 339 q 394 476 378 382 q 425 658 410 571 m 317 -8 q 319 21 315 -6 q 331 90 324 47 q 129 213 201 126 q 44 474 44 310 q 47 535 44 503 q 63 604 49 567 q 106 683 76 642 q 192 772 136 725 q 458 857 301 849 q 468 924 465 899 q 471 956 471 949 l 493 968 l 646 950 l 629 849 q 643 846 640 846 q 918 764 797 824 l 857 543 q 715 609 778 583 q 593 650 651 635 l 529 275 q 605 288 567 279 q 674 304 643 296 q 726 319 706 313 q 746 329 746 326 l 811 124 q 493 71 649 71 l 478 -19 l 317 -8 m 300 -24 l 308 -24 l 331 -46 l 515 -60 l 531 32 q 854 89 685 35 l 783 311 l 764 331 l 760 343 l 729 338 q 716 331 729 335 q 682 321 703 326 q 633 309 661 315 q 576 299 606 303 l 629 607 q 749 565 686 592 q 892 499 811 539 l 960 744 l 936 767 l 939 774 q 811 824 876 803 q 674 857 746 844 l 686 935 l 663 958 l 664 965 l 489 985 l 454 965 q 452 933 454 957 q 443 871 450 908 q 297 842 364 864 q 174 779 231 819 q 90 692 119 733 q 47 612 60 650 q 31 540 33 574 q 28 478 28 507 l 28 474 q 117 201 28 303 q 148 168 131 183 q 185 139 165 153 q 308 65 238 92 q 302 19 304 38 q 300 -6 300 1 l 300 -24 m 382 507 l 382 508 q 378 488 379 499 q 375 468 378 478 q 363 392 368 432 q 350 317 357 353 q 274 369 304 336 q 251 453 254 404 l 251 467 q 342 589 251 547 q 399 608 369 601 q 390 557 393 583 q 382 507 386 531 z "},"":{"ha":989,"x_min":3,"x_max":1010,"o":"m 68 619 l 215 619 q 236 619 225 619 q 258 618 247 619 q 633 1061 264 1029 q 639 1064 633 1064 q 643 1063 642 1063 q 649 1061 646 1063 q 672 1063 660 1063 q 697 1064 685 1064 l 722 1064 l 715 1057 l 739 1033 l 726 1021 q 724 1020 726 1021 q 719 1018 722 1019 l 728 1011 l 726 1011 l 731 1008 q 742 979 742 997 q 734 948 742 964 q 717 910 726 932 q 694 856 706 886 q 671 786 682 826 q 652 756 664 763 q 625 750 640 750 q 614 750 619 750 q 603 751 608 750 l 601 751 q 590 753 596 753 q 579 753 585 753 l 543 747 q 528 739 532 746 l 526 738 q 519 728 524 732 q 486 596 486 686 q 518 599 501 599 q 556 599 536 599 l 679 599 q 754 597 718 599 q 826 586 790 594 q 902 563 863 578 q 989 524 942 549 l 986 519 l 1010 496 l 868 308 q 809 334 835 324 q 763 351 783 344 q 722 360 742 357 q 679 365 701 364 q 665 367 672 367 q 653 367 660 367 q 620 365 636 367 q 588 363 604 364 q 557 360 572 361 q 528 358 542 358 l 515 358 q 519 336 518 347 q 521 314 519 325 q 526 281 524 297 q 533 244 528 264 l 538 183 l 547 183 q 609 185 572 183 q 685 188 646 186 q 766 194 725 190 q 841 201 807 197 q 898 210 875 206 q 928 218 921 214 l 928 206 l 950 185 l 960 -53 q 860 -42 928 -46 q 713 -35 793 -37 q 615 -31 664 -33 q 519 -26 565 -28 q 434 -21 474 -24 q 367 -14 394 -18 l 346 7 q 336 8 339 7 q 298 192 314 101 q 271 375 282 282 q 238 381 253 378 q 204 386 222 383 q 190 388 197 388 q 178 388 185 388 q 145 386 161 388 q 113 383 129 385 q 73 381 97 382 q 35 379 49 379 l 13 401 l 3 401 l 68 619 m 26 418 q 100 423 61 418 q 179 425 139 428 q 233 417 210 422 q 286 403 257 413 q 311 222 294 315 q 351 24 328 128 q 431 16 381 19 q 540 10 482 13 q 660 5 599 7 q 776 0 722 3 q 868 -5 829 -3 q 921 -10 907 -7 l 913 188 q 877 181 907 183 q 803 175 847 178 q 710 170 760 172 q 617 167 661 168 q 542 167 574 167 q 504 168 511 167 l 494 267 q 483 329 485 299 q 474 396 481 360 q 488 397 476 397 l 501 397 q 575 402 536 397 q 654 404 614 407 q 697 399 678 403 q 738 390 717 396 q 782 374 758 383 q 838 350 806 364 l 965 518 q 865 561 911 547 q 773 579 819 575 q 674 583 726 583 q 556 582 622 582 q 498 580 524 582 q 449 571 472 578 q 447 590 447 574 l 447 610 q 483 761 447 713 q 495 777 492 771 q 515 786 499 783 l 553 792 q 579 790 567 792 q 602 788 592 788 q 620 794 613 789 q 632 815 628 800 q 668 916 647 875 q 698 983 689 957 q 696 1024 707 1010 q 636 1047 685 1039 q 624 1051 621 1050 q 638 1053 626 1053 q 667 1052 650 1053 q 696 1050 683 1051 q 712 1048 708 1049 q 701 1047 715 1047 q 275 613 279 1049 l 275 601 q 186 603 233 604 q 81 603 139 603 l 26 418 z "},"":{"ha":1104,"x_min":0,"x_max":1103,"o":"m 389 494 q 402 447 389 469 q 438 409 415 425 q 490 383 460 393 q 556 374 521 374 q 621 383 590 374 q 674 409 651 393 q 709 447 696 425 q 722 494 722 469 q 708 547 722 519 q 671 596 694 574 q 617 633 647 618 q 551 647 586 647 q 487 633 517 647 q 435 596 457 618 q 401 547 414 574 q 389 494 389 519 m 957 0 q 667 225 804 29 q 660 234 664 229 q 654 243 657 239 q 507 225 583 225 l 476 225 q 433 174 454 197 q 393 131 413 151 q 279 32 344 68 q 125 -11 214 -4 l 22 278 q 83 283 50 278 q 151 296 117 288 q 216 316 185 304 q 272 343 247 328 q 247 395 257 367 q 238 460 238 424 q 239 510 238 486 q 244 558 240 533 q 254 612 249 583 q 268 678 260 640 q 297 697 282 689 q 326 713 311 704 q 248 843 292 781 q 176 967 204 906 l 394 1017 q 440 896 413 954 q 496 778 468 838 q 538 785 518 782 q 575 788 557 788 q 596 787 586 788 q 617 785 606 786 q 678 915 646 851 q 736 1036 711 978 l 964 1056 l 831 804 q 811 753 822 778 q 789 704 800 729 q 856 550 836 646 q 864 479 864 510 q 859 420 864 446 q 843 371 854 394 q 942 322 885 336 q 1058 307 1000 307 l 957 0 m 675 201 l 675 200 q 678 199 676 199 l 675 201 q 683 204 678 201 l 657 231 l 643 238 q 644 233 644 235 q 647 228 644 232 q 578 216 613 219 q 507 213 543 213 l 490 213 l 486 217 l 476 213 l 479 208 q 440 163 460 183 q 403 122 421 142 q 289 24 354 60 q 133 -24 224 -12 l 32 264 q 92 268 60 264 q 158 279 125 272 q 221 297 190 286 q 276 319 251 307 l 288 310 l 292 328 l 265 354 l 264 353 q 251 433 251 388 q 253 484 251 460 q 258 534 254 508 q 269 590 263 560 q 283 658 275 619 q 309 676 297 669 q 332 689 321 683 l 342 681 l 346 696 l 319 722 q 295 762 308 742 q 268 803 282 782 q 226 869 247 835 q 185 950 206 904 l 411 1001 q 448 908 428 953 q 489 821 468 864 q 495 806 492 814 q 503 792 499 799 q 498 791 500 792 q 493 790 496 790 l 519 764 l 533 757 l 529 765 q 601 774 567 774 l 622 774 l 632 764 l 643 771 l 638 776 q 665 836 651 807 q 693 893 678 865 q 725 959 708 925 q 754 1022 742 993 l 969 1039 l 842 799 l 842 797 q 825 756 835 778 q 804 710 815 733 l 804 707 l 799 713 l 801 700 l 819 681 q 849 622 836 653 q 868 553 861 590 q 876 479 876 513 q 873 423 876 447 q 858 375 869 399 q 851 381 853 378 l 854 365 l 881 339 q 885 349 883 344 q 967 310 919 324 q 1068 293 1015 296 l 969 -4 l 954 -12 q 760 96 851 7 l 774 82 q 789 66 781 74 q 806 51 797 58 q 808 49 806 51 q 981 -39 892 -22 l 996 -31 l 1103 293 l 1079 315 l 1082 324 q 980 333 1029 324 q 890 361 931 342 q 903 453 903 400 q 894 526 903 486 q 829 679 876 617 q 832 685 829 679 q 853 731 843 708 q 869 774 863 754 l 868 774 l 1013 1043 l 989 1067 l 993 1074 l 725 1053 q 695 988 713 1024 q 663 921 678 953 q 635 863 650 894 q 607 803 619 832 q 592 804 600 804 q 575 804 585 804 q 545 802 560 804 q 514 797 531 800 q 467 897 490 846 q 429 1006 444 947 l 408 1025 q 407 1031 407 1028 q 406 1038 407 1035 l 153 979 q 198 891 178 925 q 238 826 218 857 q 272 772 256 799 q 303 719 289 744 q 280 706 292 714 q 253 686 268 699 q 238 617 244 647 q 228 562 232 588 q 222 512 224 536 q 221 460 221 488 q 249 351 221 400 q 190 328 222 339 q 125 310 158 317 q 60 299 92 303 q 0 294 28 294 l 114 -29 q 117 -28 115 -29 q 119 -28 118 -28 l 143 -51 q 308 -6 239 -43 q 429 96 378 32 q 468 137 449 115 q 508 186 488 158 l 533 186 q 665 199 600 186 q 735 116 700 153 q 806 51 769 79 q 808 49 806 51 q 954 -17 876 -1 l 974 -7 l 1079 315 l 1076 319 q 976 328 1025 319 q 889 357 928 338 q 890 361 889 360 q 877 368 883 364 q 864 376 871 372 q 877 426 874 400 q 881 479 881 451 q 872 554 881 514 q 847 637 863 599 q 807 707 831 675 q 808 708 808 708 q 810 711 808 710 q 831 755 821 733 q 847 800 840 776 l 989 1067 l 986 1069 l 728 1049 q 699 985 715 1019 q 667 919 682 951 q 608 799 638 861 q 592 800 600 800 q 575 800 585 800 q 545 799 560 800 q 515 794 531 797 q 514 797 514 796 q 510 797 511 797 q 506 796 508 796 q 501 801 503 799 q 500 803 500 803 q 497 812 497 807 q 493 822 496 817 q 448 919 469 869 q 408 1025 426 968 l 403 1032 l 158 976 q 200 896 179 931 q 242 829 221 861 q 278 771 261 799 q 310 717 296 743 q 310 715 310 717 q 308 715 310 715 l 308 717 q 284 703 296 710 q 257 685 272 697 q 242 616 249 646 q 232 560 236 586 q 226 510 228 535 q 225 460 225 486 q 253 347 225 394 q 197 324 228 335 q 132 306 165 313 q 66 294 99 299 q 6 290 33 290 l 117 -25 l 119 -28 q 285 19 215 -18 q 406 119 354 57 q 444 161 425 139 q 485 208 464 183 l 507 208 q 576 212 542 208 q 647 224 611 215 q 654 215 649 221 q 660 207 657 211 q 665 199 663 203 q 667 199 667 199 q 669 200 668 200 q 747 108 706 150 l 751 103 q 717 144 733 122 q 683 190 700 167 l 683 192 l 678 197 q 675 200 678 197 l 674 201 l 675 201 m 428 468 q 439 515 428 490 q 470 561 450 540 q 518 595 490 582 q 578 608 546 608 q 622 601 601 608 q 661 582 643 593 q 693 540 681 563 q 706 494 706 517 q 694 454 706 474 q 662 421 682 435 q 614 399 642 407 q 556 390 586 390 q 488 401 519 390 q 436 431 456 411 q 428 468 428 447 m 760 96 q 758 97 758 96 q 757 99 757 97 l 760 96 m 685 190 l 683 190 l 683 192 l 685 190 z "},"":{"ha":1233,"x_min":10,"x_max":1232,"o":"m 1163 500 q 1098 505 1131 504 q 1029 506 1065 506 q 990 513 1010 506 q 950 518 969 519 q 926 459 939 489 q 900 400 914 429 q 849 311 876 354 q 789 231 821 268 q 714 167 753 196 q 632 114 675 139 q 213 0 435 -3 l 133 329 q 225 311 179 317 q 319 306 271 306 q 481 324 413 306 q 418 420 456 368 q 337 526 381 472 q 248 633 293 581 q 162 728 203 685 q 88 805 121 772 q 38 853 56 838 l 236 990 q 290 926 257 965 q 362 840 322 888 q 444 737 401 792 q 527 626 488 682 q 601 515 567 569 q 658 413 636 460 q 668 421 664 417 q 679 431 672 425 q 694 449 685 438 q 713 474 703 461 q 731 500 722 488 q 746 521 740 513 q 713 520 733 518 q 674 522 692 522 q 654 521 658 522 l 642 646 q 674 651 653 651 q 731 648 700 651 q 793 647 761 644 q 808 705 803 676 q 818 767 814 733 q 799 765 808 765 q 779 764 790 764 l 738 764 q 698 763 718 764 q 658 758 678 763 l 663 900 q 738 908 697 911 q 828 908 778 906 q 825 965 828 936 q 819 1022 822 993 l 1006 996 q 1009 952 1008 974 q 1011 907 1010 931 q 1103 897 1058 904 q 1192 875 1149 889 l 1178 775 q 1113 780 1146 779 q 1043 781 1081 781 l 1006 781 q 999 713 1003 746 q 988 649 994 681 q 1088 637 1040 644 q 1178 615 1135 629 l 1163 500 m 1043 742 l 1069 742 q 1141 741 1107 742 q 1215 735 1175 740 l 1232 858 l 1208 881 l 1210 888 q 1046 919 1129 911 q 1044 950 1044 935 q 1043 981 1044 967 l 1022 1000 q 1022 1026 1022 1019 q 1021 1011 1021 1033 l 801 1042 q 803 1024 803 1033 q 804 1006 803 1014 q 808 967 806 985 q 811 925 810 950 l 729 925 q 690 923 710 925 q 646 913 669 921 l 642 738 q 650 739 647 738 l 672 717 q 723 724 701 724 q 764 725 744 725 l 793 725 q 786 694 790 710 q 778 663 782 679 l 768 663 q 742 663 756 663 q 717 665 729 664 l 711 665 q 693 667 701 667 q 674 668 685 668 q 650 665 663 668 q 624 656 638 663 l 639 497 q 642 498 642 497 q 646 499 643 499 l 669 476 q 690 483 685 482 q 699 483 694 483 q 683 462 692 472 q 668 443 675 451 q 610 537 643 489 q 542 633 578 585 q 470 729 507 682 q 400 818 433 776 q 333 899 364 861 q 279 965 303 936 q 267 978 272 969 q 266 978 267 978 q 265 981 265 979 q 253 996 261 985 q 239 1013 244 1007 l 10 853 q 58 806 26 838 q 131 733 90 775 q 215 640 171 690 q 303 537 260 589 q 386 433 347 485 q 453 335 425 381 q 319 322 386 322 q 221 329 271 322 q 110 353 171 336 l 199 -17 l 207 -17 l 229 -39 l 247 -39 q 665 76 472 -39 q 825 196 753 128 q 885 277 857 233 q 938 368 913 321 q 961 424 950 396 q 983 479 972 451 q 998 477 990 478 q 1015 474 1006 476 q 1033 469 1025 471 q 1056 467 1040 467 q 1124 466 1092 467 q 1188 461 1156 465 l 1201 472 l 1218 599 l 1194 621 l 1196 628 q 1118 647 1158 639 q 1033 660 1078 654 q 1038 699 1036 679 q 1043 742 1040 719 m 67 806 q 64 807 65 807 q 63 808 64 807 q 64 807 64 807 q 67 806 65 807 z "},"":{"ha":300,"x_min":-11,"x_max":286,"o":"m 58 -146 l 53 -147 q 37 -65 44 -119 q 22 57 29 -11 q 9 201 15 125 q -1 347 3 276 q -8 476 -6 417 q -11 572 -11 536 q -10 667 -11 608 q -5 789 -8 725 q 4 916 -1 853 q 18 1026 10 979 l 265 993 q 264 986 264 990 l 286 964 q 261 824 272 904 q 242 656 250 743 q 231 484 235 569 q 226 332 226 399 q 228 282 226 319 q 231 194 229 244 q 237 88 233 144 q 243 -19 240 31 q 248 -107 246 -69 q 251 -157 250 -144 l 82 -169 l 58 -146 m 211 -119 q 208 -72 210 -108 q 203 14 206 -35 q 197 118 200 63 q 192 223 194 174 q 189 309 190 272 q 188 358 188 346 q 191 510 188 425 q 202 680 194 594 q 220 844 210 765 q 244 979 231 922 l 31 1008 q 19 909 24 968 q 11 788 14 850 q 7 667 8 725 q 6 572 6 610 q 8 478 6 536 q 15 350 11 419 q 25 207 19 281 q 38 67 31 133 q 51 -51 44 1 q 65 -129 58 -103 l 211 -119 z "},"":{"ha":1000,"x_min":19,"x_max":988,"o":"m 257 479 q 258 451 260 464 q 254 426 256 439 q 256 402 253 414 q 271 378 258 390 q 319 297 274 329 q 427 253 364 265 q 559 255 490 242 q 678 311 628 268 q 690 384 706 349 q 627 449 674 419 q 510 497 581 478 q 361 518 440 515 q 297 504 325 513 q 257 479 268 496 m 694 606 q 744 575 717 590 q 798 537 771 560 q 850 478 825 514 q 894 388 875 443 l 906 344 q 907 330 904 343 q 910 297 910 317 q 908 253 911 276 q 894 208 906 229 q 863 170 883 186 q 806 150 842 154 q 772 147 792 149 q 728 144 751 146 q 746 134 733 142 q 772 118 758 126 q 800 101 786 110 q 824 89 814 93 l 878 -6 l 888 -47 q 867 -57 885 -49 q 820 -76 850 -65 q 748 -97 790 -86 q 651 -117 706 -108 q 606 -119 635 -118 q 547 -122 576 -121 q 490 -124 517 -124 q 453 -125 464 -125 q 225 -112 326 -125 q 40 -64 124 -100 l 74 93 q 121 82 89 89 q 194 67 153 75 q 285 52 236 60 q 381 41 333 44 q 471 38 428 38 q 544 44 514 38 q 487 73 518 60 q 425 99 456 86 q 367 124 394 111 q 322 150 340 136 q 254 174 289 150 q 188 235 219 199 q 128 315 156 272 q 79 393 100 357 q 70 454 74 419 q 77 524 67 489 q 117 590 88 558 q 206 642 146 621 l 281 654 q 277 661 278 657 q 274 668 276 665 l 271 668 l 267 699 q 253 753 261 725 q 249 810 244 782 q 276 863 253 838 q 360 907 300 888 q 426 918 393 914 q 493 926 458 922 q 559 931 531 929 q 607 932 588 932 q 946 882 794 929 l 918 754 q 804 765 863 765 q 710 766 765 765 q 599 763 654 767 q 499 747 544 758 q 438 714 454 736 q 444 690 440 701 q 456 667 449 678 l 694 606 m 344 111 q 394 83 364 96 q 460 56 424 69 q 463 54 460 54 q 351 62 413 54 q 231 79 289 69 q 127 99 174 89 q 61 115 81 110 l 19 -74 q 26 -76 22 -75 q 33 -79 31 -78 l 51 -97 q 247 -151 143 -137 q 479 -164 351 -164 q 517 -163 490 -164 q 574 -161 543 -162 q 633 -158 604 -160 q 679 -156 663 -157 q 779 -135 735 -147 q 856 -111 824 -122 q 907 -91 889 -100 q 929 -81 925 -82 l 917 -29 l 858 72 l 843 86 l 835 103 q 819 110 831 103 q 827 110 824 110 q 833 111 831 111 q 894 131 871 115 q 929 167 917 146 q 946 213 942 189 q 950 260 950 238 q 949 293 950 279 q 946 314 947 307 q 944 321 944 319 l 936 354 q 900 435 919 401 q 860 492 881 468 q 797 560 829 536 q 738 600 765 583 l 704 621 l 479 676 q 478 685 478 679 q 519 707 492 699 q 583 719 547 715 q 658 725 618 724 q 736 726 699 726 l 831 726 q 890 723 858 726 q 954 713 922 719 l 988 865 l 965 888 l 967 894 q 607 949 800 947 q 554 947 583 949 q 488 943 525 946 q 478 942 483 942 q 473 941 475 942 q 469 940 471 940 q 413 933 442 938 q 351 922 383 929 q 256 865 281 899 q 232 794 232 831 q 235 758 232 775 q 243 725 239 740 q 247 710 246 718 q 250 696 249 701 l 250 697 l 253 667 l 206 658 q 128 619 158 642 q 82 572 99 597 q 59 521 65 547 q 53 468 53 494 q 56 419 53 440 q 63 383 60 399 q 98 324 78 356 q 142 260 118 292 q 193 203 167 229 q 247 158 219 176 q 295 125 271 138 q 344 111 319 113 m 310 356 l 307 358 q 296 376 299 368 q 293 392 293 383 q 294 410 293 403 q 297 423 296 417 q 297 439 297 429 l 297 450 q 332 467 308 461 q 388 479 356 474 l 389 479 q 538 457 468 476 q 651 410 607 438 q 678 357 678 383 q 668 325 678 344 q 584 278 631 293 q 489 264 538 264 q 392 278 438 264 q 318 321 346 293 q 310 356 310 338 z "},"":{"ha":753,"x_min":15,"x_max":736,"o":"m 590 1197 q 682 1146 646 1196 q 686 1140 685 1143 q 689 1135 688 1138 l 690 1135 q 697 1126 693 1131 q 704 1118 700 1122 l 706 1117 q 736 1019 736 1075 q 703 931 736 964 q 618 897 671 897 l 606 897 q 514 936 546 904 l 508 940 q 449 1056 449 975 q 484 1158 449 1118 q 582 1197 519 1197 l 590 1197 m 157 1197 q 250 1147 214 1197 q 253 1142 251 1144 q 256 1138 254 1140 l 258 1136 q 267 1128 263 1132 q 274 1118 271 1124 q 304 1021 304 1072 q 272 932 304 965 q 188 899 240 899 l 172 899 q 81 936 114 903 l 75 940 q 15 1057 15 975 q 51 1158 15 1119 q 149 1197 88 1197 l 157 1197 m 590 1181 q 499 1149 532 1183 q 465 1056 465 1114 q 497 972 465 1003 q 581 936 528 942 q 665 963 633 932 q 697 1046 697 993 q 669 1136 697 1097 q 590 1181 639 1178 m 157 1181 q 65 1149 99 1183 q 32 1057 32 1115 q 63 973 32 1004 q 147 938 94 942 q 233 963 200 932 q 265 1047 265 994 q 238 1138 265 1097 q 157 1181 207 1181 z "}}}
